<?xml version="1.0" encoding="UTF-8" standalone="no"?>
<!DOCTYPE svg PUBLIC "-//W3C//DTD SVG 1.1//EN" "http://www.w3.org/Graphics/SVG/1.1/DTD/svg11.dtd">
<svg width="100%" height="100%" viewBox="0 0 2550 2550" version="1.1" xmlns="http://www.w3.org/2000/svg" xmlns:xlink="http://www.w3.org/1999/xlink" xml:space="preserve" xmlns:serif="http://www.serif.com/" style="fill-rule:evenodd;clip-rule:evenodd;stroke-linejoin:round;stroke-miterlimit:2;">
    <g id="Layer1" transform="matrix(1,0,0,1,-21.8784,52.304)">
        <g>
            <g transform="matrix(1.03072,0,0,1.02457,-18.9985,-23.4925)">
                <path d="M2266.23,302.421L2266.23,2127.01C2266.23,2149.36 2248.19,2167.51 2225.98,2167.51L318.998,2167.51C296.779,2167.51 278.741,2149.36 278.741,2127.01L278.741,302.421C278.741,280.069 296.779,261.922 318.998,261.922L2225.98,261.922C2248.19,261.922 2266.23,280.069 2266.23,302.421Z"/>
            </g>
            <g id="Layer2" transform="matrix(1,0,0,1,44.5697,30.8306)">
                <g transform="matrix(1,0,0,1,3.03484,-4.72556)">
                    <path d="M2202.86,808.927L2202.86,954.349C2202.86,974.05 2186.87,990.045 2167.17,990.045L2011.28,990.045C1991.58,990.045 1975.58,974.05 1975.58,954.349L1975.58,808.927C1975.58,789.226 1991.58,773.231 2011.28,773.231L2167.17,773.231C2186.87,773.231 2202.86,789.226 2202.86,808.927Z" style="fill:rgb(86,222,147);fill-opacity:0.75;"/>
                </g>
                <g transform="matrix(1,0,0,1,-272.426,-2.75275)">
                    <path d="M2202.86,808.927L2202.86,954.349C2202.86,974.05 2186.87,990.045 2167.17,990.045L2011.28,990.045C1991.58,990.045 1975.58,974.05 1975.58,954.349L1975.58,808.927C1975.58,789.226 1991.58,773.231 2011.28,773.231L2167.17,773.231C2186.87,773.231 2202.86,789.226 2202.86,808.927Z" style="fill:rgb(86,222,147);fill-opacity:0.75;"/>
                </g>
                <g transform="matrix(1,0,0,1,-551.603,-0.465616)">
                    <path d="M2202.86,808.927L2202.86,954.349C2202.86,974.05 2186.87,990.045 2167.17,990.045L2011.28,990.045C1991.58,990.045 1975.58,974.05 1975.58,954.349L1975.58,808.927C1975.58,789.226 1991.58,773.231 2011.28,773.231L2167.17,773.231C2186.87,773.231 2202.86,789.226 2202.86,808.927Z" style="fill:rgb(86,222,147);fill-opacity:0.75;"/>
                </g>
                <g transform="matrix(1,0,0,1,-826.686,-2.70343)">
                    <path d="M2202.86,808.927L2202.86,954.349C2202.86,974.05 2186.87,990.045 2167.17,990.045L2011.28,990.045C1991.58,990.045 1975.58,974.05 1975.58,954.349L1975.58,808.927C1975.58,789.226 1991.58,773.231 2011.28,773.231L2167.17,773.231C2186.87,773.231 2202.86,789.226 2202.86,808.927Z" style="fill:rgb(86,222,147);fill-opacity:0.75;"/>
                </g>
                <g transform="matrix(1,0,0,1,-1103.6,-3.48532)">
                    <path d="M2202.86,808.927L2202.86,954.349C2202.86,974.05 2186.87,990.045 2167.17,990.045L2011.28,990.045C1991.58,990.045 1975.58,974.05 1975.58,954.349L1975.58,808.927C1975.58,789.226 1991.58,773.231 2011.28,773.231L2167.17,773.231C2186.87,773.231 2202.86,789.226 2202.86,808.927Z" style="fill:rgb(86,222,147);fill-opacity:0.75;"/>
                </g>
                <g transform="matrix(1,0,0,1,-1381.47,-1.50379)">
                    <path d="M2202.86,808.927L2202.86,954.349C2202.86,974.05 2186.87,990.045 2167.17,990.045L2011.28,990.045C1991.58,990.045 1975.58,974.05 1975.58,954.349L1975.58,808.927C1975.58,789.226 1991.58,773.231 2011.28,773.231L2167.17,773.231C2186.87,773.231 2202.86,789.226 2202.86,808.927Z" style="fill:rgb(86,222,147);fill-opacity:0.25;"/>
                </g>
                <g transform="matrix(1,0,0,1,-1665.46,-5.66524)">
                    <path d="M2202.86,808.927L2202.86,954.349C2202.86,974.05 2186.87,990.045 2167.17,990.045L2011.28,990.045C1991.58,990.045 1975.58,974.05 1975.58,954.349L1975.58,808.927C1975.58,789.226 1991.58,773.231 2011.28,773.231L2167.17,773.231C2186.87,773.231 2202.86,789.226 2202.86,808.927Z" style="fill:rgb(86,222,147);fill-opacity:0.25;"/>
                </g>
                <g id="Layer21" serif:id="Layer2" transform="matrix(1,0,0,1,-0.184318,253.804)">
                    <g transform="matrix(1,0,0,1,3.03484,-4.72556)">
                        <path d="M2202.86,808.927L2202.86,954.349C2202.86,974.05 2186.87,990.045 2167.17,990.045L2011.28,990.045C1991.58,990.045 1975.58,974.05 1975.58,954.349L1975.58,808.927C1975.58,789.226 1991.58,773.231 2011.28,773.231L2167.17,773.231C2186.87,773.231 2202.86,789.226 2202.86,808.927Z" style="fill:rgb(86,222,147);"/>
                    </g>
                    <g transform="matrix(1,0,0,1,-272.426,-2.75275)">
                        <path d="M2202.86,808.927L2202.86,954.349C2202.86,974.05 2186.87,990.045 2167.17,990.045L2011.28,990.045C1991.58,990.045 1975.58,974.05 1975.58,954.349L1975.58,808.927C1975.58,789.226 1991.58,773.231 2011.28,773.231L2167.17,773.231C2186.87,773.231 2202.86,789.226 2202.86,808.927Z" style="fill:rgb(86,222,147);"/>
                    </g>
                    <g transform="matrix(1,0,0,1,-551.603,-0.465616)">
                        <path d="M2202.86,808.927L2202.86,954.349C2202.86,974.05 2186.87,990.045 2167.17,990.045L2011.28,990.045C1991.58,990.045 1975.58,974.05 1975.58,954.349L1975.58,808.927C1975.58,789.226 1991.58,773.231 2011.28,773.231L2167.17,773.231C2186.87,773.231 2202.86,789.226 2202.86,808.927Z" style="fill:rgb(86,222,147);"/>
                    </g>
                    <g transform="matrix(1,0,0,1,-826.686,-2.70343)">
                        <path d="M2202.86,808.927L2202.86,954.349C2202.86,974.05 2186.87,990.045 2167.17,990.045L2011.28,990.045C1991.58,990.045 1975.58,974.05 1975.58,954.349L1975.58,808.927C1975.58,789.226 1991.58,773.231 2011.28,773.231L2167.17,773.231C2186.87,773.231 2202.86,789.226 2202.86,808.927Z" style="fill:rgb(86,222,147);fill-opacity:0.75;"/>
                    </g>
                    <g transform="matrix(1,0,0,1,-1103.6,-3.48532)">
                        <path d="M2202.86,808.927L2202.86,954.349C2202.86,974.05 2186.87,990.045 2167.17,990.045L2011.28,990.045C1991.58,990.045 1975.58,974.05 1975.58,954.349L1975.58,808.927C1975.58,789.226 1991.58,773.231 2011.28,773.231L2167.17,773.231C2186.87,773.231 2202.86,789.226 2202.86,808.927Z" style="fill:rgb(86,222,147);fill-opacity:0.75;"/>
                    </g>
                    <g transform="matrix(1,0,0,1,-1381.47,-1.50379)">
                        <path d="M2202.86,808.927L2202.86,954.349C2202.86,974.05 2186.87,990.045 2167.17,990.045L2011.28,990.045C1991.58,990.045 1975.58,974.05 1975.58,954.349L1975.58,808.927C1975.58,789.226 1991.58,773.231 2011.28,773.231L2167.17,773.231C2186.87,773.231 2202.86,789.226 2202.86,808.927Z" style="fill:rgb(86,222,147);fill-opacity:0.75;"/>
                    </g>
                    <g transform="matrix(1,0,0,1,-1665.46,-5.66524)">
                        <path d="M2202.86,808.927L2202.86,954.349C2202.86,974.05 2186.87,990.045 2167.17,990.045L2011.28,990.045C1991.58,990.045 1975.58,974.05 1975.58,954.349L1975.58,808.927C1975.58,789.226 1991.58,773.231 2011.28,773.231L2167.17,773.231C2186.87,773.231 2202.86,789.226 2202.86,808.927Z" style="fill:rgb(86,222,147);fill-opacity:0.75;"/>
                    </g>
                    <g id="Layer22" serif:id="Layer2" transform="matrix(1,0,0,1,-5.52964,246.958)">
                        <g transform="matrix(1,0,0,1,3.03484,-4.72556)">
                            <path d="M2202.86,808.927L2202.86,954.349C2202.86,974.05 2186.87,990.045 2167.17,990.045L2011.28,990.045C1991.58,990.045 1975.58,974.05 1975.58,954.349L1975.58,808.927C1975.58,789.226 1991.58,773.231 2011.28,773.231L2167.17,773.231C2186.87,773.231 2202.86,789.226 2202.86,808.927Z" style="fill:rgb(86,222,147);"/>
                        </g>
                        <g transform="matrix(1,0,0,1,-272.426,-2.75275)">
                            <path d="M2202.86,808.927L2202.86,954.349C2202.86,974.05 2186.87,990.045 2167.17,990.045L2011.28,990.045C1991.58,990.045 1975.58,974.05 1975.58,954.349L1975.58,808.927C1975.58,789.226 1991.58,773.231 2011.28,773.231L2167.17,773.231C2186.87,773.231 2202.86,789.226 2202.86,808.927Z" style="fill:rgb(86,222,147);"/>
                        </g>
                        <g transform="matrix(1,0,0,1,-551.603,-0.465616)">
                            <path d="M2202.86,808.927L2202.86,954.349C2202.86,974.05 2186.87,990.045 2167.17,990.045L2011.28,990.045C1991.58,990.045 1975.58,974.05 1975.58,954.349L1975.58,808.927C1975.58,789.226 1991.58,773.231 2011.28,773.231L2167.17,773.231C2186.87,773.231 2202.86,789.226 2202.86,808.927Z" style="fill:rgb(86,222,147);"/>
                        </g>
                        <g transform="matrix(1,0,0,1,-826.686,-2.70343)">
                            <path d="M2202.86,808.927L2202.86,954.349C2202.86,974.05 2186.87,990.045 2167.17,990.045L2011.28,990.045C1991.58,990.045 1975.58,974.05 1975.58,954.349L1975.58,808.927C1975.58,789.226 1991.58,773.231 2011.28,773.231L2167.17,773.231C2186.87,773.231 2202.86,789.226 2202.86,808.927Z" style="fill:rgb(86,222,147);"/>
                        </g>
                        <g transform="matrix(1,0,0,1,-1103.6,-3.48532)">
                            <path d="M2202.86,808.927L2202.86,954.349C2202.86,974.05 2186.87,990.045 2167.17,990.045L2011.28,990.045C1991.58,990.045 1975.58,974.05 1975.58,954.349L1975.58,808.927C1975.58,789.226 1991.58,773.231 2011.28,773.231L2167.17,773.231C2186.87,773.231 2202.86,789.226 2202.86,808.927Z" style="fill:rgb(86,222,147);"/>
                        </g>
                        <g transform="matrix(1,0,0,1,-1381.47,-1.50379)">
                            <path d="M2202.86,808.927L2202.86,954.349C2202.86,974.05 2186.87,990.045 2167.17,990.045L2011.28,990.045C1991.58,990.045 1975.58,974.05 1975.58,954.349L1975.58,808.927C1975.58,789.226 1991.58,773.231 2011.28,773.231L2167.17,773.231C2186.87,773.231 2202.86,789.226 2202.86,808.927Z" style="fill:rgb(86,222,147);"/>
                        </g>
                        <g transform="matrix(1,0,0,1,-1665.46,-5.66524)">
                            <path d="M2202.86,808.927L2202.86,954.349C2202.86,974.05 2186.87,990.045 2167.17,990.045L2011.28,990.045C1991.58,990.045 1975.58,974.05 1975.58,954.349L1975.58,808.927C1975.58,789.226 1991.58,773.231 2011.28,773.231L2167.17,773.231C2186.87,773.231 2202.86,789.226 2202.86,808.927Z" style="fill:rgb(86,222,147);"/>
                        </g>
                        <g id="Layer23" serif:id="Layer2" transform="matrix(1,0,0,1,-2.8575,249.24)">
                            <g transform="matrix(1,0,0,1,3.03484,-4.72556)">
                                <path d="M2202.86,808.927L2202.86,954.349C2202.86,974.05 2186.87,990.045 2167.17,990.045L2011.28,990.045C1991.58,990.045 1975.58,974.05 1975.58,954.349L1975.58,808.927C1975.58,789.226 1991.58,773.231 2011.28,773.231L2167.17,773.231C2186.87,773.231 2202.86,789.226 2202.86,808.927Z" style="fill:rgb(86,222,147);"/>
                            </g>
                            <g transform="matrix(1,0,0,1,-272.426,-2.75275)">
                                <path d="M2202.86,808.927L2202.86,954.349C2202.86,974.05 2186.87,990.045 2167.17,990.045L2011.28,990.045C1991.58,990.045 1975.58,974.05 1975.58,954.349L1975.58,808.927C1975.58,789.226 1991.58,773.231 2011.28,773.231L2167.17,773.231C2186.87,773.231 2202.86,789.226 2202.86,808.927Z" style="fill:rgb(86,222,147);"/>
                            </g>
                            <g transform="matrix(1,0,0,1,-551.603,-0.465616)">
                                <path d="M2202.86,808.927L2202.86,954.349C2202.86,974.05 2186.87,990.045 2167.17,990.045L2011.28,990.045C1991.58,990.045 1975.58,974.05 1975.58,954.349L1975.58,808.927C1975.58,789.226 1991.58,773.231 2011.28,773.231L2167.17,773.231C2186.87,773.231 2202.86,789.226 2202.86,808.927Z" style="fill:rgb(86,222,147);"/>
                            </g>
                            <g transform="matrix(1,0,0,1,-826.686,-2.70343)">
                                <path d="M2202.86,808.927L2202.86,954.349C2202.86,974.05 2186.87,990.045 2167.17,990.045L2011.28,990.045C1991.58,990.045 1975.58,974.05 1975.58,954.349L1975.58,808.927C1975.58,789.226 1991.58,773.231 2011.28,773.231L2167.17,773.231C2186.87,773.231 2202.86,789.226 2202.86,808.927Z" style="fill:rgb(86,222,147);"/>
                            </g>
                            <g transform="matrix(1,0,0,1,-1103.6,-3.48532)">
                                <path d="M2202.86,808.927L2202.86,954.349C2202.86,974.05 2186.87,990.045 2167.17,990.045L2011.28,990.045C1991.58,990.045 1975.58,974.05 1975.58,954.349L1975.58,808.927C1975.58,789.226 1991.58,773.231 2011.28,773.231L2167.17,773.231C2186.87,773.231 2202.86,789.226 2202.86,808.927Z" style="fill:rgb(86,222,147);"/>
                            </g>
                            <g transform="matrix(1,0,0,1,-1381.47,-1.50379)">
                                <path d="M2202.86,808.927L2202.86,954.349C2202.86,974.05 2186.87,990.045 2167.17,990.045L2011.28,990.045C1991.58,990.045 1975.58,974.05 1975.58,954.349L1975.58,808.927C1975.58,789.226 1991.58,773.231 2011.28,773.231L2167.17,773.231C2186.87,773.231 2202.86,789.226 2202.86,808.927Z" style="fill:rgb(86,222,147);"/>
                            </g>
                            <g transform="matrix(1,0,0,1,-1665.46,-5.66524)">
                                <path d="M2202.86,808.927L2202.86,954.349C2202.86,974.05 2186.87,990.045 2167.17,990.045L2011.28,990.045C1991.58,990.045 1975.58,974.05 1975.58,954.349L1975.58,808.927C1975.58,789.226 1991.58,773.231 2011.28,773.231L2167.17,773.231C2186.87,773.231 2202.86,789.226 2202.86,808.927Z" style="fill:rgb(86,222,147);"/>
                            </g>
                            <g id="Layer24" serif:id="Layer2" transform="matrix(1,0,0,1,5.24307,255.818)">
                                <g>
                                    <g transform="matrix(1,0,0,1,-551.603,-0.465616)">
                                        <path d="M2202.86,808.927L2202.86,954.349C2202.86,974.05 2186.87,990.045 2167.17,990.045L2011.28,990.045C1991.58,990.045 1975.58,974.05 1975.58,954.349L1975.58,808.927C1975.58,789.226 1991.58,773.231 2011.28,773.231L2167.17,773.231C2186.87,773.231 2202.86,789.226 2202.86,808.927Z" style="fill:rgb(86,222,147);"/>
                                    </g>
                                    <g transform="matrix(1,0,0,1,-826.686,-2.70343)">
                                        <path d="M2202.86,808.927L2202.86,954.349C2202.86,974.05 2186.87,990.045 2167.17,990.045L2011.28,990.045C1991.58,990.045 1975.58,974.05 1975.58,954.349L1975.58,808.927C1975.58,789.226 1991.58,773.231 2011.28,773.231L2167.17,773.231C2186.87,773.231 2202.86,789.226 2202.86,808.927Z" style="fill:rgb(86,222,147);"/>
                                    </g>
                                    <g transform="matrix(1,0,0,1,-1103.6,-3.48532)">
                                        <path d="M2202.86,808.927L2202.86,954.349C2202.86,974.05 2186.87,990.045 2167.17,990.045L2011.28,990.045C1991.58,990.045 1975.58,974.05 1975.58,954.349L1975.58,808.927C1975.58,789.226 1991.58,773.231 2011.28,773.231L2167.17,773.231C2186.87,773.231 2202.86,789.226 2202.86,808.927Z" style="fill:rgb(86,222,147);"/>
                                    </g>
                                    <g transform="matrix(1,0,0,1,-1381.47,-1.50379)">
                                        <path d="M2202.86,808.927L2202.86,954.349C2202.86,974.05 2186.87,990.045 2167.17,990.045L2011.28,990.045C1991.58,990.045 1975.58,974.05 1975.58,954.349L1975.58,808.927C1975.58,789.226 1991.58,773.231 2011.28,773.231L2167.17,773.231C2186.87,773.231 2202.86,789.226 2202.86,808.927Z" style="fill:rgb(86,222,147);"/>
                                    </g>
                                    <g transform="matrix(1,0,0,1,-1665.46,-5.66524)">
                                        <path d="M2202.86,808.927L2202.86,954.349C2202.86,974.05 2186.87,990.045 2167.17,990.045L2011.28,990.045C1991.58,990.045 1975.58,974.05 1975.58,954.349L1975.58,808.927C1975.58,789.226 1991.58,773.231 2011.28,773.231L2167.17,773.231C2186.87,773.231 2202.86,789.226 2202.86,808.927Z" style="fill:rgb(86,222,147);"/>
                                    </g>
                                </g>
                            </g>
                        </g>
                    </g>
                </g>
            </g>
            <g transform="matrix(1,0,0,1,0.631494,24.5515)">
                <path d="M2231.29,322.228L2231.29,451.22C2231.29,460.979 2223.36,468.902 2213.61,468.902L1950.26,468.902C1940.5,468.902 1932.57,460.979 1932.57,451.22L1932.57,322.228C1932.57,312.469 1940.5,304.547 1950.26,304.547L2213.61,304.547C2223.36,304.547 2231.29,312.469 2231.29,322.228Z" style="fill:rgb(86,222,147);"/>
            </g>
            <g transform="matrix(1,0,0,1,-1573.73,30.5028)">
                <path d="M2231.29,322.228L2231.29,451.22C2231.29,460.979 2223.36,468.902 2213.61,468.902L1950.26,468.902C1940.5,468.902 1932.57,460.979 1932.57,451.22L1932.57,322.228C1932.57,312.469 1940.5,304.547 1950.26,304.547L2213.61,304.547C2223.36,304.547 2231.29,312.469 2231.29,322.228Z" style="fill:rgb(86,222,147);"/>
            </g>
        </g>
    </g>
</svg>
