<svg id="svg1" version="1.2" xmlns="http://www.w3.org/2000/svg" 
     viewBox="0 0 500 500" width="100%" height="100%" preserveAspectRatio="xMidYMid meet">
  <path fill="black" d="M139 465l7 46 147 5 9-34 12-31 10-25 13-28 11-40-2-18-5-9 4-1-11-4 
  8-5-27-1-16-3-23-8v-4h-9l-3-4 1-9 10-6 11 14 6 5 2 1 9 6-5-12-1-12 14 14-1-8 8 8-9-18 
  2-17 9 9 33 4-18-28h11l17-9-7-1-15-12-8-8 10-5 13-9 11-9 9-12 8-12 7-11 5-11 12-1-63-9 
  4-11 6-2h-14l3-7-56 29-17-7 8-2-17-4-27 1-8 3-54-28-1 4-43-11 6 18 4 13-9-5 21 36-3 1 
  4 4 1 5 5 11 15 16-11 15-13 10-9 5 13 3-9 5-8 2 12 1 7-2 10-1-3 7 9-3-2 14-5 11-10 12 
  14-2 17-3-9 7 7 1 5-6v5l-7 9 5 1 8-7 7-8 4-13 7 7 12 9-2 10-5 10-10 4-1-2-9 3v3h-11l-14 
  8-11 1-23-1-7 16-5 18 1 15 3 33 2 16 4 20z"/>
</svg>
