<?xml version="1.0" encoding="UTF-8" standalone="no"?>
<!DOCTYPE svg PUBLIC "-//W3C//DTD SVG 1.1//EN" "http://www.w3.org/Graphics/SVG/1.1/DTD/svg11.dtd">
<svg width="100%" height="100%" viewBox="0 0 2550 2550" version="1.1" xmlns="http://www.w3.org/2000/svg" xmlns:xlink="http://www.w3.org/1999/xlink" xml:space="preserve" xmlns:serif="http://www.serif.com/" style="fill-rule:evenodd;clip-rule:evenodd;stroke-linecap:round;stroke-linejoin:round;stroke-miterlimit:1.5;">
    <g id="Layer1" transform="matrix(1.43952,0,0,1.43952,-455.523,-1110.8)">
        <path d="M1198.77,2580.46L1199.21,2128.59L1222.16,1924L1152.47,1945.89L1099.39,1941.42L1034.15,2024.82L938.302,2084.33L852.721,2060.58L772.275,2021.88L831.944,1938.34L750.432,1957.76L688.244,1989.97L599.661,1945.42L600.388,1870.95L647.028,1787.99L739.825,1728.49L773.97,1679L738.42,1621.82L687.808,1547.5L643.202,1481.06L591.96,1379.62L590.556,1317.6L651.484,1294.18L632.886,1207.7L715.028,1237.76L794.748,1295.13L867.348,1341.2L917.669,1475.65L971.527,1551.35L985.669,1465.34L962.421,1370.36L949.49,1283.08L941.498,1216.63L926.726,1138.46L917.33,1070.79L902.607,966.88L899.992,880.833L964.262,917.212L985.185,972.253L1026.59,1014.66L1048.58,1083.57L1086.46,1127.68L1128.45,1129.68L1181.05,1155.42L1247.06,1247.31L1292.63,1203.06L1298.16,1134L1341.99,1076.2L1407.08,1034.7L1475.42,995.381L1533.39,962.85L1569.86,1035.17L1577.85,1108.73L1635.88,1054.12L1671.43,998.648L1679.56,1093.92L1664.94,1189.51L1651.28,1277.23L1635.59,1387.17L1707.41,1319.78L1756.81,1297.27L1817.4,1298.98L1898.67,1259.51L1835.27,1344.9L1783.6,1395.95L1722.47,1452.23L1672.78,1501.39L1616.65,1560.13L1555.24,1598.69L1546.81,1654.82L1623.87,1604.39L1703.88,1568.15L1768.63,1538.09L1821.28,1523.28L1906.37,1520.67L1876.34,1599.31L1800.64,1664.51L1774.49,1729.9L1727.7,1758.26L1716.18,1809.27L1775.12,1827.31L1827.14,1868.81L1925.6,1894.41L1900.22,1970.25L1836.19,2012.8L1771.44,2033.46L1659.12,2069.51L1639.41,2026.53L1503.7,2060.58L1379.09,2033.14L1334.14,1971.02L1297.53,1914.27L1276.94,2008.48L1198.77,2580.46Z" style="stroke:black;stroke-width:0.69px;"/>
    </g>
</svg>
