<?xml version="1.0" encoding="UTF-8" standalone="no"?>
<!DOCTYPE svg PUBLIC "-//W3C//DTD SVG 1.1//EN" "http://www.w3.org/Graphics/SVG/1.1/DTD/svg11.dtd">
<svg width="100%" height="100%" viewBox="0 0 2550 2550" version="1.1" xmlns="http://www.w3.org/2000/svg" xmlns:xlink="http://www.w3.org/1999/xlink" xml:space="preserve" xmlns:serif="http://www.serif.com/" style="fill-rule:evenodd;clip-rule:evenodd;stroke-linecap:round;stroke-linejoin:round;stroke-miterlimit:1.5;">
    <g id="Layer1">
        <path d="M968.076,2571.45L971.474,2205.99L964.048,2230.26L945.502,2155.11L945.713,2099.89L929.007,2116.96L885.542,1926.59L876.197,1940.94L873.397,1967.39L853.603,1924.37L819.41,1778.69L811.27,1670.22L809.181,1568.88L812.271,1453.58L782.415,1463.14L760.913,1461.32L753.886,1445.72L786.404,1408.98L838.593,1351.74L833.471,1345.16L850.747,1341.96L879.297,1353.26L866.546,1337.93L845.727,1322.95L823.713,1310.27L808.291,1307.67L825.489,1298.77L846.464,1303.49L878.15,1312.21L909.628,1319.78L941.869,1330.99L974.306,1337.54L1004.16,1336.13L1016,1349.65L1010.43,1333.99L1010.27,1313.2L1016.59,1286.74L1028.26,1266.1L1039.16,1254.54L1011.46,1242.06L976.259,1225.85L948.243,1208.24L928.073,1185.9L890.24,1139.03L905.244,1146.78L928.678,1164.67L958.74,1173.81L985.824,1174.99L1012.02,1169.11L1035.47,1158.16L953.775,1136.92L903.904,1125.23L863.116,1117.08L824.878,1109.32L811.156,1118.97L786.467,1149.18L777.426,1194.76L777.513,1211.68L759.642,1185.94L755.693,1149.18L759.009,1116.29L764.958,1097.67L743.969,1111.38L727.129,1141.51L722.907,1178.27L709.097,1160.64L694.939,1111.22L699.671,1071.49L705.942,1060.03L631.049,901.137L593.569,794.479L582.018,685.354L576.708,577.229L587.855,503.276L719.309,439.632L829.438,393.057L853.62,387.333L896.492,350.549L943.465,329.499L989.459,310.859L1025.15,311.577L1106.97,296.917L1135.35,294.167L1112.53,339.221L1102.05,353.009L1158.73,339.802L1245.11,323.041L1303.39,319.06L1369.24,305.774L1438.2,294.86L1469.65,292.601L1484.93,300.05L1443.49,331.082L1420.61,349.909L1459.01,352.532L1544.19,340.972L1576.06,338.11L1545.75,352.953L1531.36,364.681L1570.11,369.212L1618.45,381.838L1666.3,408.296L1700.55,443.144L1714.49,473.636L1728.6,507.996L1708.04,508.8L1699.27,509.963L1717.54,530.153L1747.62,562.945L1775.1,594.422L1791.04,631.713L1809.72,668.314L1816.6,694.327L1801.25,673.617L1811.43,703.761L1827.73,755.429L1849.06,803.827L1866.27,842.293L1868.53,877.173L1883.24,926.009L1888.59,948.87L1855.85,949.24L1796.69,950.301L1781.87,949.729L1747.9,958.028L1705.22,953.829L1682.13,933.153L1694.09,980.823L1719.79,1018.33L1750.9,1056.14L1779.98,1064.68L1796.45,1068.7L1740.92,1099.16L1686.79,1115.56L1628.82,1128.35L1599.67,1124.99L1581.24,1114.5L1617.2,1184.82L1651.66,1169.39L1712.26,1139.27L1769.66,1114.98L1811.84,1092.66L1775.23,1141.9L1756.47,1170.61L1807.32,1174.4L1874.39,1191.87L1900.27,1200.24L1870.71,1206.15L1855.32,1213.2L1871.43,1224.12L1905.35,1216.16L1942.44,1198.59L1953.89,1189.09L1922.06,1223.21L1905.51,1249.47L1923.11,1266.63L1957.16,1331.28L1979.28,1364.52L1991.65,1400.29L1974.69,1384.13L1958.25,1375.75C1958.25,1375.75 1952.98,1402.47 1960.54,1407.67C1968.1,1412.86 1987.63,1440.98 1987.63,1440.98L2014.49,1478.16L2031.53,1494.64L2013.42,1506.9L2003.75,1521.68L2014.52,1546.42L2029.27,1580.81L2037.07,1627.44C2037.07,1627.44 2056.29,1715.7 2051.12,1714.31C2045.96,1712.91 2053.47,1761.98 2053.47,1761.98L2060.68,1809.38L2077.48,1855.74L2099.07,1925.23L2110.97,1897.28L2135.85,1811.58L2149.36,1751.3L2157.11,1719.06L2180.95,1735.96L2189.73,1770.9L2218.77,1727.62L2280.73,1668.96L2366.56,1606.88L2440.26,1557.88C2440.26,1557.88 2524.01,1519.96 2528.57,1515.31C2533.14,1510.66 2584.33,1493.76 2584.33,1493.76L2524.22,1553.78L2494.18,1616.08L2458.82,1668.34L2588.31,1624.44L2589.4,2056.31L2507.72,2093.34L2429.14,2128.88L2379.23,2168.49L2348.13,2207.9L2359.16,2151.74L2374.12,2116.86L2350.37,2144.21L2314.64,2192.36L2272.74,2244.13L2249.06,2272.18L2229.08,2295.84L2242.95,2288.61L2251.58,2292.69L2234.04,2311.77L2209.77,2326.76L2197.79,2324.64L2183.15,2334.52L2100.17,2374.36C2100.17,2374.36 2216.45,2566.92 2217.99,2570.64C2219.53,2574.35 1233.04,2735.71 1220.48,2736.12C1207.92,2736.54 968.076,2571.45 968.076,2571.45Z" style="fill:rgb(16,18,23);stroke:black;stroke-width:1px;"/>
    </g>
    <g id="Layer3">
        <path d="M845.58,821.028L952.921,820.837L1042.7,818.862L1097.51,805.147L1114.87,802.365L1134.47,825.699L1127.64,887.737L1111.81,930.03L1073.04,951.749L974.786,972.662L901.8,950.942L865.462,912.45L848.554,860.773L845.58,821.028Z" style="fill:rgb(86,222,147);stroke:black;stroke-width:1px;"/>
        <path d="M1260.7,807.864L1249.91,861.962L1266.19,920.008L1282.11,932.896L1388.46,928.586L1389.99,867.907L1403.3,809.754L1383.87,811.452L1360.48,845.359L1313.52,889.987L1317.12,852.853L1336.09,804.616L1260.7,807.864Z" style="fill:rgb(86,222,147);stroke:black;stroke-width:1px;"/>
    </g>
</svg>
