<?xml version="1.0" encoding="UTF-8" standalone="no"?>
<!DOCTYPE svg PUBLIC "-//W3C//DTD SVG 1.1//EN" "http://www.w3.org/Graphics/SVG/1.1/DTD/svg11.dtd">
<svg width="100%" height="100%" viewBox="0 0 2550 2550" version="1.1" xmlns="http://www.w3.org/2000/svg" xmlns:xlink="http://www.w3.org/1999/xlink" xml:space="preserve" xmlns:serif="http://www.serif.com/" style="fill-rule:evenodd;clip-rule:evenodd;stroke-linecap:round;stroke-linejoin:round;stroke-miterlimit:1.5;">
    <g id="Layer1">
        <path d="M414.042,2562.09L460.309,2475.66L505.453,2344.22L531.763,2228.1L571.613,2124.02L596.19,2077.14L577.569,2069.62L576.164,2056.69L610.114,2013.49L646.02,1980.43L671.207,1974.07L666.82,1954.05L693.282,1937.13L722.799,1919.95L714.604,1879.44L699.804,1851.94L701.304,1842.85L712.621,1839.12L728.709,1853.67L749.338,1870.6L783.015,1879.15L821.746,1893.03L851.556,1897.87L855.976,1889.09L863.809,1888L888.022,1896.75L884.921,1873.96L885.525,1860.34L858.342,1862.68L806.523,1855.43L757.755,1839.8L718.41,1825.47L667.305,1808.01L621.567,1793.1L606.727,1790.7L601.16,1785.28L599.516,1780.21L591.82,1777.01L587.902,1769.67L591.133,1762.55L597.751,1757.08L613.24,1746.89L629.879,1728.98L656.443,1697.74L637.167,1683L614.248,1665.26L598.965,1650.83L594.976,1644.64L583.788,1646.56L573.257,1645.78L566.796,1639.57L566.193,1632.65L570.275,1628.19L585.732,1623.25L601.617,1623.73L607.392,1623.53L600.167,1621.16L587.753,1617.71L578.457,1617.41L571.961,1617.75L566.942,1619.38L560.932,1617.02L556.451,1612.15L556.393,1605.69L560.068,1600.26L566.051,1596.82L578.497,1596.43L591.069,1597.47L629.784,1604.53L646.355,1606.27L658.281,1606.7L640.282,1583.18L627.76,1569.17L613.868,1552.25L601.552,1538.27L591.691,1528.67L580.91,1517.98L574.887,1509.83L571.823,1504.25L574.172,1497.93L577.407,1494.51L582.47,1493.38L589.571,1497.05L591.265,1493.9L583.526,1489.46L576.269,1487.71L569.907,1484.52L566.848,1477.14L571.318,1469.97L577.623,1467.24L594.75,1471.14L606.484,1477.49L632.107,1490.43L648.124,1498L672.061,1508.38L680.889,1511.77L688.745,1511.93L700.377,1514.22L717.556,1520L727.278,1510.7L718.678,1510.55L711.802,1506.22L706.86,1499.48L707.807,1490.9L712.586,1484.52L721.536,1485.09L726.633,1489.04L737.859,1485.11L747.517,1480.44L746.478,1478.32L740.891,1478.57L735.217,1473.55L732.853,1467.14L736.605,1459.94L736.143,1452.09L738.243,1446.31L745.918,1436.85L757.411,1424.54L768.844,1413.49L776.579,1405.04L782.239,1400.6L789.96,1390.22L786.156,1378.46L783.045,1369.03L773.568,1366.41L741.753,1369.31L720.275,1368.08L695.234,1366.86L686.27,1359.27L687.594,1351.81L692.856,1346.6L701.889,1347.02L694.991,1340.2L685.923,1328.84L679.073,1310.87L671.073,1287.32L662.684,1278.08L658.06,1263.27L652.312,1248.63L622.462,1179.83L602.298,1136.17L596.532,1121.74L583.32,1122.02L571.837,1087.67L568.747,1066.23L554.444,991.543L543.288,935.349L532.04,893.859L523.141,891.799L517.859,884.106L515.771,835.133L512.635,822.715L512.907,801.652L509.97,759.334L507.815,732.66L506.523,696.995L506.14,632.553L509.497,588.788L510.388,546.638L510.481,512.503L510.778,449.72L511.203,407.29L514.093,375.407L516.389,350.566L522.603,325.7L528.035,304.995L537.648,287.38L542.011,284.618L549.436,285.536L559.758,280.573L550.85,273.886L544.607,265.406L540.732,255.696L548.563,248.66L557.699,249.778L565.73,259.392L586.789,271.848L607.589,283.675L637.788,303.024L648.069,299.955L659.962,300.352L676.787,306.471L683.371,291.458L689.518,283.321L708.315,287.297L726.997,300.608L756.001,326.193L800.057,366.567L818.128,382.194L856.178,408.311L878.242,421.21L893.847,427.489L916.676,439.697L942.025,455.106L956.315,463.715L971.919,473.832L998.49,491.761L1034.62,518.489L1074.56,542.436L1082.55,547.908L1084.37,554.182L1097.24,566.009L1134.12,599.566L1160.25,620.182L1191.83,651.852L1210.45,669.434L1233.48,678.679L1256.55,694.962L1277.61,714.54L1317.43,713.457L1340,715.504L1331.92,681.764L1321.85,647.661L1316.33,622.49L1308.61,603.372L1304.47,589.062L1308.59,582.222L1293.4,572.371L1277.46,570.255L1264.72,568.542L1258.76,560.404L1263.07,551.057L1283.34,549.884L1300.68,551.077L1318.94,560.988L1339.64,576.905L1368.03,595.291L1390.06,605.587L1417.69,614.062L1458.82,623.31L1486.26,630.59L1513.01,639.684L1538,649.159L1559.9,661.629L1571,668.223L1570.64,678.49L1578.58,682.757L1589.83,677.445L1607.07,671.748L1640.47,659.479L1667.7,650.612L1691.09,640.403L1712.69,631.278L1733.93,620.801L1763.55,608.883L1786.75,597.625L1811.67,587.834L1830.92,578.232L1849.04,572.457L1868.41,567.743L1881.07,566.016L1883.49,559.173L1889.97,555.317L1900.04,559.555L1898.5,573.452L1885.98,598.775C1885.98,598.775 1868.41,625.254 1868.32,626.754C1868.23,628.254 1858.15,647.877 1858.15,647.877L1886.96,650.329L1910.76,649.578L1942.35,659.471L1956.22,661.904L1965.72,650.589L1979.36,643.804L1991.46,635.153L1970.9,640.463L1953.73,644.439L1946.03,636.459L1951.27,627.781L1975.68,620.039L2009.44,606.572L2023.05,606.722L2029.02,613.275L2049.89,603.032L2082.06,584.317L2094.11,575.496L2096.21,566.813C2096.21,566.813 2098.01,564.111 2099.5,562.651C2100.99,561.192 2130.06,551.042 2130.06,551.042L2173.24,533.201L2195.09,522.4L2219.05,502.159L2245.26,488.512L2274.26,476.252L2297.91,468.83L2323.22,457.657L2330.01,451.977L2341.87,451.182L2361.01,444.377L2382.81,434.199L2399.76,424.893L2415.4,423.135L2420.36,435.511L2411.95,445.831L2415.4,458.207L2418.82,481.368L2425.73,514.901L2429.19,565.405L2429.47,606.415L2429.16,646.635L2424.78,683.478L2416.88,725.088L2395.9,765.794L2392.44,801.325L2385.52,843.738L2374.95,892.184L2363.76,942.072L2351.54,980.392L2353.16,1000.06L2346.16,1022.81L2330.11,1061.74L2316.97,1090.5L2300.99,1124.8L2294.4,1138.65L2302.56,1151.86L2296.73,1171.77L2274.79,1196.92L2259.57,1217.12L2244.49,1234.65L2234.1,1246.05L2244.23,1277.22L2252.73,1308.05L2253.27,1327.4L2248.27,1334.91L2237.7,1333.18L2240.84,1370.99L2248.4,1405.7L2250.86,1436.42L2250.49,1462.24L2245.68,1501L2237.91,1522.45L2230.86,1532.03L2215.52,1529.06L2205.52,1530.21L2192.57,1504.5L2178.46,1481.59L2174.98,1457.69L2159.5,1430.79L2152.61,1417.72L2147.72,1415.5L2147.2,1453.12L2148.77,1494.18L2147.61,1530.52L2140.09,1566.05L2138.3,1592.35L2135.65,1623.15L2132.64,1656.91L2125.91,1681.44L2119.51,1712.41L2111.34,1735.83L2102.67,1753.28L2092.9,1753.62L2089.81,1766L2084.62,1772.17L2080.13,1796.83L2073.04,1826.79L2056.3,1873.55L2049.51,1898.67L2040.33,1908.01L2033.43,1919.52L2022.71,1919.55L2013.63,1905.26L2013.5,1855.81L2017.14,1800.13L2017.25,1781.78L1990.27,1813.93L1970.87,1841.33L1950.88,1868.19L1929.03,1894.22L1909.63,1915.54L1898.79,1911.56L1890.84,1920.79L1879.29,1919.52L1871.99,1907.32L1875.06,1862.76L1879.22,1839.67L1882.11,1810.06L1881.85,1795.14L1861.08,1818.38L1851.91,1836.69L1856.2,1859.46L1853.28,1891L1840.27,1920.97L1832.54,1937.47L1832.76,1952.75L1812.71,1973.38L1800.92,1985.18L1769.63,2004.61L1738.68,2021.61L1710.66,2035.98L1729.36,2041.72L1769.24,2047.23L1791.01,2043.69L1809.03,2049.45L1812.71,2059.43L1806.77,2066.63L1793.3,2065.77L1780.42,2080.83L1766.57,2095.13L1741.13,2128.76L1745.57,2140.58L1733.82,2167.83L1720.94,2189.68L1747.09,2224.78L1770.8,2253.22L1796.87,2281.99L1823.12,2308.28L1839.83,2331.79L1853.05,2351.59L1851.22,2366.98L1833.55,2362.75L1827.29,2346.74L1790.04,2353.5L1770.1,2355.29L1763.11,2365.14L1734.08,2369.72L1711.23,2369.51L1687.92,2377.97L1669.89,2378.18L1664.55,2404.35L1654.93,2434.65L1642.56,2450.43L1593.1,2575.39L586.456,2698.05L414.042,2562.09Z" style="stroke:black;stroke-width:1px;"/>
    </g>
</svg>
