<?xml version="1.0" encoding="UTF-8" standalone="no"?>
<!DOCTYPE svg PUBLIC "-//W3C//DTD SVG 1.1//EN" "http://www.w3.org/Graphics/SVG/1.1/DTD/svg11.dtd">
<svg width="100%" height="100%" viewBox="0 0 2550 2550" version="1.1" xmlns="http://www.w3.org/2000/svg" xmlns:xlink="http://www.w3.org/1999/xlink" xml:space="preserve" xmlns:serif="http://www.serif.com/" style="fill-rule:evenodd;clip-rule:evenodd;stroke-linecap:round;stroke-linejoin:round;stroke-miterlimit:1.5;">
    <g id="Layer1">
        <path d="M1256.15,2576.43L1170.3,2416.16L1160.85,2437.07L1154.3,2440.03L1148.63,2434.74L1145.96,2415.54L1136.14,2425.11L1125.62,2424.59L1125.44,2406.17L1136.66,2383.92L1136.87,2379.44L1125.28,2378.66L1125.04,2364.99L1051.38,2319.24L1051.62,2293.99L1055.87,2286.66L1044.04,2273.98L1045.88,2252.14L1049.63,2246.24L1039.91,2219.6L1040.29,2202.08L1076.1,2174.16L1075.04,2142.75L1081.35,2138.41L1089.28,2138.81L1103.48,2123.6L1124.43,2099.08L1148.26,2085.56L1174.67,2072.57L1196.93,2055.16L1224.58,2039.79L1241.55,2033.73L1259.14,2029.49L1300.26,2024.65L1350.42,2023.08L1365.26,2009.26L1387.5,2008.54L1408.84,1992.55L1391.04,1986.64L1387.17,1980.17L1400.03,1960.71L1414.96,1950.83L1439.41,1949.49L1429.59,1933.66L1400.94,1953.63L1382.74,1963.48L1368.09,1968.31L1342.65,1968.4L1329.18,1964.05L1313.93,1948.64L1327.88,1937.34L1348.45,1909.9L1360.18,1883.14L1366.73,1862.43L1366.58,1855.94L1340.28,1843.46L1312.21,1824.11L1291.67,1801.72L1270.2,1822.13L1248.3,1848.31L1233.37,1875.19L1222.64,1895.35L1222.2,1916.71L1216.63,1923.33L1201.36,1921.24L1185.75,1897.98L1173.55,1869.41L1168.16,1838.89L1163.87,1808.61L1164.2,1772.09L1156.66,1784.77L1149.07,1810.7L1140.21,1852.02L1136.44,1879.44L1131.29,1902.91L1125.88,1906.78L1113.29,1906.03L1073.35,1857.77L1051.54,1815.33L1032.87,1761.85L1025.72,1721.15L1021.76,1655.64L1027.25,1588L1036,1542.49L1052.43,1486.1L900.918,1484.61L809.347,1488.32L716.081,1494.53L628.088,1508.65L486.681,1540.86L371.07,1584.97L262.108,1636.81L175.195,1694.81L93.449,1753.4L99.497,1684.62L131.999,1593.7L176.657,1506.75L228.885,1431.41L340.114,1312.24L421.298,1237.92L517.82,1170.7L605.754,1119.09L686.439,1081.57L771.799,1057.9L881.926,1048.79L864.772,1037.2L859.65,1024.6L873.173,1012.97L903.572,1006.31L951.127,1007.27L991.77,1011.15L971.303,991.168L959.924,974.101L965.151,959.249L986.513,960.342L1028.28,972.508L1081.56,987.75L1125.78,997.396L1019.25,919.538L930.867,854.339L859.071,802.96L781.598,758.723L705.853,718.649L622.21,682.201L543.478,653.838L465.66,633.194L398.434,615.88L333.463,599.248L290.468,591.133L232.866,581.995L261.74,552.588L336.228,502.917L409.483,471.796L484.802,447.037L553.47,430.915L627.113,419.461L700.474,410.745L801.274,407.805L909.449,410.518L1009.16,422.241L1130.25,439.525L1239.61,463.859L1376.64,510.339L1471.73,546.84L1555.56,590.698L1630.2,636.545L1701.19,684.036L1786.72,755.621L1854.88,832.004L1906.38,918.526L1914.01,941.148L1931.68,904.639L1958.99,878.938L1987.58,896.994L2019.29,934.034L2035.56,978.937L2032.36,1025.99L2026.48,1082.38L2071.65,1070.35L2122.01,1051.73L2133.85,1072.64L2104.58,1123.93L2081.05,1172.09L2129.05,1230.15L2160.01,1294.99L2181.91,1371.82L2187.57,1444.94L2183.01,1527.63L2173.38,1578.5L2170.14,1621.47L2173.38,1672.24L2176.84,1702.27L2190.74,1700.83L2202.22,1711.39L2199.85,1725.08L2217.21,1715.68L2226.93,1731.37L2213.5,1752.06L2216.12,1765.32L2190.08,1774.96L2200.37,1796.69L2237.08,1837.09L2283.89,1876.5L2256.04,1884.06L2239.82,1880.26L2253.01,1915.73L2260.45,1937.97L2241.79,1934.19L2230.92,1915.99L2235.99,1962.25L2230.17,1999.67L2214.54,2021.1L2200.9,1997.7L2181.86,1943.98L2154.93,1897.78L2140.16,1914.33L2134.42,1951.31L2127.81,1994.68L2110.77,2035.32L2091.47,2065.85L2055.51,2105.88L2043.41,2142.6L2024.25,2182.8L2016.64,2229.68L2000.93,2296.53L1990.88,2347.15L1982.57,2398.9L1972.1,2413.99L1963.1,2405.82L1958.88,2427.05L1943.28,2446.33L1912.45,2462.45L1884.59,2478.26L1858.59,2477.16L1843.76,2513.98L1834.63,2532.7L1836.22,2554.16L1303.94,2585.18L1256.15,2576.43Z" style="stroke:black;stroke-width:1px;"/>
    </g>
</svg>
