<svg width="600px" height="371px" viewBox="0 0 600 371" version="1.1" xmlns="http://www.w3.org/2000/svg" xmlns:xlink="http://www.w3.org/1999/xlink" xml:space="preserve" xmlns:serif="http://www.serif.com/" style="fill-rule:evenodd;clip-rule:evenodd;stroke-miterlimit:10;">
    <rect x="0" y="0" width="600" height="371" style="fill:rgb(16,18,23);fill-rule:nonzero;"/>
    <g>
        <path d="M218.5,61.5L218.5,300.5" style="fill:none;fill-rule:nonzero;stroke:rgb(26,29,36);stroke-width:1px;"/>
        <path d="M359.5,61.5L359.5,300.5" style="fill:none;fill-rule:nonzero;stroke:rgb(26,29,36);stroke-width:1px;"/>
        <path d="M500.5,61.5L500.5,300.5" style="fill:none;fill-rule:nonzero;stroke:rgb(26,29,36);stroke-width:1px;"/>
        <path d="M77.5,300.5L581.5,300.5" style="fill:none;fill-rule:nonzero;stroke:rgb(26,29,36);stroke-width:1px;"/>
        <path d="M77.5,240.5L581.5,240.5" style="fill:none;fill-rule:nonzero;stroke:rgb(26,29,36);stroke-width:1px;"/>
        <path d="M77.5,181.5L581.5,181.5" style="fill:none;fill-rule:nonzero;stroke:rgb(26,29,36);stroke-width:1px;"/>
        <path d="M77.5,121.5L581.5,121.5" style="fill:none;fill-rule:nonzero;stroke:rgb(26,29,36);stroke-width:1px;"/>
        <path d="M77.5,61.5L581.5,61.5" style="fill:none;fill-rule:nonzero;stroke:rgb(26,29,36);stroke-width:1px;"/>
    </g>
    <clipPath id="_clip1">
        <rect x="77.55" y="61.917" width="503.9" height="238.533"/>
    </clipPath>
    <g clip-path="url(#_clip1)">
        <path d="M77.55,300.208L97.706,276.597L117.862,259.899L138.018,238.431L158.174,219.349L178.33,219.349L198.486,216.963L218.642,207.422L238.798,195.495L258.954,181.183L279.11,176.413L299.266,176.413L319.422,171.642L339.578,171.642L359.734,166.871L379.89,162.101L400.046,159.715L420.202,140.633L440.358,140.633L460.514,131.091L480.67,90.541L500.826,73.843L541.138,73.843L561.294,69.073L581.45,61.917" style="fill:none;fill-rule:nonzero;stroke:rgb(86,222,147);stroke-width:17.44px;"/>
    </g>
    <path d="M65.05,300.216C65.05,299.195 65.154,298.377 65.362,297.763C65.571,297.138 65.878,296.658 66.284,296.325C66.701,295.992 67.222,295.825 67.847,295.825C68.305,295.825 68.706,295.919 69.05,296.106C69.404,296.294 69.696,296.565 69.925,296.919C70.154,297.263 70.331,297.684 70.456,298.184C70.581,298.684 70.644,299.361 70.644,300.216C70.644,301.226 70.54,302.039 70.331,302.653C70.133,303.268 69.826,303.747 69.409,304.091C69.003,304.424 68.482,304.591 67.847,304.591C67.024,304.591 66.373,304.294 65.894,303.7C65.331,302.992 65.05,301.83 65.05,300.216ZM66.128,300.216C66.128,301.622 66.295,302.559 66.628,303.028C66.961,303.497 67.368,303.731 67.847,303.731C68.336,303.731 68.743,303.497 69.066,303.028C69.399,302.559 69.566,301.622 69.566,300.216C69.566,298.799 69.399,297.861 69.066,297.403C68.743,296.934 68.331,296.7 67.831,296.7C67.352,296.7 66.967,296.903 66.675,297.309C66.31,297.83 66.128,298.799 66.128,300.216Z" style="fill:white;fill-rule:nonzero;stroke:white;stroke-width:1px;stroke-linejoin:round;stroke-miterlimit:2;"/>
    <path d="M63.597,243.801L63.597,244.817L57.909,244.817C57.909,244.567 57.951,244.322 58.034,244.082C58.18,243.697 58.409,243.317 58.722,242.942C59.045,242.567 59.508,242.134 60.112,241.645C61.05,240.874 61.68,240.265 62.003,239.817C62.336,239.369 62.503,238.947 62.503,238.551C62.503,238.134 62.352,237.785 62.05,237.504C61.748,237.213 61.357,237.067 60.878,237.067C60.368,237.067 59.961,237.218 59.659,237.52C59.357,237.822 59.201,238.244 59.191,238.785L58.112,238.676C58.185,237.864 58.461,237.249 58.941,236.832C59.43,236.405 60.086,236.192 60.909,236.192C61.732,236.192 62.383,236.421 62.862,236.879C63.342,237.338 63.581,237.905 63.581,238.582C63.581,238.926 63.508,239.265 63.362,239.598C63.227,239.921 62.993,240.27 62.659,240.645C62.336,241.009 61.8,241.509 61.05,242.145C60.415,242.676 60.003,243.041 59.816,243.239C59.639,243.426 59.493,243.614 59.378,243.801L63.597,243.801ZM65.05,242.567L66.159,242.473C66.243,243.015 66.43,243.421 66.722,243.692C67.024,243.963 67.389,244.098 67.816,244.098C68.316,244.098 68.743,243.905 69.097,243.52C69.451,243.134 69.628,242.629 69.628,242.004C69.628,241.4 69.456,240.926 69.113,240.582C68.779,240.228 68.336,240.051 67.784,240.051C67.451,240.051 67.144,240.129 66.863,240.285C66.592,240.442 66.378,240.64 66.222,240.879L65.237,240.754L66.066,236.348L70.347,236.348L70.347,237.348L66.909,237.348L66.456,239.66C66.967,239.296 67.503,239.114 68.066,239.114C68.816,239.114 69.446,239.374 69.956,239.895C70.477,240.416 70.738,241.088 70.738,241.91C70.738,242.681 70.514,243.353 70.066,243.926C69.514,244.614 68.764,244.957 67.816,244.957C67.034,244.957 66.394,244.739 65.894,244.301C65.404,243.864 65.123,243.285 65.05,242.567Z" style="fill:white;fill-rule:nonzero;stroke:white;stroke-width:1px;stroke-linejoin:round;stroke-miterlimit:2;"/>
    <path d="M58.05,182.933L59.159,182.84C59.243,183.381 59.43,183.787 59.722,184.058C60.024,184.329 60.389,184.465 60.816,184.465C61.316,184.465 61.743,184.272 62.097,183.886C62.451,183.501 62.628,182.996 62.628,182.371C62.628,181.767 62.456,181.293 62.112,180.949C61.779,180.595 61.336,180.418 60.784,180.418C60.451,180.418 60.144,180.496 59.862,180.652C59.592,180.808 59.378,181.006 59.222,181.246L58.237,181.121L59.066,176.715L63.347,176.715L63.347,177.715L59.909,177.715L59.456,180.027C59.967,179.663 60.503,179.48 61.066,179.48C61.816,179.48 62.446,179.741 62.956,180.261C63.477,180.782 63.737,181.454 63.737,182.277C63.737,183.048 63.514,183.72 63.066,184.293C62.514,184.98 61.764,185.324 60.816,185.324C60.034,185.324 59.394,185.105 58.894,184.668C58.404,184.23 58.123,183.652 58.05,182.933ZM65.05,180.949C65.05,179.928 65.154,179.11 65.362,178.496C65.571,177.871 65.878,177.392 66.284,177.058C66.701,176.725 67.222,176.558 67.847,176.558C68.305,176.558 68.706,176.652 69.05,176.84C69.404,177.027 69.696,177.298 69.925,177.652C70.154,177.996 70.331,178.418 70.456,178.918C70.581,179.418 70.644,180.095 70.644,180.949C70.644,181.959 70.54,182.772 70.331,183.386C70.133,184.001 69.826,184.48 69.409,184.824C69.003,185.157 68.482,185.324 67.847,185.324C67.024,185.324 66.373,185.027 65.894,184.433C65.331,183.725 65.05,182.564 65.05,180.949ZM66.128,180.949C66.128,182.355 66.295,183.293 66.628,183.761C66.961,184.23 67.368,184.465 67.847,184.465C68.336,184.465 68.743,184.23 69.066,183.761C69.399,183.293 69.566,182.355 69.566,180.949C69.566,179.532 69.399,178.595 69.066,178.136C68.743,177.668 68.331,177.433 67.831,177.433C67.352,177.433 66.967,177.636 66.675,178.043C66.31,178.564 66.128,179.532 66.128,180.949Z" style="fill:white;fill-rule:nonzero;stroke:white;stroke-width:1px;stroke-linejoin:round;stroke-miterlimit:2;"/>
    <path d="M58.112,118.081L58.112,117.066L63.675,117.066L63.675,117.894C63.133,118.477 62.592,119.253 62.05,120.222C61.519,121.18 61.107,122.17 60.816,123.191C60.597,123.909 60.461,124.696 60.409,125.55L59.316,125.55C59.326,124.873 59.456,124.055 59.706,123.097C59.967,122.139 60.331,121.217 60.8,120.331C61.279,119.446 61.79,118.696 62.331,118.081L58.112,118.081ZM65.05,123.3L66.159,123.206C66.243,123.748 66.43,124.154 66.722,124.425C67.024,124.696 67.389,124.831 67.816,124.831C68.316,124.831 68.743,124.639 69.097,124.253C69.451,123.868 69.628,123.363 69.628,122.738C69.628,122.133 69.456,121.659 69.113,121.316C68.779,120.961 68.336,120.784 67.784,120.784C67.451,120.784 67.144,120.863 66.863,121.019C66.592,121.175 66.378,121.373 66.222,121.613L65.237,121.488L66.066,117.081L70.347,117.081L70.347,118.081L66.909,118.081L66.456,120.394C66.967,120.029 67.503,119.847 68.066,119.847C68.816,119.847 69.446,120.107 69.956,120.628C70.477,121.149 70.738,121.821 70.738,122.644C70.738,123.415 70.514,124.086 70.066,124.659C69.514,125.347 68.764,125.691 67.816,125.691C67.034,125.691 66.394,125.472 65.894,125.034C65.404,124.597 65.123,124.019 65.05,123.3Z" style="fill:white;fill-rule:nonzero;stroke:white;stroke-width:1px;stroke-linejoin:round;stroke-miterlimit:2;"/>
    <path d="M55.019,65.917L53.972,65.917L53.972,59.198C53.711,59.437 53.373,59.682 52.956,59.932C52.55,60.172 52.185,60.349 51.862,60.464L51.862,59.448C52.446,59.167 52.956,58.833 53.394,58.448C53.842,58.052 54.159,57.667 54.347,57.292L55.019,57.292L55.019,65.917ZM58.05,61.682C58.05,60.661 58.154,59.844 58.362,59.229C58.571,58.604 58.878,58.125 59.284,57.792C59.701,57.458 60.222,57.292 60.847,57.292C61.305,57.292 61.706,57.385 62.05,57.573C62.404,57.76 62.696,58.031 62.925,58.385C63.154,58.729 63.331,59.151 63.456,59.651C63.581,60.151 63.644,60.828 63.644,61.682C63.644,62.693 63.54,63.505 63.331,64.12C63.133,64.734 62.826,65.214 62.409,65.557C62.003,65.891 61.482,66.057 60.847,66.057C60.024,66.057 59.373,65.76 58.894,65.167C58.331,64.458 58.05,63.297 58.05,61.682ZM59.128,61.682C59.128,63.089 59.295,64.026 59.628,64.495C59.961,64.964 60.368,65.198 60.847,65.198C61.336,65.198 61.743,64.964 62.066,64.495C62.399,64.026 62.566,63.089 62.566,61.682C62.566,60.266 62.399,59.328 62.066,58.87C61.743,58.401 61.331,58.167 60.831,58.167C60.352,58.167 59.967,58.37 59.675,58.776C59.31,59.297 59.128,60.266 59.128,61.682ZM65.05,61.682C65.05,60.661 65.154,59.844 65.362,59.229C65.571,58.604 65.878,58.125 66.284,57.792C66.701,57.458 67.222,57.292 67.847,57.292C68.305,57.292 68.706,57.385 69.05,57.573C69.404,57.76 69.696,58.031 69.925,58.385C70.154,58.729 70.331,59.151 70.456,59.651C70.581,60.151 70.644,60.828 70.644,61.682C70.644,62.693 70.54,63.505 70.331,64.12C70.133,64.734 69.826,65.214 69.409,65.557C69.003,65.891 68.482,66.057 67.847,66.057C67.024,66.057 66.373,65.76 65.894,65.167C65.331,64.458 65.05,63.297 65.05,61.682ZM66.128,61.682C66.128,63.089 66.295,64.026 66.628,64.495C66.961,64.964 67.368,65.198 67.847,65.198C68.336,65.198 68.743,64.964 69.066,64.495C69.399,64.026 69.566,63.089 69.566,61.682C69.566,60.266 69.399,59.328 69.066,58.87C68.743,58.401 68.331,58.167 67.831,58.167C67.352,58.167 66.967,58.37 66.675,58.776C66.31,59.297 66.128,60.266 66.128,61.682Z" style="fill:white;fill-rule:nonzero;stroke:white;stroke-width:1px;stroke-linejoin:round;stroke-miterlimit:2;"/>
    <g transform="matrix(1,0,0,1,0.579062,19.0022)">
        <path d="M53.534,317.45L56.831,308.856L58.05,308.856L61.566,317.45L60.284,317.45L59.269,314.841L55.691,314.841L54.737,317.45L53.534,317.45ZM56.019,313.919L58.925,313.919L58.034,311.544C57.753,310.825 57.55,310.231 57.425,309.763C57.31,310.315 57.154,310.861 56.956,311.403L56.019,313.919ZM65.425,317.45L65.425,316.528C64.935,317.236 64.274,317.591 63.441,317.591C63.076,317.591 62.732,317.523 62.409,317.388C62.097,317.242 61.862,317.065 61.706,316.856C61.55,316.638 61.441,316.372 61.378,316.059C61.336,315.861 61.316,315.533 61.316,315.075L61.316,311.231L62.378,311.231L62.378,314.684C62.378,315.226 62.399,315.596 62.441,315.794C62.503,316.065 62.639,316.283 62.847,316.45C63.066,316.606 63.336,316.684 63.659,316.684C63.972,316.684 64.264,316.606 64.534,316.45C64.816,316.283 65.014,316.059 65.128,315.778C65.253,315.497 65.316,315.091 65.316,314.559L65.316,311.231L66.363,311.231L66.363,317.45L65.425,317.45ZM68.144,317.966L69.175,318.122C69.217,318.434 69.336,318.664 69.534,318.809C69.795,319.007 70.149,319.106 70.597,319.106C71.086,319.106 71.461,319.007 71.722,318.809C71.993,318.611 72.175,318.341 72.269,317.997C72.331,317.778 72.357,317.325 72.347,316.638C71.889,317.179 71.316,317.45 70.628,317.45C69.774,317.45 69.113,317.143 68.644,316.528C68.175,315.903 67.941,315.164 67.941,314.309C67.941,313.716 68.045,313.169 68.253,312.669C68.472,312.158 68.784,311.768 69.191,311.497C69.597,311.226 70.076,311.091 70.628,311.091C71.368,311.091 71.977,311.388 72.456,311.981L72.456,311.231L73.425,311.231L73.425,316.606C73.425,317.575 73.326,318.263 73.128,318.669C72.93,319.075 72.618,319.393 72.191,319.622C71.764,319.861 71.238,319.981 70.613,319.981C69.873,319.981 69.274,319.815 68.816,319.481C68.357,319.148 68.133,318.643 68.144,317.966ZM69.019,314.231C69.019,315.044 69.18,315.638 69.503,316.013C69.826,316.388 70.232,316.575 70.722,316.575C71.211,316.575 71.618,316.388 71.941,316.013C72.274,315.638 72.441,315.054 72.441,314.263C72.441,313.502 72.269,312.929 71.925,312.544C71.592,312.158 71.185,311.966 70.706,311.966C70.238,311.966 69.836,312.158 69.503,312.544C69.18,312.919 69.019,313.481 69.019,314.231ZM79.425,317.45L79.425,316.528C78.935,317.236 78.274,317.591 77.441,317.591C77.076,317.591 76.732,317.523 76.409,317.388C76.097,317.242 75.863,317.065 75.706,316.856C75.55,316.638 75.441,316.372 75.378,316.059C75.336,315.861 75.316,315.533 75.316,315.075L75.316,311.231L76.378,311.231L76.378,314.684C76.378,315.226 76.399,315.596 76.441,315.794C76.503,316.065 76.639,316.283 76.847,316.45C77.066,316.606 77.336,316.684 77.659,316.684C77.972,316.684 78.264,316.606 78.534,316.45C78.816,316.283 79.014,316.059 79.128,315.778C79.253,315.497 79.316,315.091 79.316,314.559L79.316,311.231L80.363,311.231L80.363,317.45L79.425,317.45ZM81.925,315.591L82.956,315.434C83.019,315.851 83.18,316.169 83.441,316.388C83.711,316.606 84.092,316.716 84.581,316.716C85.06,316.716 85.415,316.622 85.644,316.434C85.883,316.236 86.003,316.002 86.003,315.731C86.003,315.492 85.899,315.304 85.691,315.169C85.545,315.075 85.185,314.955 84.613,314.809C83.842,314.611 83.305,314.445 83.003,314.309C82.711,314.164 82.488,313.966 82.331,313.716C82.175,313.466 82.097,313.184 82.097,312.872C82.097,312.601 82.159,312.346 82.284,312.106C82.409,311.867 82.581,311.669 82.8,311.513C82.967,311.398 83.191,311.299 83.472,311.216C83.753,311.132 84.06,311.091 84.394,311.091C84.873,311.091 85.295,311.164 85.659,311.309C86.034,311.445 86.31,311.632 86.488,311.872C86.665,312.111 86.784,312.429 86.847,312.825L85.816,312.966C85.774,312.653 85.639,312.408 85.409,312.231C85.191,312.044 84.873,311.95 84.456,311.95C83.977,311.95 83.633,312.033 83.425,312.2C83.217,312.356 83.113,312.544 83.113,312.763C83.113,312.898 83.154,313.018 83.238,313.122C83.331,313.236 83.467,313.33 83.644,313.403C83.748,313.445 84.06,313.533 84.581,313.669C85.331,313.877 85.852,314.044 86.144,314.169C86.435,314.294 86.665,314.476 86.831,314.716C86.998,314.955 87.081,315.257 87.081,315.622C87.081,315.976 86.977,316.309 86.769,316.622C86.571,316.924 86.279,317.164 85.894,317.341C85.508,317.507 85.071,317.591 84.581,317.591C83.769,317.591 83.149,317.424 82.722,317.091C82.305,316.747 82.04,316.247 81.925,315.591ZM91.644,316.513L91.8,317.434C91.498,317.497 91.232,317.528 91.003,317.528C90.618,317.528 90.321,317.471 90.113,317.356C89.904,317.231 89.753,317.07 89.659,316.872C89.576,316.674 89.534,316.257 89.534,315.622L89.534,312.044L88.769,312.044L88.769,311.231L89.534,311.231L89.534,309.684L90.581,309.059L90.581,311.231L91.644,311.231L91.644,312.044L90.581,312.044L90.581,315.684C90.581,315.986 90.597,316.179 90.628,316.263C90.67,316.346 90.732,316.414 90.816,316.466C90.899,316.518 91.019,316.544 91.175,316.544C91.3,316.544 91.456,316.533 91.644,316.513ZM95.05,315.184L96.113,315.044C96.227,315.638 96.43,316.07 96.722,316.341C97.014,316.601 97.368,316.731 97.784,316.731C98.284,316.731 98.706,316.559 99.05,316.216C99.394,315.872 99.566,315.445 99.566,314.934C99.566,314.455 99.404,314.059 99.081,313.747C98.769,313.424 98.368,313.263 97.878,313.263C97.68,313.263 97.43,313.304 97.128,313.388L97.253,312.45C97.326,312.46 97.383,312.466 97.425,312.466C97.873,312.466 98.274,312.351 98.628,312.122C98.993,311.882 99.175,311.518 99.175,311.028C99.175,310.643 99.045,310.325 98.784,310.075C98.524,309.815 98.185,309.684 97.769,309.684C97.363,309.684 97.019,309.815 96.738,310.075C96.467,310.335 96.295,310.721 96.222,311.231L95.159,311.044C95.284,310.346 95.576,309.804 96.034,309.419C96.493,309.023 97.06,308.825 97.738,308.825C98.206,308.825 98.639,308.929 99.034,309.138C99.43,309.335 99.732,309.606 99.941,309.95C100.149,310.294 100.253,310.664 100.253,311.059C100.253,311.424 100.154,311.763 99.956,312.075C99.758,312.377 99.467,312.617 99.081,312.794C99.581,312.908 99.972,313.153 100.253,313.528C100.534,313.893 100.675,314.356 100.675,314.919C100.675,315.669 100.399,316.304 99.847,316.825C99.305,317.346 98.618,317.606 97.784,317.606C97.034,317.606 96.409,317.382 95.909,316.934C95.409,316.476 95.123,315.893 95.05,315.184Z" style="fill:white;fill-rule:nonzero;stroke:white;stroke-width:1px;stroke-linejoin:round;stroke-miterlimit:2;"/>
    </g>
    <g transform="matrix(1,0,0,1,0.579062,19.0022)">
        <path d="M191.126,317.45L194.423,308.856L195.642,308.856L199.158,317.45L197.876,317.45L196.861,314.841L193.283,314.841L192.33,317.45L191.126,317.45ZM193.611,313.919L196.517,313.919L195.626,311.544C195.345,310.825 195.142,310.231 195.017,309.763C194.902,310.315 194.746,310.861 194.548,311.403L193.611,313.919ZM203.017,317.45L203.017,316.528C202.527,317.236 201.866,317.591 201.033,317.591C200.668,317.591 200.324,317.523 200.001,317.388C199.689,317.242 199.454,317.065 199.298,316.856C199.142,316.638 199.033,316.372 198.97,316.059C198.928,315.861 198.908,315.533 198.908,315.075L198.908,311.231L199.97,311.231L199.97,314.684C199.97,315.226 199.991,315.596 200.033,315.794C200.095,316.065 200.231,316.283 200.439,316.45C200.658,316.606 200.928,316.684 201.251,316.684C201.564,316.684 201.856,316.606 202.126,316.45C202.408,316.283 202.606,316.059 202.72,315.778C202.845,315.497 202.908,315.091 202.908,314.559L202.908,311.231L203.955,311.231L203.955,317.45L203.017,317.45ZM205.736,317.966L206.767,318.122C206.809,318.434 206.928,318.664 207.126,318.809C207.387,319.007 207.741,319.106 208.189,319.106C208.678,319.106 209.053,319.007 209.314,318.809C209.585,318.611 209.767,318.341 209.861,317.997C209.923,317.778 209.949,317.325 209.939,316.638C209.481,317.179 208.908,317.45 208.22,317.45C207.366,317.45 206.704,317.143 206.236,316.528C205.767,315.903 205.533,315.164 205.533,314.309C205.533,313.716 205.637,313.169 205.845,312.669C206.064,312.158 206.376,311.768 206.783,311.497C207.189,311.226 207.668,311.091 208.22,311.091C208.96,311.091 209.569,311.388 210.048,311.981L210.048,311.231L211.017,311.231L211.017,316.606C211.017,317.575 210.918,318.263 210.72,318.669C210.522,319.075 210.21,319.393 209.783,319.622C209.356,319.861 208.83,319.981 208.205,319.981C207.465,319.981 206.866,319.815 206.408,319.481C205.949,319.148 205.725,318.643 205.736,317.966ZM206.611,314.231C206.611,315.044 206.772,315.638 207.095,316.013C207.418,316.388 207.824,316.575 208.314,316.575C208.803,316.575 209.21,316.388 209.533,316.013C209.866,315.638 210.033,315.054 210.033,314.263C210.033,313.502 209.861,312.929 209.517,312.544C209.184,312.158 208.777,311.966 208.298,311.966C207.829,311.966 207.428,312.158 207.095,312.544C206.772,312.919 206.611,313.481 206.611,314.231ZM217.017,317.45L217.017,316.528C216.527,317.236 215.866,317.591 215.033,317.591C214.668,317.591 214.324,317.523 214.001,317.388C213.689,317.242 213.454,317.065 213.298,316.856C213.142,316.638 213.033,316.372 212.97,316.059C212.928,315.861 212.908,315.533 212.908,315.075L212.908,311.231L213.97,311.231L213.97,314.684C213.97,315.226 213.991,315.596 214.033,315.794C214.095,316.065 214.231,316.283 214.439,316.45C214.658,316.606 214.928,316.684 215.251,316.684C215.564,316.684 215.856,316.606 216.126,316.45C216.408,316.283 216.606,316.059 216.72,315.778C216.845,315.497 216.908,315.091 216.908,314.559L216.908,311.231L217.955,311.231L217.955,317.45L217.017,317.45ZM219.517,315.591L220.548,315.434C220.611,315.851 220.772,316.169 221.033,316.388C221.303,316.606 221.684,316.716 222.173,316.716C222.652,316.716 223.007,316.622 223.236,316.434C223.475,316.236 223.595,316.002 223.595,315.731C223.595,315.492 223.491,315.304 223.283,315.169C223.137,315.075 222.777,314.955 222.205,314.809C221.434,314.611 220.897,314.445 220.595,314.309C220.303,314.164 220.079,313.966 219.923,313.716C219.767,313.466 219.689,313.184 219.689,312.872C219.689,312.601 219.751,312.346 219.876,312.106C220.001,311.867 220.173,311.669 220.392,311.513C220.559,311.398 220.783,311.299 221.064,311.216C221.345,311.132 221.652,311.091 221.986,311.091C222.465,311.091 222.887,311.164 223.251,311.309C223.626,311.445 223.902,311.632 224.08,311.872C224.257,312.111 224.376,312.429 224.439,312.825L223.408,312.966C223.366,312.653 223.231,312.408 223.001,312.231C222.783,312.044 222.465,311.95 222.048,311.95C221.569,311.95 221.225,312.033 221.017,312.2C220.809,312.356 220.705,312.544 220.705,312.763C220.705,312.898 220.746,313.018 220.83,313.122C220.923,313.236 221.059,313.33 221.236,313.403C221.34,313.445 221.652,313.533 222.173,313.669C222.923,313.877 223.444,314.044 223.736,314.169C224.027,314.294 224.257,314.476 224.423,314.716C224.59,314.955 224.673,315.257 224.673,315.622C224.673,315.976 224.569,316.309 224.361,316.622C224.163,316.924 223.871,317.164 223.486,317.341C223.1,317.507 222.663,317.591 222.173,317.591C221.361,317.591 220.741,317.424 220.314,317.091C219.897,316.747 219.632,316.247 219.517,315.591ZM229.236,316.513L229.392,317.434C229.09,317.497 228.824,317.528 228.595,317.528C228.21,317.528 227.913,317.471 227.705,317.356C227.496,317.231 227.345,317.07 227.251,316.872C227.168,316.674 227.126,316.257 227.126,315.622L227.126,312.044L226.361,312.044L226.361,311.231L227.126,311.231L227.126,309.684L228.173,309.059L228.173,311.231L229.236,311.231L229.236,312.044L228.173,312.044L228.173,315.684C228.173,315.986 228.189,316.179 228.22,316.263C228.262,316.346 228.324,316.414 228.408,316.466C228.491,316.518 228.611,316.544 228.767,316.544C228.892,316.544 229.048,316.533 229.236,316.513ZM236.611,317.45L235.564,317.45L235.564,310.731C235.303,310.971 234.965,311.216 234.548,311.466C234.142,311.705 233.777,311.882 233.455,311.997L233.455,310.981C234.038,310.7 234.548,310.367 234.986,309.981C235.434,309.585 235.751,309.2 235.939,308.825L236.611,308.825L236.611,317.45ZM239.642,313.216C239.642,312.195 239.746,311.377 239.955,310.763C240.163,310.138 240.47,309.658 240.876,309.325C241.293,308.992 241.814,308.825 242.439,308.825C242.897,308.825 243.298,308.919 243.642,309.106C243.996,309.294 244.288,309.565 244.517,309.919C244.746,310.263 244.923,310.684 245.048,311.184C245.173,311.684 245.236,312.361 245.236,313.216C245.236,314.226 245.132,315.039 244.923,315.653C244.725,316.268 244.418,316.747 244.001,317.091C243.595,317.424 243.074,317.591 242.439,317.591C241.616,317.591 240.965,317.294 240.486,316.7C239.923,315.992 239.642,314.83 239.642,313.216ZM240.72,313.216C240.72,314.622 240.887,315.559 241.22,316.028C241.553,316.497 241.96,316.731 242.439,316.731C242.928,316.731 243.335,316.497 243.658,316.028C243.991,315.559 244.158,314.622 244.158,313.216C244.158,311.799 243.991,310.861 243.658,310.403C243.335,309.934 242.923,309.7 242.423,309.7C241.944,309.7 241.559,309.903 241.267,310.309C240.902,310.83 240.72,311.799 240.72,313.216Z" style="fill:white;fill-rule:nonzero;stroke:white;stroke-width:1px;stroke-linejoin:round;stroke-miterlimit:2;"/>
    </g>
    <g transform="matrix(1,0,0,1,0.579062,19.0022)">
        <path d="M332.218,317.45L335.515,308.856L336.734,308.856L340.25,317.45L338.968,317.45L337.953,314.841L334.375,314.841L333.422,317.45L332.218,317.45ZM334.703,313.919L337.609,313.919L336.718,311.544C336.437,310.825 336.234,310.231 336.109,309.763C335.994,310.315 335.838,310.861 335.64,311.403L334.703,313.919ZM344.109,317.45L344.109,316.528C343.619,317.236 342.958,317.591 342.125,317.591C341.76,317.591 341.416,317.523 341.093,317.388C340.781,317.242 340.547,317.065 340.39,316.856C340.234,316.638 340.125,316.372 340.062,316.059C340.02,315.861 340,315.533 340,315.075L340,311.231L341.062,311.231L341.062,314.684C341.062,315.226 341.083,315.596 341.125,315.794C341.187,316.065 341.323,316.283 341.531,316.45C341.75,316.606 342.02,316.684 342.343,316.684C342.656,316.684 342.948,316.606 343.218,316.45C343.5,316.283 343.698,316.059 343.812,315.778C343.937,315.497 344,315.091 344,314.559L344,311.231L345.047,311.231L345.047,317.45L344.109,317.45ZM346.828,317.966L347.859,318.122C347.901,318.434 348.02,318.664 348.218,318.809C348.479,319.007 348.833,319.106 349.281,319.106C349.77,319.106 350.145,319.007 350.406,318.809C350.677,318.611 350.859,318.341 350.953,317.997C351.015,317.778 351.041,317.325 351.031,316.638C350.573,317.179 350,317.45 349.312,317.45C348.458,317.45 347.797,317.143 347.328,316.528C346.859,315.903 346.625,315.164 346.625,314.309C346.625,313.716 346.729,313.169 346.937,312.669C347.156,312.158 347.468,311.768 347.875,311.497C348.281,311.226 348.76,311.091 349.312,311.091C350.052,311.091 350.661,311.388 351.14,311.981L351.14,311.231L352.109,311.231L352.109,316.606C352.109,317.575 352.01,318.263 351.812,318.669C351.614,319.075 351.302,319.393 350.875,319.622C350.448,319.861 349.922,319.981 349.297,319.981C348.557,319.981 347.958,319.815 347.5,319.481C347.041,319.148 346.817,318.643 346.828,317.966ZM347.703,314.231C347.703,315.044 347.864,315.638 348.187,316.013C348.51,316.388 348.916,316.575 349.406,316.575C349.895,316.575 350.302,316.388 350.625,316.013C350.958,315.638 351.125,315.054 351.125,314.263C351.125,313.502 350.953,312.929 350.609,312.544C350.276,312.158 349.869,311.966 349.39,311.966C348.922,311.966 348.52,312.158 348.187,312.544C347.864,312.919 347.703,313.481 347.703,314.231ZM358.109,317.45L358.109,316.528C357.619,317.236 356.958,317.591 356.125,317.591C355.76,317.591 355.416,317.523 355.093,317.388C354.781,317.242 354.547,317.065 354.39,316.856C354.234,316.638 354.125,316.372 354.062,316.059C354.02,315.861 354,315.533 354,315.075L354,311.231L355.062,311.231L355.062,314.684C355.062,315.226 355.083,315.596 355.125,315.794C355.187,316.065 355.323,316.283 355.531,316.45C355.75,316.606 356.02,316.684 356.343,316.684C356.656,316.684 356.948,316.606 357.218,316.45C357.5,316.283 357.698,316.059 357.812,315.778C357.937,315.497 358,315.091 358,314.559L358,311.231L359.047,311.231L359.047,317.45L358.109,317.45ZM360.609,315.591L361.64,315.434C361.703,315.851 361.864,316.169 362.125,316.388C362.395,316.606 362.776,316.716 363.265,316.716C363.744,316.716 364.099,316.622 364.328,316.434C364.567,316.236 364.687,316.002 364.687,315.731C364.687,315.492 364.583,315.304 364.375,315.169C364.229,315.075 363.869,314.955 363.297,314.809C362.526,314.611 361.989,314.445 361.687,314.309C361.395,314.164 361.172,313.966 361.015,313.716C360.859,313.466 360.781,313.184 360.781,312.872C360.781,312.601 360.843,312.346 360.968,312.106C361.093,311.867 361.265,311.669 361.484,311.513C361.651,311.398 361.875,311.299 362.156,311.216C362.437,311.132 362.744,311.091 363.078,311.091C363.557,311.091 363.979,311.164 364.343,311.309C364.718,311.445 364.994,311.632 365.172,311.872C365.349,312.111 365.468,312.429 365.531,312.825L364.5,312.966C364.458,312.653 364.323,312.408 364.093,312.231C363.875,312.044 363.557,311.95 363.14,311.95C362.661,311.95 362.317,312.033 362.109,312.2C361.901,312.356 361.797,312.544 361.797,312.763C361.797,312.898 361.838,313.018 361.922,313.122C362.015,313.236 362.151,313.33 362.328,313.403C362.432,313.445 362.744,313.533 363.265,313.669C364.015,313.877 364.536,314.044 364.828,314.169C365.119,314.294 365.349,314.476 365.515,314.716C365.682,314.955 365.765,315.257 365.765,315.622C365.765,315.976 365.661,316.309 365.453,316.622C365.255,316.924 364.963,317.164 364.578,317.341C364.192,317.507 363.755,317.591 363.265,317.591C362.453,317.591 361.833,317.424 361.406,317.091C360.989,316.747 360.724,316.247 360.609,315.591ZM370.328,316.513L370.484,317.434C370.182,317.497 369.916,317.528 369.687,317.528C369.302,317.528 369.005,317.471 368.797,317.356C368.588,317.231 368.437,317.07 368.343,316.872C368.26,316.674 368.218,316.257 368.218,315.622L368.218,312.044L367.453,312.044L367.453,311.231L368.218,311.231L368.218,309.684L369.265,309.059L369.265,311.231L370.328,311.231L370.328,312.044L369.265,312.044L369.265,315.684C369.265,315.986 369.281,316.179 369.312,316.263C369.354,316.346 369.416,316.414 369.5,316.466C369.583,316.518 369.703,316.544 369.859,316.544C369.984,316.544 370.14,316.533 370.328,316.513ZM377.703,317.45L376.656,317.45L376.656,310.731C376.395,310.971 376.057,311.216 375.64,311.466C375.234,311.705 374.869,311.882 374.547,311.997L374.547,310.981C375.13,310.7 375.64,310.367 376.078,309.981C376.526,309.585 376.843,309.2 377.031,308.825L377.703,308.825L377.703,317.45ZM380.797,309.981L380.797,308.966L386.359,308.966L386.359,309.794C385.817,310.377 385.276,311.153 384.734,312.122C384.203,313.08 383.791,314.07 383.5,315.091C383.281,315.809 383.145,316.596 383.093,317.45L382,317.45C382.01,316.773 382.14,315.955 382.39,314.997C382.651,314.039 383.015,313.117 383.484,312.231C383.963,311.346 384.474,310.596 385.015,309.981L380.797,309.981Z" style="fill:white;fill-rule:nonzero;stroke:white;stroke-width:1px;stroke-linejoin:round;stroke-miterlimit:2;"/>
    </g>
    <g transform="matrix(1,0,0,1,0.579062,19.0022)">
        <path d="M473.31,317.45L476.607,308.856L477.826,308.856L481.342,317.45L480.06,317.45L479.045,314.841L475.467,314.841L474.514,317.45L473.31,317.45ZM475.795,313.919L478.701,313.919L477.81,311.544C477.529,310.825 477.326,310.231 477.201,309.763C477.086,310.315 476.93,310.861 476.732,311.403L475.795,313.919ZM485.201,317.45L485.201,316.528C484.711,317.236 484.05,317.591 483.217,317.591C482.852,317.591 482.508,317.523 482.185,317.388C481.873,317.242 481.638,317.065 481.482,316.856C481.326,316.638 481.217,316.372 481.154,316.059C481.112,315.861 481.092,315.533 481.092,315.075L481.092,311.231L482.154,311.231L482.154,314.684C482.154,315.226 482.175,315.596 482.217,315.794C482.279,316.065 482.415,316.283 482.623,316.45C482.842,316.606 483.112,316.684 483.435,316.684C483.748,316.684 484.04,316.606 484.31,316.45C484.592,316.283 484.79,316.059 484.904,315.778C485.029,315.497 485.092,315.091 485.092,314.559L485.092,311.231L486.139,311.231L486.139,317.45L485.201,317.45ZM487.92,317.966L488.951,318.122C488.993,318.434 489.112,318.664 489.31,318.809C489.571,319.007 489.925,319.106 490.373,319.106C490.862,319.106 491.237,319.007 491.498,318.809C491.769,318.611 491.951,318.341 492.045,317.997C492.107,317.778 492.133,317.325 492.123,316.638C491.665,317.179 491.092,317.45 490.404,317.45C489.55,317.45 488.888,317.143 488.42,316.528C487.951,315.903 487.717,315.164 487.717,314.309C487.717,313.716 487.821,313.169 488.029,312.669C488.248,312.158 488.56,311.768 488.967,311.497C489.373,311.226 489.852,311.091 490.404,311.091C491.144,311.091 491.753,311.388 492.232,311.981L492.232,311.231L493.201,311.231L493.201,316.606C493.201,317.575 493.102,318.263 492.904,318.669C492.706,319.075 492.394,319.393 491.967,319.622C491.54,319.861 491.014,319.981 490.389,319.981C489.649,319.981 489.05,319.815 488.592,319.481C488.133,319.148 487.909,318.643 487.92,317.966ZM488.795,314.231C488.795,315.044 488.956,315.638 489.279,316.013C489.602,316.388 490.008,316.575 490.498,316.575C490.987,316.575 491.394,316.388 491.717,316.013C492.05,315.638 492.217,315.054 492.217,314.263C492.217,313.502 492.045,312.929 491.701,312.544C491.368,312.158 490.961,311.966 490.482,311.966C490.013,311.966 489.612,312.158 489.279,312.544C488.956,312.919 488.795,313.481 488.795,314.231ZM499.201,317.45L499.201,316.528C498.711,317.236 498.05,317.591 497.217,317.591C496.852,317.591 496.508,317.523 496.185,317.388C495.873,317.242 495.638,317.065 495.482,316.856C495.326,316.638 495.217,316.372 495.154,316.059C495.112,315.861 495.092,315.533 495.092,315.075L495.092,311.231L496.154,311.231L496.154,314.684C496.154,315.226 496.175,315.596 496.217,315.794C496.279,316.065 496.415,316.283 496.623,316.45C496.842,316.606 497.112,316.684 497.435,316.684C497.748,316.684 498.04,316.606 498.31,316.45C498.592,316.283 498.79,316.059 498.904,315.778C499.029,315.497 499.092,315.091 499.092,314.559L499.092,311.231L500.139,311.231L500.139,317.45L499.201,317.45ZM501.701,315.591L502.732,315.434C502.795,315.851 502.956,316.169 503.217,316.388C503.487,316.606 503.868,316.716 504.357,316.716C504.836,316.716 505.191,316.622 505.42,316.434C505.659,316.236 505.779,316.002 505.779,315.731C505.779,315.492 505.675,315.304 505.467,315.169C505.321,315.075 504.961,314.955 504.389,314.809C503.618,314.611 503.081,314.445 502.779,314.309C502.487,314.164 502.263,313.966 502.107,313.716C501.951,313.466 501.873,313.184 501.873,312.872C501.873,312.601 501.935,312.346 502.06,312.106C502.185,311.867 502.357,311.669 502.576,311.513C502.743,311.398 502.967,311.299 503.248,311.216C503.529,311.132 503.836,311.091 504.17,311.091C504.649,311.091 505.071,311.164 505.435,311.309C505.81,311.445 506.086,311.632 506.264,311.872C506.441,312.111 506.56,312.429 506.623,312.825L505.592,312.966C505.55,312.653 505.415,312.408 505.185,312.231C504.967,312.044 504.649,311.95 504.232,311.95C503.753,311.95 503.409,312.033 503.201,312.2C502.993,312.356 502.889,312.544 502.889,312.763C502.889,312.898 502.93,313.018 503.014,313.122C503.107,313.236 503.243,313.33 503.42,313.403C503.524,313.445 503.836,313.533 504.357,313.669C505.107,313.877 505.628,314.044 505.92,314.169C506.211,314.294 506.441,314.476 506.607,314.716C506.774,314.955 506.857,315.257 506.857,315.622C506.857,315.976 506.753,316.309 506.545,316.622C506.347,316.924 506.055,317.164 505.67,317.341C505.284,317.507 504.847,317.591 504.357,317.591C503.545,317.591 502.925,317.424 502.498,317.091C502.081,316.747 501.816,316.247 501.701,315.591ZM511.42,316.513L511.576,317.434C511.274,317.497 511.008,317.528 510.779,317.528C510.394,317.528 510.097,317.471 509.889,317.356C509.68,317.231 509.529,317.07 509.435,316.872C509.352,316.674 509.31,316.257 509.31,315.622L509.31,312.044L508.545,312.044L508.545,311.231L509.31,311.231L509.31,309.684L510.357,309.059L510.357,311.231L511.42,311.231L511.42,312.044L510.357,312.044L510.357,315.684C510.357,315.986 510.373,316.179 510.404,316.263C510.446,316.346 510.508,316.414 510.592,316.466C510.675,316.518 510.795,316.544 510.951,316.544C511.076,316.544 511.232,316.533 511.42,316.513ZM520.373,316.434L520.373,317.45L514.685,317.45C514.685,317.2 514.727,316.955 514.81,316.716C514.956,316.33 515.185,315.95 515.498,315.575C515.821,315.2 516.284,314.768 516.889,314.278C517.826,313.507 518.456,312.898 518.779,312.45C519.112,312.002 519.279,311.58 519.279,311.184C519.279,310.768 519.128,310.419 518.826,310.138C518.524,309.846 518.133,309.7 517.654,309.7C517.144,309.7 516.737,309.851 516.435,310.153C516.133,310.455 515.977,310.877 515.967,311.419L514.889,311.309C514.961,310.497 515.237,309.882 515.717,309.466C516.206,309.039 516.862,308.825 517.685,308.825C518.508,308.825 519.159,309.054 519.639,309.513C520.118,309.971 520.357,310.539 520.357,311.216C520.357,311.559 520.284,311.898 520.139,312.231C520.003,312.554 519.769,312.903 519.435,313.278C519.112,313.643 518.576,314.143 517.826,314.778C517.191,315.309 516.779,315.674 516.592,315.872C516.415,316.059 516.269,316.247 516.154,316.434L520.373,316.434ZM525.201,317.45L525.201,315.388L521.482,315.388L521.482,314.419L525.404,308.856L526.264,308.856L526.264,314.419L527.42,314.419L527.42,315.388L526.264,315.388L526.264,317.45L525.201,317.45ZM525.201,314.419L525.201,310.559L522.514,314.419L525.201,314.419Z" style="fill:white;fill-rule:nonzero;stroke:white;stroke-width:1px;stroke-linejoin:round;stroke-miterlimit:2;"/>
    </g>
</svg>
