<?xml version="1.0" encoding="UTF-8" standalone="no"?><!DOCTYPE svg PUBLIC "-//W3C//DTD SVG 1.1//EN" "http://www.w3.org/Graphics/SVG/1.1/DTD/svg11.dtd"><svg width="600px" height="371px" viewBox="0 0 600 371" version="1.1" xmlns="http://www.w3.org/2000/svg" xmlns:xlink="http://www.w3.org/1999/xlink" xml:space="preserve" xmlns:serif="http://www.serif.com/" style="fill-rule:evenodd;clip-rule:evenodd;stroke-miterlimit:10;"><rect id="Artboard1" x="0" y="0" width="600" height="371" style="fill:none;"/><g id="Artboard11" serif:id="Artboard1"><rect x="0" y="0" width="600" height="371" style="fill:#101217;fill-rule:nonzero;"/><path d="M45.5,254.5l536,0" style="fill:none;fill-rule:nonzero;stroke:#333;stroke-width:1px;"/><clipPath id="_clip1"><rect x="45.55" y="88.283" width="535.9" height="166.375"/></clipPath><g clip-path="url(#_clip1)"><path d="M83.829,254.658l76.557,-39.93l76.557,-25.511l76.557,0l76.557,-52.131l76.557,-23.293l76.557,-12.201" style="fill:none;fill-rule:nonzero;stroke:#56de93;stroke-width:6px;"/></g><clipPath id="_clip2"><rect x="45.55" y="88.283" width="535.9" height="166.375"/></clipPath><g clip-path="url(#_clip2)"><path d="M83.829,254.658l76.557,-2.218l76.557,-11.092l76.557,-37.712" style="fill:none;fill-rule:nonzero;stroke:#2da87f;stroke-width:6px;"/></g><clipPath id="_clip3"><rect x="45.55" y="88.283" width="535.9" height="166.375"/></clipPath><g clip-path="url(#_clip3)"><path d="M86.829,254.658c0,1.657 -1.343,3 -3,3c-1.657,0 -3,-1.343 -3,-3c0,-1.657 1.343,-3 3,-3c1.657,0 3,1.343 3,3Z" style="fill-opacity:0;fill-rule:nonzero;"/></g><path d="M163.386,214.728c0,1.657 -1.343,3 -3,3c-1.657,0 -3,-1.343 -3,-3c0,-1.657 1.343,-3 3,-3c1.657,0 3,1.343 3,3Z" style="fill-opacity:0;fill-rule:nonzero;"/><path d="M239.943,189.218c0,1.657 -1.343,3 -3,3c-1.657,0 -3,-1.343 -3,-3c0,-1.657 1.343,-3 3,-3c1.657,0 3,1.343 3,3Z" style="fill-opacity:0;fill-rule:nonzero;"/><path d="M316.5,189.218c0,1.657 -1.343,3 -3,3c-1.657,0 -3,-1.343 -3,-3c0,-1.657 1.343,-3 3,-3c1.657,0 3,1.343 3,3Z" style="fill-opacity:0;fill-rule:nonzero;"/><path d="M393.057,137.087c0,1.657 -1.343,3 -3,3c-1.657,0 -3,-1.343 -3,-3c0,-1.657 1.343,-3 3,-3c1.657,0 3,1.343 3,3Z" style="fill-opacity:0;fill-rule:nonzero;"/><path d="M469.614,113.794c0,1.657 -1.343,3 -3,3c-1.657,0 -3,-1.343 -3,-3c0,-1.657 1.343,-3 3,-3c1.657,0 3,1.343 3,3Z" style="fill-opacity:0;fill-rule:nonzero;"/><path d="M546.171,101.593c0,1.657 -1.343,3 -3,3c-1.657,0 -3,-1.343 -3,-3c0,-1.657 1.343,-3 3,-3c1.657,0 3,1.343 3,3Z" style="fill-opacity:0;fill-rule:nonzero;"/><clipPath id="_clip4"><rect x="45.55" y="88.283" width="535.9" height="166.375"/></clipPath><g clip-path="url(#_clip4)"><path d="M86.829,254.658c0,1.657 -1.343,3 -3,3c-1.657,0 -3,-1.343 -3,-3c0,-1.657 1.343,-3 3,-3c1.657,0 3,1.343 3,3Z" style="fill-opacity:0;fill-rule:nonzero;"/></g><clipPath id="_clip5"><rect x="45.55" y="88.283" width="535.9" height="166.375"/></clipPath><g clip-path="url(#_clip5)"><path d="M163.386,252.44c0,1.657 -1.343,3 -3,3c-1.657,0 -3,-1.343 -3,-3c0,-1.657 1.343,-3 3,-3c1.657,0 3,1.343 3,3Z" style="fill-opacity:0;fill-rule:nonzero;"/></g><path d="M239.943,241.348c0,1.657 -1.343,3 -3,3c-1.657,0 -3,-1.343 -3,-3c0,-1.657 1.343,-3 3,-3c1.657,0 3,1.343 3,3Z" style="fill-opacity:0;fill-rule:nonzero;"/><path d="M316.5,203.637c0,1.657 -1.343,3 -3,3c-1.657,0 -3,-1.343 -3,-3c0,-1.657 1.343,-3 3,-3c1.657,0 3,1.343 3,3Z" style="fill-opacity:0;fill-rule:nonzero;"/><path d="M295.047,346.684l1.062,-0.094c0.052,0.438 0.172,0.792 0.359,1.062c0.188,0.271 0.474,0.495 0.859,0.672c0.396,0.167 0.839,0.25 1.328,0.25c0.427,0 0.807,-0.062 1.141,-0.188c0.333,-0.135 0.578,-0.312 0.734,-0.531c0.167,-0.229 0.25,-0.474 0.25,-0.734c0,-0.271 -0.078,-0.505 -0.234,-0.703c-0.156,-0.208 -0.411,-0.38 -0.766,-0.516c-0.24,-0.094 -0.755,-0.234 -1.547,-0.422c-0.781,-0.188 -1.328,-0.365 -1.641,-0.531c-0.417,-0.219 -0.724,-0.484 -0.922,-0.797c-0.198,-0.323 -0.297,-0.682 -0.297,-1.078c0,-0.427 0.12,-0.828 0.359,-1.203c0.25,-0.385 0.609,-0.672 1.078,-0.859c0.479,-0.198 1.005,-0.297 1.578,-0.297c0.635,0 1.198,0.104 1.688,0.312c0.49,0.198 0.865,0.5 1.125,0.906c0.26,0.396 0.401,0.844 0.422,1.344l-1.094,0.078c-0.062,-0.542 -0.266,-0.948 -0.609,-1.219c-0.333,-0.281 -0.828,-0.422 -1.484,-0.422c-0.688,0 -1.188,0.125 -1.5,0.375c-0.312,0.25 -0.469,0.552 -0.469,0.906c0,0.312 0.109,0.568 0.328,0.766c0.219,0.198 0.786,0.401 1.703,0.609c0.927,0.208 1.562,0.391 1.906,0.547c0.5,0.24 0.87,0.536 1.109,0.891c0.24,0.344 0.359,0.75 0.359,1.219c0,0.458 -0.13,0.891 -0.391,1.297c-0.26,0.396 -0.635,0.708 -1.125,0.938c-0.49,0.219 -1.042,0.328 -1.656,0.328c-0.781,0 -1.437,-0.109 -1.969,-0.328c-0.521,-0.229 -0.932,-0.573 -1.234,-1.031c-0.292,-0.458 -0.443,-0.974 -0.453,-1.547Zm10.547,1.828l0.156,0.922c-0.302,0.062 -0.568,0.094 -0.797,0.094c-0.385,0 -0.682,-0.057 -0.891,-0.172c-0.208,-0.125 -0.359,-0.286 -0.453,-0.484c-0.083,-0.198 -0.125,-0.615 -0.125,-1.25l0,-3.578l-0.766,0l0,-0.812l0.766,0l0,-1.547l1.047,-0.625l0,2.172l1.062,0l0,0.812l-1.062,0l0,3.641c0,0.302 0.016,0.495 0.047,0.578c0.042,0.083 0.104,0.151 0.188,0.203c0.083,0.052 0.203,0.078 0.359,0.078c0.125,0 0.281,-0.01 0.469,-0.031Zm4.766,0.172c-0.396,0.333 -0.776,0.568 -1.141,0.703c-0.354,0.135 -0.74,0.203 -1.156,0.203c-0.688,0 -1.214,-0.167 -1.578,-0.5c-0.365,-0.333 -0.547,-0.76 -0.547,-1.281c0,-0.302 0.068,-0.578 0.203,-0.828c0.135,-0.26 0.318,-0.464 0.547,-0.609c0.229,-0.156 0.484,-0.271 0.766,-0.344c0.198,-0.062 0.51,-0.12 0.938,-0.172c0.844,-0.094 1.469,-0.214 1.875,-0.359l0,-0.266c0,-0.438 -0.099,-0.745 -0.297,-0.922c-0.271,-0.229 -0.672,-0.344 -1.203,-0.344c-0.49,0 -0.854,0.089 -1.094,0.266c-0.24,0.167 -0.417,0.469 -0.531,0.906l-1.031,-0.141c0.094,-0.438 0.25,-0.792 0.469,-1.062c0.219,-0.271 0.531,-0.479 0.938,-0.625c0.406,-0.146 0.875,-0.219 1.406,-0.219c0.531,0 0.964,0.062 1.297,0.188c0.333,0.125 0.578,0.281 0.734,0.469c0.156,0.187 0.266,0.427 0.328,0.719c0.031,0.177 0.047,0.5 0.047,0.969l0,1.406c0,0.979 0.021,1.599 0.062,1.859c0.052,0.26 0.146,0.51 0.281,0.75l-1.109,0c-0.104,-0.219 -0.172,-0.474 -0.203,-0.766Zm-0.094,-2.359c-0.385,0.156 -0.958,0.292 -1.719,0.406c-0.438,0.062 -0.745,0.135 -0.922,0.219c-0.177,0.073 -0.318,0.182 -0.422,0.328c-0.094,0.146 -0.141,0.313 -0.141,0.5c0,0.281 0.104,0.516 0.312,0.703c0.219,0.187 0.531,0.281 0.938,0.281c0.406,0 0.766,-0.089 1.078,-0.266c0.323,-0.177 0.557,-0.422 0.703,-0.734c0.115,-0.24 0.172,-0.589 0.172,-1.047l0,-0.391Zm2.828,3.641l1.031,0.156c0.042,0.312 0.161,0.542 0.359,0.688c0.26,0.198 0.615,0.297 1.062,0.297c0.49,0 0.865,-0.099 1.125,-0.297c0.271,-0.198 0.453,-0.469 0.547,-0.812c0.062,-0.219 0.089,-0.672 0.078,-1.359c-0.458,0.542 -1.031,0.812 -1.719,0.812c-0.854,0 -1.516,-0.307 -1.984,-0.922c-0.469,-0.625 -0.703,-1.365 -0.703,-2.219c0,-0.594 0.104,-1.141 0.312,-1.641c0.219,-0.51 0.531,-0.901 0.938,-1.172c0.406,-0.271 0.885,-0.406 1.438,-0.406c0.74,0 1.349,0.297 1.828,0.891l0,-0.75l0.969,0l0,5.375c0,0.969 -0.099,1.656 -0.297,2.062c-0.198,0.406 -0.51,0.724 -0.938,0.953c-0.427,0.24 -0.953,0.359 -1.578,0.359c-0.74,0 -1.339,-0.167 -1.797,-0.5c-0.458,-0.333 -0.682,-0.839 -0.672,-1.516Zm0.875,-3.734c0,0.812 0.161,1.406 0.484,1.781c0.323,0.375 0.729,0.562 1.219,0.562c0.49,0 0.896,-0.188 1.219,-0.562c0.333,-0.375 0.5,-0.958 0.5,-1.75c0,-0.76 -0.172,-1.333 -0.516,-1.719c-0.333,-0.385 -0.74,-0.578 -1.219,-0.578c-0.469,0 -0.87,0.193 -1.203,0.578c-0.323,0.375 -0.484,0.938 -0.484,1.688Zm10.578,1.219l1.094,0.125c-0.167,0.635 -0.484,1.13 -0.953,1.484c-0.469,0.354 -1.062,0.531 -1.781,0.531c-0.906,0 -1.63,-0.281 -2.172,-0.844c-0.531,-0.563 -0.797,-1.349 -0.797,-2.359c0,-1.042 0.271,-1.849 0.812,-2.422c0.542,-0.583 1.24,-0.875 2.094,-0.875c0.833,0 1.51,0.281 2.031,0.844c0.531,0.562 0.797,1.359 0.797,2.391l0,0.281l-4.641,0c0.042,0.687 0.234,1.214 0.578,1.578c0.344,0.354 0.776,0.531 1.297,0.531c0.385,0 0.714,-0.099 0.984,-0.297c0.281,-0.208 0.5,-0.531 0.656,-0.969Zm-3.453,-1.703l3.469,0c-0.042,-0.531 -0.172,-0.927 -0.391,-1.188c-0.344,-0.406 -0.781,-0.609 -1.312,-0.609c-0.49,0 -0.901,0.161 -1.234,0.484c-0.323,0.323 -0.5,0.76 -0.531,1.312Zm5.781,1.844l1.031,-0.156c0.062,0.417 0.224,0.734 0.484,0.953c0.271,0.219 0.651,0.328 1.141,0.328c0.479,0 0.833,-0.094 1.062,-0.281c0.24,-0.198 0.359,-0.432 0.359,-0.703c0,-0.24 -0.104,-0.427 -0.312,-0.562c-0.146,-0.094 -0.505,-0.214 -1.078,-0.359c-0.771,-0.198 -1.307,-0.365 -1.609,-0.5c-0.292,-0.146 -0.516,-0.344 -0.672,-0.594c-0.156,-0.25 -0.234,-0.531 -0.234,-0.844c0,-0.271 0.062,-0.526 0.188,-0.766c0.125,-0.24 0.297,-0.437 0.516,-0.594c0.167,-0.115 0.391,-0.214 0.672,-0.297c0.281,-0.083 0.589,-0.125 0.922,-0.125c0.479,0 0.901,0.073 1.266,0.219c0.375,0.135 0.651,0.323 0.828,0.562c0.177,0.24 0.297,0.557 0.359,0.953l-1.031,0.141c-0.042,-0.312 -0.177,-0.557 -0.406,-0.734c-0.219,-0.188 -0.536,-0.281 -0.953,-0.281c-0.479,0 -0.823,0.083 -1.031,0.25c-0.208,0.156 -0.312,0.344 -0.312,0.562c0,0.135 0.042,0.255 0.125,0.359c0.094,0.115 0.229,0.208 0.406,0.281c0.104,0.042 0.417,0.13 0.938,0.266c0.75,0.208 1.271,0.375 1.562,0.5c0.292,0.125 0.521,0.307 0.688,0.547c0.167,0.24 0.25,0.542 0.25,0.906c0,0.354 -0.104,0.687 -0.312,1c-0.198,0.302 -0.49,0.542 -0.875,0.719c-0.385,0.167 -0.823,0.25 -1.312,0.25c-0.812,0 -1.432,-0.167 -1.859,-0.5c-0.417,-0.344 -0.682,-0.844 -0.797,-1.5Z" style="fill:#fff;fill-rule:nonzero;"/><path d="M33.05,254.424c0,-1.021 0.104,-1.839 0.312,-2.453c0.208,-0.625 0.516,-1.104 0.922,-1.438c0.417,-0.333 0.938,-0.5 1.562,-0.5c0.458,0 0.859,0.094 1.203,0.281c0.354,0.188 0.646,0.458 0.875,0.812c0.229,0.344 0.406,0.766 0.531,1.266c0.125,0.5 0.188,1.177 0.188,2.031c0,1.01 -0.104,1.823 -0.312,2.438c-0.198,0.615 -0.505,1.094 -0.922,1.438c-0.406,0.333 -0.927,0.5 -1.562,0.5c-0.823,0 -1.474,-0.297 -1.953,-0.891c-0.562,-0.708 -0.844,-1.87 -0.844,-3.484Zm1.078,0c0,1.406 0.167,2.344 0.5,2.812c0.333,0.469 0.74,0.703 1.219,0.703c0.49,0 0.896,-0.234 1.219,-0.703c0.333,-0.469 0.5,-1.406 0.5,-2.812c0,-1.417 -0.167,-2.354 -0.5,-2.812c-0.323,-0.469 -0.734,-0.703 -1.234,-0.703c-0.479,0 -0.865,0.203 -1.156,0.609c-0.365,0.521 -0.547,1.49 -0.547,2.906Z" style="fill:#fff;fill-rule:nonzero;"/><path d="M26.05,200.95l1.109,-0.094c0.083,0.542 0.271,0.948 0.562,1.219c0.302,0.271 0.667,0.406 1.094,0.406c0.5,0 0.927,-0.193 1.281,-0.578c0.354,-0.385 0.531,-0.891 0.531,-1.516c0,-0.604 -0.172,-1.078 -0.516,-1.422c-0.333,-0.354 -0.776,-0.531 -1.328,-0.531c-0.333,0 -0.641,0.078 -0.922,0.234c-0.271,0.156 -0.484,0.354 -0.641,0.594l-0.984,-0.125l0.828,-4.406l4.281,0l0,1l-3.438,0l-0.453,2.312c0.51,-0.365 1.047,-0.547 1.609,-0.547c0.75,0 1.38,0.26 1.891,0.781c0.521,0.521 0.781,1.193 0.781,2.016c0,0.771 -0.224,1.443 -0.672,2.016c-0.552,0.688 -1.302,1.031 -2.25,1.031c-0.781,0 -1.422,-0.219 -1.922,-0.656c-0.49,-0.438 -0.771,-1.016 -0.844,-1.734Zm7,-1.984c0,-1.021 0.104,-1.839 0.312,-2.453c0.208,-0.625 0.516,-1.104 0.922,-1.438c0.417,-0.333 0.938,-0.5 1.562,-0.5c0.458,0 0.859,0.094 1.203,0.281c0.354,0.188 0.646,0.458 0.875,0.812c0.229,0.344 0.406,0.766 0.531,1.266c0.125,0.5 0.188,1.177 0.188,2.031c0,1.01 -0.104,1.823 -0.312,2.438c-0.198,0.615 -0.505,1.094 -0.922,1.438c-0.406,0.333 -0.927,0.5 -1.562,0.5c-0.823,0 -1.474,-0.297 -1.953,-0.891c-0.562,-0.708 -0.844,-1.87 -0.844,-3.484Zm1.078,0c0,1.406 0.167,2.344 0.5,2.812c0.333,0.469 0.74,0.703 1.219,0.703c0.49,0 0.896,-0.234 1.219,-0.703c0.333,-0.469 0.5,-1.406 0.5,-2.812c0,-1.417 -0.167,-2.354 -0.5,-2.812c-0.323,-0.469 -0.734,-0.703 -1.234,-0.703c-0.479,0 -0.865,0.203 -1.156,0.609c-0.365,0.521 -0.547,1.49 -0.547,2.906Z" style="fill:#fff;fill-rule:nonzero;"/><path d="M23.019,147.742l-1.047,0l0,-6.719c-0.26,0.24 -0.599,0.484 -1.016,0.734c-0.406,0.24 -0.771,0.417 -1.094,0.531l0,-1.016c0.583,-0.281 1.094,-0.615 1.531,-1c0.448,-0.396 0.766,-0.781 0.953,-1.156l0.672,0l0,8.625Zm3.031,-4.234c0,-1.021 0.104,-1.839 0.312,-2.453c0.208,-0.625 0.516,-1.104 0.922,-1.438c0.417,-0.333 0.938,-0.5 1.562,-0.5c0.458,0 0.859,0.094 1.203,0.281c0.354,0.188 0.646,0.458 0.875,0.812c0.229,0.344 0.406,0.766 0.531,1.266c0.125,0.5 0.188,1.177 0.188,2.031c0,1.01 -0.104,1.823 -0.312,2.438c-0.198,0.615 -0.505,1.094 -0.922,1.438c-0.406,0.333 -0.927,0.5 -1.562,0.5c-0.823,0 -1.474,-0.297 -1.953,-0.891c-0.562,-0.708 -0.844,-1.87 -0.844,-3.484Zm1.078,0c0,1.406 0.167,2.344 0.5,2.812c0.333,0.469 0.74,0.703 1.219,0.703c0.49,0 0.896,-0.234 1.219,-0.703c0.333,-0.469 0.5,-1.406 0.5,-2.812c0,-1.417 -0.167,-2.354 -0.5,-2.812c-0.323,-0.469 -0.734,-0.703 -1.234,-0.703c-0.479,0 -0.865,0.203 -1.156,0.609c-0.365,0.521 -0.547,1.49 -0.547,2.906Zm5.922,0c0,-1.021 0.104,-1.839 0.312,-2.453c0.208,-0.625 0.516,-1.104 0.922,-1.438c0.417,-0.333 0.938,-0.5 1.562,-0.5c0.458,0 0.859,0.094 1.203,0.281c0.354,0.188 0.646,0.458 0.875,0.812c0.229,0.344 0.406,0.766 0.531,1.266c0.125,0.5 0.188,1.177 0.188,2.031c0,1.01 -0.104,1.823 -0.312,2.438c-0.198,0.615 -0.505,1.094 -0.922,1.438c-0.406,0.333 -0.927,0.5 -1.562,0.5c-0.823,0 -1.474,-0.297 -1.953,-0.891c-0.562,-0.708 -0.844,-1.87 -0.844,-3.484Zm1.078,0c0,1.406 0.167,2.344 0.5,2.812c0.333,0.469 0.74,0.703 1.219,0.703c0.49,0 0.896,-0.234 1.219,-0.703c0.333,-0.469 0.5,-1.406 0.5,-2.812c0,-1.417 -0.167,-2.354 -0.5,-2.812c-0.323,-0.469 -0.734,-0.703 -1.234,-0.703c-0.479,0 -0.865,0.203 -1.156,0.609c-0.365,0.521 -0.547,1.49 -0.547,2.906Z" style="fill:#fff;fill-rule:nonzero;"/><path d="M23.019,92.283l-1.047,0l0,-6.719c-0.26,0.24 -0.599,0.484 -1.016,0.734c-0.406,0.24 -0.771,0.417 -1.094,0.531l0,-1.016c0.583,-0.281 1.094,-0.615 1.531,-1c0.448,-0.396 0.766,-0.781 0.953,-1.156l0.672,0l0,8.625Zm3.031,-2.25l1.109,-0.094c0.083,0.542 0.271,0.948 0.562,1.219c0.302,0.271 0.667,0.406 1.094,0.406c0.5,0 0.927,-0.193 1.281,-0.578c0.354,-0.385 0.531,-0.891 0.531,-1.516c0,-0.604 -0.172,-1.078 -0.516,-1.422c-0.333,-0.354 -0.776,-0.531 -1.328,-0.531c-0.333,0 -0.641,0.078 -0.922,0.234c-0.271,0.156 -0.484,0.354 -0.641,0.594l-0.984,-0.125l0.828,-4.406l4.281,0l0,1l-3.438,0l-0.453,2.312c0.51,-0.365 1.047,-0.547 1.609,-0.547c0.75,0 1.38,0.26 1.891,0.781c0.521,0.521 0.781,1.193 0.781,2.016c0,0.771 -0.224,1.443 -0.672,2.016c-0.552,0.688 -1.302,1.031 -2.25,1.031c-0.781,0 -1.422,-0.219 -1.922,-0.656c-0.49,-0.438 -0.771,-1.016 -0.844,-1.734Zm7,-1.984c0,-1.021 0.104,-1.839 0.312,-2.453c0.208,-0.625 0.516,-1.104 0.922,-1.438c0.417,-0.333 0.938,-0.5 1.562,-0.5c0.458,0 0.859,0.094 1.203,0.281c0.354,0.188 0.646,0.458 0.875,0.812c0.229,0.344 0.406,0.766 0.531,1.266c0.125,0.5 0.188,1.177 0.188,2.031c0,1.01 -0.104,1.823 -0.312,2.438c-0.198,0.615 -0.505,1.094 -0.922,1.438c-0.406,0.333 -0.927,0.5 -1.562,0.5c-0.823,0 -1.474,-0.297 -1.953,-0.891c-0.562,-0.708 -0.844,-1.87 -0.844,-3.484Zm1.078,0c0,1.406 0.167,2.344 0.5,2.812c0.333,0.469 0.74,0.703 1.219,0.703c0.49,0 0.896,-0.234 1.219,-0.703c0.333,-0.469 0.5,-1.406 0.5,-2.812c0,-1.417 -0.167,-2.354 -0.5,-2.812c-0.323,-0.469 -0.734,-0.703 -1.234,-0.703c-0.479,0 -0.865,0.203 -1.156,0.609c-0.365,0.521 -0.547,1.49 -0.547,2.906Z" style="fill:#fff;fill-rule:nonzero;"/><path d="M72.36,283.772l0.685,-0.818c0.346,0.273 0.681,0.438 1.005,0.497c0.324,0.059 0.685,0.015 1.083,-0.133c0.398,-0.162 0.77,-0.416 1.116,-0.762c0.302,-0.302 0.527,-0.615 0.674,-0.939c0.14,-0.331 0.188,-0.63 0.144,-0.895c-0.044,-0.28 -0.158,-0.512 -0.343,-0.696c-0.192,-0.192 -0.412,-0.302 -0.663,-0.331c-0.258,-0.037 -0.56,0.022 -0.906,0.177c-0.236,0.103 -0.7,0.368 -1.392,0.796c-0.685,0.42 -1.197,0.681 -1.536,0.784c-0.449,0.14 -0.854,0.169 -1.215,0.088c-0.368,-0.088 -0.692,-0.273 -0.972,-0.552c-0.302,-0.302 -0.501,-0.67 -0.597,-1.105c-0.096,-0.449 -0.044,-0.906 0.155,-1.37c0.199,-0.479 0.501,-0.921 0.906,-1.326c0.449,-0.449 0.921,-0.773 1.414,-0.972c0.486,-0.206 0.965,-0.258 1.436,-0.155c0.464,0.096 0.88,0.313 1.248,0.652l-0.718,0.829c-0.427,-0.339 -0.858,-0.482 -1.293,-0.431c-0.435,0.037 -0.884,0.287 -1.348,0.751c-0.486,0.486 -0.751,0.928 -0.796,1.326c-0.044,0.398 0.059,0.722 0.309,0.972c0.221,0.221 0.479,0.324 0.773,0.309c0.295,-0.015 0.84,-0.273 1.635,-0.773c0.803,-0.508 1.381,-0.829 1.735,-0.961c0.523,-0.184 0.994,-0.236 1.414,-0.155c0.412,0.074 0.784,0.276 1.116,0.608c0.324,0.324 0.538,0.722 0.641,1.193c0.096,0.464 0.052,0.95 -0.133,1.458c-0.192,0.501 -0.505,0.969 -0.939,1.403c-0.552,0.552 -1.094,0.939 -1.624,1.16c-0.53,0.206 -1.064,0.254 -1.602,0.144c-0.53,-0.118 -1.002,-0.376 -1.414,-0.773Zm8.75,-6.165l0.762,0.541c-0.169,0.258 -0.335,0.468 -0.497,0.63c-0.273,0.273 -0.523,0.442 -0.751,0.508c-0.236,0.059 -0.457,0.052 -0.663,-0.022c-0.199,-0.081 -0.523,-0.346 -0.972,-0.796l-2.53,-2.53l-0.541,0.541l-0.575,-0.575l0.541,-0.541l-1.094,-1.094l0.298,-1.182l1.536,1.536l0.751,-0.751l0.575,0.575l-0.751,0.751l2.574,2.574c0.214,0.214 0.361,0.339 0.442,0.376c0.088,0.029 0.18,0.033 0.276,0.011c0.096,-0.022 0.199,-0.088 0.309,-0.199c0.088,-0.088 0.192,-0.206 0.309,-0.354Zm3.491,-3.248c-0.044,0.516 -0.147,0.95 -0.309,1.304c-0.155,0.346 -0.379,0.667 -0.674,0.961c-0.486,0.486 -0.976,0.74 -1.469,0.762c-0.493,0.022 -0.924,-0.151 -1.293,-0.519c-0.214,-0.214 -0.361,-0.457 -0.442,-0.729c-0.088,-0.28 -0.103,-0.552 -0.044,-0.818c0.052,-0.273 0.151,-0.534 0.298,-0.784c0.096,-0.184 0.276,-0.446 0.541,-0.784c0.53,-0.663 0.888,-1.19 1.072,-1.58c-0.103,-0.103 -0.166,-0.166 -0.188,-0.188c-0.309,-0.309 -0.597,-0.457 -0.862,-0.442c-0.354,0.029 -0.718,0.232 -1.094,0.608c-0.346,0.346 -0.541,0.667 -0.586,0.961c-0.052,0.287 0.037,0.626 0.265,1.016l-0.829,0.63c-0.243,-0.376 -0.383,-0.737 -0.42,-1.083c-0.037,-0.346 0.037,-0.714 0.221,-1.105c0.184,-0.39 0.464,-0.773 0.84,-1.149c0.376,-0.376 0.726,-0.637 1.05,-0.784c0.324,-0.147 0.608,-0.21 0.851,-0.188c0.243,0.022 0.49,0.114 0.74,0.276c0.147,0.103 0.387,0.32 0.718,0.652l0.994,0.994c0.692,0.692 1.145,1.116 1.359,1.271c0.221,0.147 0.464,0.258 0.729,0.331l-0.784,0.784c-0.228,-0.081 -0.457,-0.214 -0.685,-0.398Zm-1.735,-1.602c-0.162,0.383 -0.471,0.884 -0.928,1.503c-0.265,0.354 -0.431,0.622 -0.497,0.807c-0.074,0.177 -0.096,0.354 -0.066,0.53c0.037,0.169 0.122,0.32 0.254,0.453c0.199,0.199 0.438,0.291 0.718,0.276c0.287,-0.022 0.575,-0.177 0.862,-0.464c0.287,-0.287 0.479,-0.604 0.575,-0.95c0.103,-0.354 0.096,-0.692 -0.022,-1.016c-0.088,-0.25 -0.295,-0.538 -0.619,-0.862l-0.276,-0.276Zm4.342,0.077l-4.397,-4.397l0.674,-0.674l0.663,0.663c-0.14,-0.479 -0.188,-0.836 -0.144,-1.072c0.044,-0.25 0.155,-0.464 0.331,-0.641c0.25,-0.25 0.582,-0.427 0.994,-0.53l0.442,0.95c-0.295,0.074 -0.53,0.199 -0.707,0.376c-0.169,0.169 -0.269,0.372 -0.298,0.608c-0.029,0.221 0.018,0.446 0.144,0.674c0.177,0.354 0.42,0.685 0.729,0.994l2.309,2.309l-0.74,0.74Zm3.801,-5.127l0.762,0.541c-0.169,0.258 -0.335,0.468 -0.497,0.63c-0.273,0.273 -0.523,0.442 -0.751,0.508c-0.236,0.059 -0.457,0.052 -0.663,-0.022c-0.199,-0.081 -0.523,-0.346 -0.972,-0.796l-2.53,-2.53l-0.541,0.541l-0.575,-0.575l0.541,-0.541l-1.094,-1.094l0.298,-1.182l1.536,1.536l0.751,-0.751l0.575,0.575l-0.751,0.751l2.574,2.574c0.214,0.214 0.361,0.339 0.442,0.376c0.088,0.029 0.18,0.033 0.276,0.011c0.096,-0.022 0.199,-0.088 0.309,-0.199c0.088,-0.088 0.192,-0.206 0.309,-0.354Z" style="fill:#fff;fill-rule:nonzero;"/><path d="M116.534,320.066l-3.745,-8.408l0.862,-0.862l8.563,3.591l-0.906,0.906l-2.563,-1.127l-2.53,2.53l1.171,2.519l-0.851,0.851Zm-0.74,-4.254l2.055,-2.055l-2.309,-1.05c-0.707,-0.309 -1.271,-0.586 -1.69,-0.829c0.309,0.471 0.586,0.969 0.829,1.492l1.116,2.442Zm6.972,-1.978l-4.397,-4.397l0.663,-0.663l0.619,0.619c-0.155,-0.803 0.074,-1.51 0.685,-2.121c0.265,-0.265 0.556,-0.46 0.873,-0.586c0.324,-0.133 0.619,-0.177 0.884,-0.133c0.265,0.044 0.523,0.147 0.773,0.309c0.162,0.118 0.416,0.35 0.762,0.696l2.707,2.707l-0.74,0.74l-2.674,-2.674c-0.309,-0.309 -0.567,-0.508 -0.773,-0.597c-0.206,-0.088 -0.427,-0.103 -0.663,-0.044c-0.243,0.052 -0.464,0.177 -0.663,0.376c-0.317,0.317 -0.49,0.696 -0.519,1.138c-0.029,0.427 0.236,0.921 0.795,1.481l2.409,2.409l-0.74,0.74Zm4.95,-4.95l-4.397,-4.397l0.663,-0.663l0.619,0.619c-0.155,-0.803 0.074,-1.51 0.685,-2.121c0.265,-0.265 0.556,-0.46 0.873,-0.586c0.324,-0.133 0.619,-0.177 0.884,-0.133c0.265,0.044 0.523,0.147 0.773,0.309c0.162,0.118 0.416,0.35 0.762,0.696l2.707,2.707l-0.74,0.74l-2.674,-2.674c-0.309,-0.309 -0.567,-0.508 -0.773,-0.597c-0.206,-0.088 -0.427,-0.103 -0.663,-0.044c-0.243,0.052 -0.464,0.177 -0.663,0.376c-0.317,0.317 -0.49,0.696 -0.519,1.138c-0.029,0.427 0.236,0.921 0.796,1.481l2.409,2.409l-0.74,0.74Zm2.475,-6.872c-0.818,-0.818 -1.197,-1.646 -1.138,-2.486c0.052,-0.7 0.35,-1.322 0.895,-1.867c0.604,-0.604 1.296,-0.899 2.077,-0.884c0.781,0 1.521,0.35 2.221,1.05c0.567,0.567 0.928,1.097 1.083,1.591c0.155,0.493 0.158,0.998 0.011,1.514c-0.147,0.501 -0.412,0.943 -0.796,1.326c-0.611,0.611 -1.304,0.913 -2.077,0.906c-0.773,-0.022 -1.532,-0.405 -2.276,-1.149Zm0.762,-0.762c0.56,0.56 1.101,0.858 1.624,0.895c0.53,0.029 0.98,-0.14 1.348,-0.508c0.376,-0.376 0.545,-0.825 0.508,-1.348c-0.037,-0.523 -0.343,-1.072 -0.917,-1.646c-0.545,-0.545 -1.083,-0.832 -1.613,-0.862c-0.523,-0.037 -0.969,0.129 -1.337,0.497c-0.368,0.368 -0.538,0.818 -0.508,1.348c0.029,0.516 0.328,1.057 0.895,1.624Zm9.546,-5.149l-0.652,-0.652c0.155,0.847 -0.063,1.565 -0.652,2.154c-0.258,0.258 -0.549,0.453 -0.873,0.586c-0.324,0.118 -0.615,0.158 -0.873,0.122c-0.265,-0.044 -0.53,-0.155 -0.796,-0.331c-0.169,-0.11 -0.416,-0.328 -0.74,-0.652l-2.718,-2.718l0.751,-0.751l2.442,2.442c0.383,0.383 0.659,0.63 0.829,0.74c0.236,0.147 0.486,0.206 0.751,0.177c0.265,-0.044 0.512,-0.18 0.74,-0.409c0.221,-0.221 0.372,-0.482 0.453,-0.784c0.081,-0.317 0.063,-0.615 -0.055,-0.895c-0.11,-0.287 -0.354,-0.619 -0.729,-0.994l-2.353,-2.353l0.74,-0.74l4.397,4.397l-0.663,0.663Zm2.066,-2.066l-4.397,-4.397l0.663,-0.663l0.619,0.619c-0.155,-0.803 0.074,-1.51 0.685,-2.121c0.265,-0.265 0.556,-0.46 0.873,-0.586c0.324,-0.133 0.619,-0.177 0.884,-0.133c0.265,0.044 0.523,0.147 0.773,0.309c0.162,0.118 0.416,0.35 0.762,0.696l2.707,2.707l-0.74,0.74l-2.674,-2.674c-0.309,-0.309 -0.567,-0.508 -0.773,-0.597c-0.206,-0.088 -0.427,-0.103 -0.663,-0.044c-0.243,0.052 -0.464,0.177 -0.663,0.376c-0.317,0.317 -0.49,0.696 -0.519,1.138c-0.029,0.427 0.236,0.921 0.795,1.481l2.409,2.409l-0.74,0.74Zm6.209,-9.435l0.829,-0.63c0.42,0.582 0.608,1.182 0.563,1.801c-0.044,0.619 -0.306,1.167 -0.784,1.646c-0.604,0.604 -1.285,0.895 -2.044,0.873c-0.759,-0.037 -1.506,-0.424 -2.243,-1.16c-0.471,-0.471 -0.807,-0.961 -1.005,-1.469c-0.199,-0.523 -0.228,-1.031 -0.088,-1.525c0.147,-0.501 0.412,-0.943 0.796,-1.326c0.471,-0.471 0.98,-0.737 1.525,-0.795c0.545,-0.074 1.086,0.07 1.624,0.431l-0.619,0.84c-0.361,-0.228 -0.703,-0.328 -1.028,-0.298c-0.331,0.022 -0.622,0.158 -0.873,0.409c-0.376,0.376 -0.545,0.818 -0.508,1.326c0.029,0.501 0.335,1.042 0.917,1.624c0.597,0.597 1.142,0.913 1.635,0.95c0.494,0.037 0.921,-0.125 1.282,-0.486c0.295,-0.295 0.449,-0.626 0.464,-0.994c0.022,-0.376 -0.125,-0.781 -0.442,-1.215Zm4.574,-4.176l0.862,-0.685c0.331,0.567 0.457,1.142 0.376,1.724c-0.081,0.582 -0.376,1.127 -0.884,1.635c-0.641,0.641 -1.352,0.954 -2.132,0.939c-0.773,-0.022 -1.517,-0.39 -2.232,-1.105c-0.737,-0.737 -1.116,-1.499 -1.138,-2.287c-0.029,-0.795 0.258,-1.495 0.862,-2.099c0.589,-0.589 1.267,-0.869 2.033,-0.84c0.773,0.022 1.525,0.398 2.254,1.127c0.044,0.044 0.11,0.111 0.199,0.199l-3.281,3.281c0.516,0.457 1.024,0.692 1.525,0.707c0.494,0.007 0.924,-0.173 1.293,-0.541c0.273,-0.273 0.435,-0.575 0.486,-0.906c0.052,-0.346 -0.022,-0.729 -0.221,-1.149Zm-3.646,1.237l2.453,-2.453c-0.405,-0.346 -0.777,-0.534 -1.116,-0.563c-0.53,-0.044 -0.983,0.122 -1.359,0.497c-0.346,0.346 -0.523,0.751 -0.53,1.215c0,0.457 0.184,0.891 0.552,1.304Zm7.005,-1.768l-4.397,-4.397l0.663,-0.663l0.619,0.619c-0.081,-0.361 -0.07,-0.718 0.033,-1.072c0.096,-0.361 0.291,-0.689 0.586,-0.983c0.324,-0.324 0.656,-0.523 0.994,-0.597c0.346,-0.081 0.681,-0.041 1.005,0.122c-0.155,-0.862 0.044,-1.569 0.597,-2.121c0.442,-0.442 0.899,-0.656 1.37,-0.641c0.471,0 0.961,0.254 1.469,0.762l3.016,3.016l-0.74,0.74l-2.773,-2.773c-0.295,-0.295 -0.534,-0.482 -0.718,-0.563c-0.177,-0.088 -0.368,-0.11 -0.575,-0.066c-0.206,0.044 -0.398,0.155 -0.575,0.331c-0.309,0.309 -0.464,0.67 -0.464,1.083c0.007,0.405 0.239,0.836 0.696,1.293l2.552,2.552l-0.751,0.751l-2.862,-2.862c-0.331,-0.331 -0.641,-0.516 -0.928,-0.552c-0.287,-0.052 -0.567,0.059 -0.84,0.331c-0.214,0.214 -0.354,0.464 -0.42,0.751c-0.066,0.287 -0.033,0.578 0.099,0.873c0.133,0.295 0.398,0.641 0.796,1.039l2.287,2.287l-0.74,0.74Zm8.662,-11.49l0.862,-0.685c0.331,0.567 0.457,1.142 0.376,1.724c-0.081,0.582 -0.376,1.127 -0.884,1.635c-0.641,0.641 -1.352,0.954 -2.132,0.939c-0.773,-0.022 -1.517,-0.39 -2.232,-1.105c-0.737,-0.737 -1.116,-1.499 -1.138,-2.287c-0.029,-0.795 0.258,-1.495 0.862,-2.099c0.589,-0.589 1.267,-0.869 2.033,-0.84c0.773,0.022 1.525,0.398 2.254,1.127c0.044,0.044 0.11,0.111 0.199,0.199l-3.281,3.281c0.516,0.457 1.024,0.692 1.525,0.707c0.494,0.007 0.924,-0.173 1.293,-0.541c0.273,-0.273 0.435,-0.575 0.486,-0.906c0.052,-0.346 -0.022,-0.729 -0.221,-1.149Zm-3.646,1.237l2.453,-2.453c-0.405,-0.346 -0.777,-0.534 -1.116,-0.563c-0.53,-0.044 -0.983,0.122 -1.359,0.497c-0.346,0.346 -0.523,0.751 -0.53,1.215c0,0.457 0.184,0.891 0.552,1.304Z" style="fill:#fff;fill-rule:nonzero;"/><path d="M192.693,320.464l-7.69,-4.464l0.829,-0.829l4.917,3.06c0.508,0.317 1.005,0.644 1.492,0.983c-0.494,-0.803 -0.777,-1.271 -0.851,-1.403l-2.95,-5.248l0.972,-0.972l3.944,2.199c0.98,0.552 1.856,1.112 2.63,1.679c-0.309,-0.457 -0.652,-0.998 -1.028,-1.624l-2.95,-4.85l0.807,-0.807l4.419,7.734l-0.784,0.784l-5.9,-3.359c-0.494,-0.273 -0.795,-0.442 -0.906,-0.508c0.214,0.331 0.39,0.626 0.53,0.884l3.348,5.911l-0.829,0.829Zm8.22,-11.049l0.862,-0.685c0.331,0.567 0.457,1.142 0.376,1.724c-0.081,0.582 -0.376,1.127 -0.884,1.635c-0.641,0.641 -1.352,0.954 -2.132,0.939c-0.773,-0.022 -1.517,-0.39 -2.232,-1.105c-0.737,-0.737 -1.116,-1.499 -1.138,-2.287c-0.029,-0.796 0.258,-1.495 0.862,-2.099c0.589,-0.589 1.267,-0.869 2.033,-0.84c0.773,0.022 1.525,0.398 2.254,1.127c0.044,0.044 0.11,0.111 0.199,0.199l-3.281,3.281c0.516,0.457 1.024,0.692 1.525,0.707c0.494,0.007 0.924,-0.173 1.293,-0.541c0.273,-0.273 0.435,-0.575 0.486,-0.906c0.052,-0.346 -0.022,-0.729 -0.221,-1.149Zm-3.646,1.237l2.453,-2.453c-0.405,-0.346 -0.777,-0.534 -1.116,-0.563c-0.53,-0.044 -0.983,0.122 -1.359,0.497c-0.346,0.346 -0.523,0.751 -0.53,1.215c0,0.457 0.184,0.891 0.552,1.304Zm7.69,-2.453l-0.696,0.696l-6.077,-6.077l0.751,-0.751l2.166,2.166c-0.074,-0.707 0.133,-1.304 0.619,-1.79c0.273,-0.273 0.582,-0.471 0.928,-0.597c0.346,-0.14 0.696,-0.188 1.05,-0.144c0.361,0.037 0.726,0.151 1.094,0.343c0.368,0.192 0.711,0.446 1.028,0.762c0.751,0.751 1.145,1.521 1.182,2.309c0.037,0.788 -0.203,1.44 -0.718,1.956c-0.523,0.523 -1.149,0.714 -1.878,0.575l0.552,0.552Zm-2.243,-2.221c0.523,0.523 0.976,0.829 1.359,0.917c0.619,0.147 1.127,0.022 1.525,-0.376c0.324,-0.324 0.464,-0.744 0.42,-1.26c-0.037,-0.523 -0.339,-1.068 -0.906,-1.635c-0.575,-0.575 -1.112,-0.884 -1.613,-0.928c-0.501,-0.044 -0.913,0.096 -1.237,0.42c-0.324,0.324 -0.464,0.751 -0.42,1.282c0.044,0.516 0.335,1.042 0.873,1.58Zm4.894,-3.06l0.619,-0.84c0.339,0.25 0.678,0.361 1.016,0.331c0.346,-0.037 0.692,-0.228 1.039,-0.575c0.339,-0.339 0.523,-0.656 0.552,-0.95c0.029,-0.309 -0.052,-0.56 -0.243,-0.751c-0.169,-0.169 -0.376,-0.228 -0.619,-0.177c-0.169,0.037 -0.508,0.206 -1.016,0.508c-0.685,0.405 -1.182,0.667 -1.492,0.784c-0.309,0.103 -0.608,0.122 -0.895,0.055c-0.287,-0.066 -0.541,-0.21 -0.762,-0.431c-0.192,-0.192 -0.328,-0.416 -0.409,-0.674c-0.081,-0.258 -0.099,-0.519 -0.055,-0.784c0.037,-0.199 0.125,-0.427 0.265,-0.685c0.14,-0.258 0.328,-0.505 0.563,-0.74c0.339,-0.339 0.689,-0.586 1.05,-0.74c0.361,-0.169 0.689,-0.232 0.983,-0.188c0.295,0.044 0.604,0.184 0.928,0.42l-0.63,0.829c-0.25,-0.192 -0.519,-0.269 -0.807,-0.232c-0.287,0.022 -0.578,0.18 -0.873,0.475c-0.339,0.339 -0.523,0.641 -0.552,0.906c-0.037,0.258 0.022,0.464 0.177,0.619c0.096,0.096 0.21,0.151 0.343,0.166c0.147,0.015 0.309,-0.015 0.486,-0.088c0.103,-0.044 0.387,-0.203 0.851,-0.475c0.678,-0.383 1.164,-0.633 1.458,-0.751c0.295,-0.118 0.586,-0.151 0.873,-0.099c0.287,0.052 0.56,0.206 0.818,0.464c0.25,0.25 0.412,0.56 0.486,0.928c0.074,0.354 0.037,0.729 -0.11,1.127c-0.155,0.39 -0.405,0.759 -0.751,1.105c-0.575,0.575 -1.131,0.895 -1.668,0.961c-0.538,0.052 -1.079,-0.114 -1.624,-0.497Zm0.641,-8.441l-0.862,-0.862l0.751,-0.751l0.862,0.862l-0.751,0.751Zm5.215,5.215l-4.397,-4.397l0.751,-0.751l4.397,4.397l-0.751,0.751Zm3.083,-4.408l0.762,0.541c-0.169,0.258 -0.335,0.468 -0.497,0.63c-0.273,0.273 -0.523,0.442 -0.751,0.508c-0.236,0.059 -0.457,0.052 -0.663,-0.022c-0.199,-0.081 -0.523,-0.346 -0.972,-0.796l-2.53,-2.53l-0.541,0.541l-0.575,-0.575l0.541,-0.541l-1.094,-1.094l0.298,-1.182l1.536,1.536l0.751,-0.751l0.575,0.575l-0.751,0.751l2.574,2.574c0.214,0.214 0.361,0.339 0.442,0.376c0.088,0.029 0.18,0.033 0.276,0.011c0.096,-0.022 0.199,-0.088 0.309,-0.199c0.088,-0.088 0.192,-0.206 0.309,-0.354Zm2.751,-4.254l0.862,-0.685c0.331,0.567 0.457,1.142 0.376,1.724c-0.081,0.582 -0.376,1.127 -0.884,1.635c-0.641,0.641 -1.352,0.954 -2.132,0.939c-0.773,-0.022 -1.517,-0.39 -2.232,-1.105c-0.737,-0.737 -1.116,-1.499 -1.138,-2.287c-0.029,-0.795 0.258,-1.495 0.862,-2.099c0.589,-0.589 1.267,-0.869 2.033,-0.84c0.773,0.022 1.525,0.398 2.254,1.127c0.044,0.044 0.11,0.11 0.199,0.199l-3.281,3.281c0.516,0.457 1.024,0.692 1.525,0.707c0.494,0.007 0.924,-0.173 1.293,-0.541c0.273,-0.273 0.435,-0.575 0.486,-0.906c0.052,-0.346 -0.022,-0.729 -0.221,-1.149Zm-3.646,1.237l2.453,-2.453c-0.405,-0.346 -0.777,-0.534 -1.116,-0.563c-0.53,-0.044 -0.983,0.122 -1.359,0.497c-0.346,0.346 -0.523,0.751 -0.53,1.215c0,0.457 0.184,0.891 0.552,1.304Zm9.214,-3.977l-6.077,-6.077l2.298,-2.298c0.398,-0.398 0.722,-0.685 0.972,-0.862c0.354,-0.25 0.7,-0.405 1.039,-0.464c0.346,-0.066 0.703,-0.033 1.072,0.099c0.376,0.125 0.714,0.339 1.016,0.641c0.516,0.516 0.788,1.12 0.818,1.812c0.029,0.678 -0.387,1.447 -1.248,2.309l-1.558,1.558l2.475,2.475l-0.807,0.807Zm-2.375,-3.989l1.569,-1.569c0.523,-0.523 0.796,-0.987 0.818,-1.392c0.022,-0.42 -0.144,-0.807 -0.497,-1.16c-0.25,-0.25 -0.53,-0.398 -0.84,-0.442c-0.309,-0.059 -0.597,-0.015 -0.862,0.133c-0.177,0.103 -0.446,0.335 -0.807,0.696l-1.558,1.558l2.177,2.177Zm10.275,-4.994c-0.044,0.516 -0.147,0.95 -0.309,1.304c-0.155,0.346 -0.379,0.667 -0.674,0.961c-0.486,0.486 -0.976,0.74 -1.469,0.762c-0.494,0.022 -0.924,-0.151 -1.293,-0.519c-0.214,-0.214 -0.361,-0.457 -0.442,-0.729c-0.088,-0.28 -0.103,-0.552 -0.044,-0.818c0.052,-0.273 0.151,-0.534 0.298,-0.784c0.096,-0.184 0.276,-0.446 0.541,-0.784c0.53,-0.663 0.888,-1.19 1.072,-1.58c-0.103,-0.103 -0.166,-0.166 -0.188,-0.188c-0.309,-0.309 -0.597,-0.457 -0.862,-0.442c-0.354,0.029 -0.718,0.232 -1.094,0.608c-0.346,0.346 -0.541,0.667 -0.586,0.961c-0.052,0.287 0.037,0.626 0.265,1.016l-0.829,0.63c-0.243,-0.376 -0.383,-0.737 -0.42,-1.083c-0.037,-0.346 0.037,-0.714 0.221,-1.105c0.184,-0.39 0.464,-0.773 0.84,-1.149c0.376,-0.376 0.726,-0.637 1.05,-0.784c0.324,-0.147 0.608,-0.21 0.851,-0.188c0.243,0.022 0.49,0.114 0.74,0.276c0.147,0.103 0.387,0.32 0.718,0.652l0.994,0.994c0.692,0.692 1.145,1.116 1.359,1.271c0.221,0.147 0.464,0.258 0.729,0.331l-0.784,0.784c-0.228,-0.081 -0.457,-0.214 -0.685,-0.398Zm-1.735,-1.602c-0.162,0.383 -0.471,0.884 -0.928,1.503c-0.265,0.354 -0.431,0.622 -0.497,0.807c-0.074,0.177 -0.096,0.354 -0.066,0.53c0.037,0.169 0.122,0.32 0.254,0.453c0.199,0.199 0.438,0.291 0.718,0.276c0.287,-0.022 0.575,-0.177 0.862,-0.464c0.287,-0.287 0.479,-0.604 0.575,-0.95c0.103,-0.354 0.096,-0.692 -0.022,-1.016c-0.088,-0.25 -0.295,-0.538 -0.619,-0.862l-0.276,-0.276Zm4.574,0.575l0.84,-0.619c0.25,0.191 0.497,0.269 0.74,0.232c0.324,-0.044 0.645,-0.225 0.961,-0.541c0.346,-0.346 0.541,-0.681 0.586,-1.005c0.052,-0.331 -0.011,-0.652 -0.188,-0.961c-0.11,-0.199 -0.412,-0.538 -0.906,-1.016c0.059,0.707 -0.155,1.304 -0.641,1.79c-0.604,0.604 -1.289,0.854 -2.055,0.751c-0.773,-0.11 -1.462,-0.468 -2.066,-1.072c-0.42,-0.42 -0.733,-0.88 -0.939,-1.381c-0.206,-0.516 -0.261,-1.013 -0.166,-1.492c0.096,-0.479 0.339,-0.913 0.729,-1.304c0.523,-0.523 1.164,-0.744 1.922,-0.663l-0.53,-0.53l0.685,-0.685l3.801,3.801c0.685,0.685 1.101,1.241 1.248,1.668c0.147,0.427 0.151,0.873 0.011,1.337c-0.133,0.471 -0.42,0.928 -0.862,1.37c-0.523,0.523 -1.064,0.829 -1.624,0.917c-0.56,0.088 -1.075,-0.11 -1.547,-0.597Zm-2.022,-3.259c0.575,0.575 1.109,0.88 1.602,0.917c0.494,0.037 0.913,-0.118 1.26,-0.464c0.346,-0.346 0.501,-0.766 0.464,-1.26c-0.029,-0.501 -0.324,-1.031 -0.884,-1.591c-0.538,-0.538 -1.064,-0.821 -1.58,-0.851c-0.508,-0.037 -0.932,0.114 -1.271,0.453c-0.331,0.331 -0.479,0.751 -0.442,1.26c0.037,0.493 0.32,1.005 0.851,1.536Zm8.342,-6.618l0.862,-0.685c0.331,0.567 0.457,1.142 0.376,1.724c-0.081,0.582 -0.376,1.127 -0.884,1.635c-0.641,0.641 -1.352,0.954 -2.132,0.939c-0.773,-0.022 -1.517,-0.39 -2.232,-1.105c-0.737,-0.737 -1.116,-1.499 -1.138,-2.287c-0.029,-0.795 0.258,-1.495 0.862,-2.099c0.589,-0.589 1.267,-0.869 2.033,-0.84c0.773,0.022 1.525,0.398 2.254,1.127c0.044,0.044 0.11,0.11 0.199,0.199l-3.281,3.281c0.516,0.457 1.024,0.692 1.525,0.707c0.494,0.007 0.924,-0.173 1.293,-0.541c0.273,-0.273 0.435,-0.575 0.486,-0.906c0.052,-0.346 -0.022,-0.729 -0.221,-1.149Zm-3.646,1.237l2.453,-2.453c-0.405,-0.346 -0.777,-0.534 -1.116,-0.563c-0.53,-0.044 -0.983,0.122 -1.359,0.497c-0.346,0.346 -0.523,0.751 -0.53,1.215c0,0.457 0.184,0.891 0.552,1.304Z" style="fill:#fff;fill-rule:nonzero;"/><path d="M272.477,317.238l-6.077,-6.077l4.099,-4.099l0.718,0.718l-3.292,3.292l1.878,1.878l2.851,-2.851l0.718,0.718l-2.851,2.851l2.762,2.762l-0.807,0.807Zm-0.398,-10.032l-0.862,-0.862l0.751,-0.751l0.862,0.862l-0.751,0.751Zm5.215,5.215l-4.397,-4.397l0.751,-0.751l4.397,4.397l-0.751,0.751Zm2.11,-2.11l-4.397,-4.397l0.674,-0.674l0.663,0.663c-0.14,-0.479 -0.188,-0.836 -0.144,-1.072c0.044,-0.25 0.155,-0.464 0.331,-0.641c0.25,-0.25 0.582,-0.427 0.994,-0.53l0.442,0.95c-0.295,0.074 -0.53,0.199 -0.707,0.376c-0.169,0.169 -0.269,0.372 -0.298,0.608c-0.029,0.221 0.018,0.446 0.144,0.674c0.177,0.354 0.42,0.685 0.729,0.994l2.309,2.309l-0.74,0.74Zm1.226,-3.856l0.619,-0.84c0.339,0.25 0.678,0.361 1.016,0.331c0.346,-0.037 0.692,-0.228 1.039,-0.575c0.339,-0.339 0.523,-0.656 0.552,-0.95c0.029,-0.309 -0.052,-0.56 -0.243,-0.751c-0.169,-0.169 -0.376,-0.228 -0.619,-0.177c-0.169,0.037 -0.508,0.206 -1.016,0.508c-0.685,0.405 -1.182,0.667 -1.492,0.784c-0.309,0.103 -0.608,0.122 -0.895,0.055c-0.287,-0.066 -0.541,-0.21 -0.762,-0.431c-0.192,-0.192 -0.328,-0.416 -0.409,-0.674c-0.081,-0.258 -0.099,-0.519 -0.055,-0.784c0.037,-0.199 0.125,-0.427 0.265,-0.685c0.14,-0.258 0.328,-0.505 0.563,-0.74c0.339,-0.339 0.689,-0.586 1.05,-0.74c0.361,-0.169 0.689,-0.232 0.983,-0.188c0.295,0.044 0.604,0.184 0.928,0.42l-0.63,0.829c-0.25,-0.192 -0.519,-0.269 -0.807,-0.232c-0.287,0.022 -0.578,0.18 -0.873,0.475c-0.339,0.339 -0.523,0.641 -0.552,0.906c-0.037,0.258 0.022,0.464 0.177,0.619c0.096,0.096 0.21,0.151 0.342,0.166c0.147,0.015 0.309,-0.015 0.486,-0.088c0.103,-0.044 0.387,-0.203 0.851,-0.475c0.678,-0.383 1.164,-0.633 1.458,-0.751c0.295,-0.118 0.586,-0.151 0.873,-0.099c0.287,0.052 0.56,0.206 0.818,0.464c0.25,0.25 0.412,0.56 0.486,0.928c0.074,0.354 0.037,0.729 -0.111,1.127c-0.155,0.39 -0.405,0.759 -0.751,1.105c-0.575,0.575 -1.131,0.895 -1.668,0.961c-0.538,0.052 -1.079,-0.114 -1.624,-0.497Zm6.817,-5.513l0.762,0.541c-0.169,0.258 -0.335,0.468 -0.497,0.63c-0.273,0.273 -0.523,0.442 -0.751,0.508c-0.236,0.059 -0.457,0.052 -0.663,-0.022c-0.199,-0.081 -0.523,-0.346 -0.972,-0.796l-2.53,-2.53l-0.541,0.541l-0.575,-0.575l0.541,-0.541l-1.094,-1.094l0.298,-1.182l1.536,1.536l0.751,-0.751l0.575,0.575l-0.751,0.751l2.574,2.574c0.214,0.214 0.361,0.339 0.442,0.376c0.088,0.029 0.18,0.033 0.276,0.011c0.096,-0.022 0.199,-0.088 0.309,-0.199c0.088,-0.088 0.192,-0.206 0.309,-0.354Zm5.579,-8.518l1.005,-0.586c0.486,0.825 0.685,1.628 0.597,2.409c-0.088,0.781 -0.449,1.488 -1.083,2.121c-0.656,0.656 -1.322,1.057 -2,1.204c-0.678,0.147 -1.374,0.077 -2.088,-0.21c-0.722,-0.295 -1.374,-0.733 -1.956,-1.315c-0.633,-0.633 -1.064,-1.307 -1.293,-2.022c-0.228,-0.714 -0.243,-1.414 -0.044,-2.099c0.206,-0.692 0.578,-1.307 1.116,-1.845c0.604,-0.604 1.267,-0.958 1.989,-1.061c0.729,-0.11 1.455,0.033 2.177,0.431l-0.608,0.983c-0.582,-0.302 -1.109,-0.416 -1.58,-0.343c-0.471,0.059 -0.91,0.291 -1.315,0.696c-0.464,0.464 -0.74,0.969 -0.829,1.514c-0.088,0.53 -0.011,1.05 0.232,1.558c0.25,0.501 0.578,0.954 0.983,1.359c0.516,0.516 1.039,0.891 1.569,1.127c0.538,0.228 1.061,0.28 1.569,0.155c0.508,-0.125 0.95,-0.376 1.326,-0.751c0.449,-0.449 0.7,-0.958 0.751,-1.525c0.059,-0.575 -0.114,-1.175 -0.519,-1.801Zm4.066,0.199l-6.077,-6.077l0.74,-0.74l2.177,2.177c-0.052,-0.744 0.188,-1.381 0.718,-1.911c0.331,-0.331 0.681,-0.549 1.05,-0.652c0.368,-0.118 0.718,-0.114 1.05,0.011c0.324,0.118 0.703,0.394 1.138,0.829l2.784,2.784l-0.74,0.74l-2.784,-2.784c-0.376,-0.376 -0.729,-0.567 -1.061,-0.575c-0.331,-0.007 -0.645,0.136 -0.939,0.431c-0.221,0.221 -0.372,0.49 -0.453,0.807c-0.081,0.302 -0.066,0.597 0.044,0.884c0.11,0.273 0.339,0.582 0.685,0.928l2.409,2.409l-0.74,0.74Zm7.281,-8.364c-0.044,0.516 -0.147,0.95 -0.309,1.304c-0.155,0.346 -0.379,0.667 -0.674,0.961c-0.486,0.486 -0.976,0.74 -1.469,0.762c-0.494,0.022 -0.924,-0.151 -1.293,-0.519c-0.214,-0.214 -0.361,-0.457 -0.442,-0.729c-0.088,-0.28 -0.103,-0.552 -0.044,-0.818c0.052,-0.273 0.151,-0.534 0.298,-0.784c0.096,-0.184 0.276,-0.446 0.541,-0.784c0.53,-0.663 0.888,-1.19 1.072,-1.58c-0.103,-0.103 -0.166,-0.166 -0.188,-0.188c-0.309,-0.309 -0.597,-0.457 -0.862,-0.442c-0.354,0.029 -0.718,0.232 -1.094,0.608c-0.346,0.346 -0.541,0.667 -0.586,0.961c-0.052,0.287 0.037,0.626 0.265,1.016l-0.829,0.63c-0.243,-0.376 -0.383,-0.737 -0.42,-1.083c-0.037,-0.346 0.037,-0.714 0.221,-1.105c0.184,-0.39 0.464,-0.773 0.84,-1.149c0.376,-0.376 0.726,-0.637 1.05,-0.784c0.324,-0.147 0.608,-0.21 0.851,-0.188c0.243,0.022 0.49,0.114 0.74,0.276c0.147,0.103 0.387,0.32 0.718,0.652l0.994,0.994c0.692,0.692 1.145,1.116 1.359,1.271c0.221,0.147 0.464,0.258 0.729,0.331l-0.784,0.784c-0.228,-0.081 -0.457,-0.214 -0.685,-0.398Zm-1.735,-1.602c-0.162,0.383 -0.471,0.884 -0.928,1.503c-0.265,0.354 -0.431,0.622 -0.497,0.807c-0.074,0.177 -0.096,0.354 -0.066,0.53c0.037,0.169 0.122,0.32 0.254,0.453c0.199,0.199 0.438,0.291 0.718,0.276c0.287,-0.022 0.575,-0.177 0.862,-0.464c0.287,-0.287 0.479,-0.604 0.575,-0.95c0.103,-0.354 0.096,-0.692 -0.022,-1.016c-0.088,-0.25 -0.295,-0.538 -0.619,-0.862l-0.276,-0.276Zm6.044,1.757l-6.088,-6.088l0.674,-0.674l0.563,0.563c-0.059,-0.383 -0.044,-0.729 0.044,-1.039c0.096,-0.317 0.287,-0.619 0.575,-0.906c0.376,-0.376 0.803,-0.611 1.282,-0.707c0.479,-0.096 0.965,-0.037 1.458,0.177c0.501,0.206 0.961,0.519 1.381,0.939c0.449,0.449 0.773,0.935 0.972,1.458c0.206,0.516 0.25,1.024 0.133,1.525c-0.118,0.501 -0.346,0.921 -0.685,1.26c-0.25,0.25 -0.527,0.424 -0.829,0.519c-0.309,0.088 -0.604,0.118 -0.884,0.088l2.143,2.143l-0.74,0.74Zm-3.193,-4.541c0.567,0.567 1.101,0.873 1.602,0.917c0.493,0.037 0.902,-0.107 1.226,-0.431c0.331,-0.331 0.475,-0.755 0.431,-1.271c-0.044,-0.516 -0.361,-1.068 -0.95,-1.657c-0.56,-0.56 -1.09,-0.862 -1.591,-0.906c-0.508,-0.052 -0.924,0.085 -1.249,0.409c-0.317,0.317 -0.449,0.744 -0.398,1.282c0.052,0.538 0.361,1.09 0.928,1.657Zm7.414,-4.386l0.762,0.541c-0.169,0.258 -0.335,0.468 -0.497,0.63c-0.273,0.273 -0.523,0.442 -0.751,0.508c-0.236,0.059 -0.457,0.052 -0.663,-0.022c-0.199,-0.081 -0.523,-0.346 -0.972,-0.796l-2.53,-2.53l-0.541,0.541l-0.575,-0.575l0.541,-0.541l-1.094,-1.094l0.298,-1.182l1.536,1.536l0.751,-0.751l0.575,0.575l-0.751,0.751l2.574,2.574c0.214,0.214 0.361,0.339 0.442,0.376c0.088,0.029 0.18,0.033 0.276,0.011c0.096,-0.022 0.199,-0.088 0.309,-0.199c0.088,-0.088 0.192,-0.206 0.309,-0.354Zm2.751,-4.254l0.862,-0.685c0.331,0.567 0.457,1.142 0.376,1.724c-0.081,0.582 -0.376,1.127 -0.884,1.635c-0.641,0.641 -1.352,0.954 -2.132,0.939c-0.773,-0.022 -1.517,-0.39 -2.232,-1.105c-0.737,-0.737 -1.116,-1.499 -1.138,-2.287c-0.029,-0.796 0.258,-1.495 0.862,-2.099c0.589,-0.589 1.267,-0.869 2.033,-0.84c0.773,0.022 1.525,0.398 2.254,1.127c0.044,0.044 0.11,0.11 0.199,0.199l-3.281,3.281c0.516,0.457 1.024,0.692 1.525,0.707c0.494,0.007 0.924,-0.173 1.293,-0.541c0.273,-0.273 0.435,-0.575 0.486,-0.906c0.052,-0.346 -0.022,-0.729 -0.221,-1.149Zm-3.646,1.237l2.453,-2.453c-0.405,-0.346 -0.777,-0.534 -1.116,-0.563c-0.53,-0.044 -0.983,0.122 -1.359,0.497c-0.346,0.346 -0.523,0.751 -0.53,1.215c0,0.457 0.184,0.891 0.552,1.304Zm6.994,-1.757l-4.397,-4.397l0.674,-0.674l0.663,0.663c-0.14,-0.479 -0.188,-0.836 -0.144,-1.072c0.044,-0.25 0.155,-0.464 0.331,-0.641c0.25,-0.25 0.582,-0.427 0.994,-0.53l0.442,0.95c-0.295,0.074 -0.53,0.199 -0.707,0.376c-0.169,0.169 -0.269,0.372 -0.298,0.608c-0.029,0.221 0.018,0.446 0.144,0.674c0.177,0.354 0.42,0.685 0.729,0.994l2.309,2.309l-0.74,0.74Z" style="fill:#fff;fill-rule:nonzero;"/><path d="M348.957,317.315l-6.077,-6.077l0.807,-0.807l5.359,5.359l2.994,-2.994l0.718,0.718l-3.801,3.801Zm7.226,-8.309c-0.044,0.516 -0.147,0.95 -0.309,1.304c-0.155,0.346 -0.379,0.667 -0.674,0.961c-0.486,0.486 -0.976,0.74 -1.469,0.762c-0.494,0.022 -0.924,-0.151 -1.293,-0.519c-0.214,-0.214 -0.361,-0.457 -0.442,-0.729c-0.088,-0.28 -0.103,-0.552 -0.044,-0.818c0.052,-0.273 0.151,-0.534 0.298,-0.784c0.096,-0.184 0.276,-0.446 0.541,-0.784c0.53,-0.663 0.888,-1.19 1.072,-1.58c-0.103,-0.103 -0.166,-0.166 -0.188,-0.188c-0.309,-0.309 -0.597,-0.457 -0.862,-0.442c-0.354,0.029 -0.718,0.232 -1.094,0.608c-0.346,0.346 -0.541,0.667 -0.586,0.961c-0.052,0.287 0.037,0.626 0.265,1.016l-0.829,0.63c-0.243,-0.376 -0.383,-0.737 -0.42,-1.083c-0.037,-0.346 0.037,-0.714 0.221,-1.105c0.184,-0.39 0.464,-0.773 0.84,-1.149c0.376,-0.376 0.726,-0.637 1.05,-0.784c0.324,-0.147 0.608,-0.21 0.851,-0.188c0.243,0.022 0.49,0.114 0.74,0.276c0.147,0.103 0.387,0.32 0.718,0.652l0.994,0.994c0.692,0.692 1.145,1.116 1.359,1.271c0.221,0.147 0.464,0.258 0.729,0.331l-0.784,0.784c-0.228,-0.081 -0.457,-0.214 -0.685,-0.398Zm-1.735,-1.602c-0.162,0.383 -0.471,0.884 -0.928,1.503c-0.265,0.354 -0.431,0.622 -0.497,0.807c-0.074,0.177 -0.096,0.354 -0.066,0.53c0.037,0.169 0.122,0.32 0.254,0.453c0.199,0.199 0.438,0.291 0.718,0.276c0.287,-0.022 0.575,-0.177 0.862,-0.464c0.287,-0.287 0.479,-0.604 0.575,-0.95c0.103,-0.354 0.096,-0.692 -0.022,-1.016c-0.088,-0.25 -0.295,-0.538 -0.619,-0.862l-0.276,-0.276Zm2.74,-0.95l0.619,-0.84c0.339,0.25 0.678,0.361 1.016,0.331c0.346,-0.037 0.692,-0.228 1.039,-0.575c0.339,-0.339 0.523,-0.656 0.552,-0.95c0.029,-0.309 -0.052,-0.56 -0.243,-0.751c-0.169,-0.169 -0.376,-0.228 -0.619,-0.177c-0.169,0.037 -0.508,0.206 -1.016,0.508c-0.685,0.405 -1.182,0.667 -1.492,0.784c-0.309,0.103 -0.608,0.122 -0.895,0.055c-0.287,-0.066 -0.541,-0.21 -0.762,-0.431c-0.191,-0.192 -0.328,-0.416 -0.409,-0.674c-0.081,-0.258 -0.099,-0.519 -0.055,-0.784c0.037,-0.199 0.125,-0.427 0.265,-0.685c0.14,-0.258 0.328,-0.505 0.563,-0.74c0.339,-0.339 0.689,-0.586 1.05,-0.74c0.361,-0.169 0.689,-0.232 0.983,-0.188c0.295,0.044 0.604,0.184 0.928,0.42l-0.63,0.829c-0.25,-0.192 -0.519,-0.269 -0.807,-0.232c-0.287,0.022 -0.578,0.18 -0.873,0.475c-0.339,0.339 -0.523,0.641 -0.552,0.906c-0.037,0.258 0.022,0.464 0.177,0.619c0.096,0.096 0.21,0.151 0.342,0.166c0.147,0.015 0.309,-0.015 0.486,-0.088c0.103,-0.044 0.387,-0.203 0.851,-0.475c0.678,-0.383 1.164,-0.633 1.458,-0.751c0.295,-0.118 0.586,-0.151 0.873,-0.099c0.287,0.052 0.56,0.206 0.818,0.464c0.25,0.25 0.412,0.56 0.486,0.928c0.074,0.354 0.037,0.729 -0.111,1.127c-0.155,0.39 -0.405,0.759 -0.751,1.105c-0.575,0.575 -1.131,0.895 -1.668,0.961c-0.538,0.052 -1.079,-0.114 -1.624,-0.497Zm6.817,-5.513l0.762,0.541c-0.169,0.258 -0.335,0.468 -0.497,0.63c-0.273,0.273 -0.523,0.442 -0.751,0.508c-0.236,0.059 -0.457,0.052 -0.663,-0.022c-0.199,-0.081 -0.523,-0.346 -0.972,-0.796l-2.53,-2.53l-0.541,0.541l-0.575,-0.575l0.541,-0.541l-1.094,-1.094l0.298,-1.182l1.536,1.536l0.751,-0.751l0.575,0.575l-0.751,0.751l2.574,2.574c0.214,0.214 0.361,0.339 0.442,0.376c0.088,0.029 0.18,0.033 0.276,0.011c0.096,-0.022 0.199,-0.088 0.309,-0.199c0.088,-0.088 0.192,-0.206 0.309,-0.354Zm5.58,-8.518l1.005,-0.586c0.486,0.825 0.685,1.628 0.597,2.409c-0.088,0.781 -0.449,1.488 -1.083,2.121c-0.656,0.656 -1.322,1.057 -2,1.204c-0.678,0.147 -1.374,0.077 -2.088,-0.21c-0.722,-0.295 -1.374,-0.733 -1.956,-1.315c-0.633,-0.633 -1.064,-1.307 -1.293,-2.022c-0.228,-0.714 -0.243,-1.414 -0.044,-2.099c0.206,-0.692 0.578,-1.307 1.116,-1.845c0.604,-0.604 1.267,-0.958 1.989,-1.061c0.729,-0.11 1.455,0.033 2.177,0.431l-0.608,0.983c-0.582,-0.302 -1.109,-0.416 -1.58,-0.343c-0.471,0.059 -0.91,0.291 -1.315,0.696c-0.464,0.464 -0.74,0.969 -0.829,1.514c-0.088,0.53 -0.011,1.05 0.232,1.558c0.25,0.501 0.578,0.954 0.983,1.359c0.516,0.516 1.039,0.891 1.569,1.127c0.538,0.228 1.061,0.28 1.569,0.155c0.508,-0.125 0.95,-0.376 1.326,-0.751c0.449,-0.449 0.7,-0.958 0.751,-1.525c0.059,-0.575 -0.114,-1.175 -0.519,-1.801Zm4.066,0.199l-6.077,-6.077l0.74,-0.74l2.177,2.177c-0.052,-0.744 0.188,-1.381 0.718,-1.911c0.331,-0.331 0.681,-0.549 1.05,-0.652c0.368,-0.118 0.718,-0.114 1.05,0.011c0.324,0.118 0.703,0.394 1.138,0.829l2.784,2.784l-0.74,0.74l-2.784,-2.784c-0.376,-0.376 -0.729,-0.567 -1.061,-0.575c-0.331,-0.007 -0.644,0.136 -0.939,0.431c-0.221,0.221 -0.372,0.49 -0.453,0.807c-0.081,0.302 -0.066,0.597 0.044,0.884c0.11,0.273 0.339,0.582 0.685,0.928l2.409,2.409l-0.74,0.74Zm7.281,-8.364c-0.044,0.516 -0.147,0.95 -0.309,1.304c-0.155,0.346 -0.379,0.667 -0.674,0.961c-0.486,0.486 -0.976,0.74 -1.469,0.762c-0.494,0.022 -0.924,-0.151 -1.293,-0.519c-0.214,-0.214 -0.361,-0.457 -0.442,-0.729c-0.088,-0.28 -0.103,-0.552 -0.044,-0.818c0.052,-0.273 0.151,-0.534 0.298,-0.784c0.096,-0.184 0.276,-0.446 0.541,-0.784c0.53,-0.663 0.888,-1.19 1.072,-1.58c-0.103,-0.103 -0.166,-0.166 -0.188,-0.188c-0.309,-0.309 -0.597,-0.457 -0.862,-0.442c-0.354,0.029 -0.718,0.232 -1.094,0.608c-0.346,0.346 -0.541,0.667 -0.586,0.961c-0.052,0.287 0.037,0.626 0.265,1.016l-0.829,0.63c-0.243,-0.376 -0.383,-0.737 -0.42,-1.083c-0.037,-0.346 0.037,-0.714 0.221,-1.105c0.184,-0.39 0.464,-0.773 0.84,-1.149c0.376,-0.376 0.726,-0.637 1.05,-0.784c0.324,-0.147 0.608,-0.21 0.851,-0.188c0.243,0.022 0.49,0.114 0.74,0.276c0.147,0.103 0.387,0.32 0.718,0.652l0.994,0.994c0.692,0.692 1.145,1.116 1.359,1.271c0.221,0.147 0.464,0.258 0.729,0.331l-0.784,0.784c-0.228,-0.081 -0.457,-0.214 -0.685,-0.398Zm-1.735,-1.602c-0.162,0.383 -0.471,0.884 -0.928,1.503c-0.265,0.354 -0.431,0.622 -0.497,0.807c-0.074,0.177 -0.096,0.354 -0.066,0.53c0.037,0.169 0.122,0.32 0.254,0.453c0.199,0.199 0.438,0.291 0.718,0.276c0.287,-0.022 0.575,-0.177 0.862,-0.464c0.287,-0.287 0.479,-0.604 0.575,-0.95c0.103,-0.354 0.096,-0.692 -0.022,-1.016c-0.088,-0.25 -0.295,-0.538 -0.619,-0.862l-0.276,-0.276Zm6.044,1.757l-6.088,-6.088l0.674,-0.674l0.563,0.563c-0.059,-0.383 -0.044,-0.729 0.044,-1.039c0.096,-0.317 0.287,-0.619 0.575,-0.906c0.376,-0.376 0.803,-0.611 1.282,-0.707c0.479,-0.096 0.965,-0.037 1.458,0.177c0.501,0.206 0.961,0.519 1.381,0.939c0.449,0.449 0.773,0.935 0.972,1.458c0.206,0.516 0.25,1.024 0.133,1.525c-0.118,0.501 -0.346,0.921 -0.685,1.26c-0.25,0.25 -0.527,0.424 -0.829,0.519c-0.309,0.088 -0.604,0.118 -0.884,0.088l2.143,2.143l-0.74,0.74Zm-3.193,-4.541c0.567,0.567 1.101,0.873 1.602,0.917c0.493,0.037 0.902,-0.107 1.226,-0.431c0.331,-0.331 0.475,-0.755 0.431,-1.271c-0.044,-0.516 -0.361,-1.068 -0.95,-1.657c-0.56,-0.56 -1.09,-0.862 -1.591,-0.906c-0.508,-0.052 -0.924,0.085 -1.249,0.409c-0.317,0.317 -0.449,0.744 -0.398,1.282c0.052,0.538 0.361,1.09 0.928,1.657Zm7.414,-4.386l0.762,0.541c-0.169,0.258 -0.335,0.468 -0.497,0.63c-0.273,0.273 -0.523,0.442 -0.751,0.508c-0.236,0.059 -0.457,0.052 -0.663,-0.022c-0.199,-0.081 -0.523,-0.346 -0.972,-0.796l-2.53,-2.53l-0.541,0.541l-0.575,-0.575l0.541,-0.541l-1.094,-1.094l0.298,-1.182l1.536,1.536l0.751,-0.751l0.575,0.575l-0.751,0.751l2.574,2.574c0.214,0.214 0.361,0.339 0.442,0.376c0.088,0.029 0.18,0.033 0.276,0.011c0.096,-0.022 0.199,-0.088 0.309,-0.199c0.088,-0.088 0.191,-0.206 0.309,-0.354Zm2.751,-4.254l0.862,-0.685c0.331,0.567 0.457,1.142 0.376,1.724c-0.081,0.582 -0.376,1.127 -0.884,1.635c-0.641,0.641 -1.352,0.954 -2.132,0.939c-0.773,-0.022 -1.517,-0.39 -2.232,-1.105c-0.737,-0.737 -1.116,-1.499 -1.138,-2.287c-0.029,-0.795 0.258,-1.495 0.862,-2.099c0.589,-0.589 1.267,-0.869 2.033,-0.84c0.773,0.022 1.525,0.398 2.254,1.127c0.044,0.044 0.11,0.11 0.199,0.199l-3.281,3.281c0.516,0.457 1.024,0.692 1.525,0.707c0.493,0.007 0.924,-0.173 1.293,-0.541c0.273,-0.273 0.435,-0.575 0.486,-0.906c0.052,-0.346 -0.022,-0.729 -0.221,-1.149Zm-3.646,1.237l2.453,-2.453c-0.405,-0.346 -0.777,-0.534 -1.116,-0.563c-0.53,-0.044 -0.983,0.122 -1.359,0.497c-0.346,0.346 -0.523,0.751 -0.53,1.215c0,0.457 0.184,0.891 0.552,1.304Zm6.994,-1.757l-4.397,-4.397l0.674,-0.674l0.663,0.663c-0.14,-0.479 -0.188,-0.836 -0.144,-1.072c0.044,-0.25 0.155,-0.464 0.331,-0.641c0.25,-0.25 0.582,-0.427 0.994,-0.53l0.442,0.95c-0.295,0.074 -0.53,0.199 -0.707,0.376c-0.169,0.169 -0.269,0.372 -0.298,0.608c-0.029,0.221 0.018,0.446 0.144,0.674c0.177,0.354 0.42,0.685 0.729,0.994l2.309,2.309l-0.74,0.74Z" style="fill:#fff;fill-rule:nonzero;"/><path d="M453.92,284.645l1.005,-0.586c0.486,0.825 0.685,1.628 0.597,2.409c-0.088,0.781 -0.449,1.488 -1.083,2.121c-0.656,0.656 -1.322,1.057 -2,1.204c-0.678,0.147 -1.374,0.077 -2.088,-0.21c-0.722,-0.295 -1.374,-0.733 -1.956,-1.315c-0.633,-0.633 -1.064,-1.307 -1.293,-2.022c-0.228,-0.714 -0.243,-1.414 -0.044,-2.099c0.206,-0.692 0.578,-1.307 1.116,-1.845c0.604,-0.604 1.267,-0.958 1.989,-1.061c0.729,-0.11 1.455,0.033 2.177,0.431l-0.608,0.983c-0.582,-0.302 -1.109,-0.416 -1.58,-0.342c-0.471,0.059 -0.91,0.291 -1.315,0.696c-0.464,0.464 -0.74,0.969 -0.829,1.514c-0.088,0.53 -0.011,1.05 0.232,1.558c0.25,0.501 0.578,0.954 0.983,1.359c0.516,0.516 1.039,0.891 1.569,1.127c0.538,0.228 1.061,0.28 1.569,0.155c0.508,-0.125 0.95,-0.376 1.326,-0.751c0.449,-0.449 0.7,-0.958 0.751,-1.525c0.059,-0.575 -0.114,-1.175 -0.519,-1.801Zm1.591,-1.724c-0.818,-0.818 -1.197,-1.646 -1.138,-2.486c0.052,-0.7 0.35,-1.322 0.895,-1.867c0.604,-0.604 1.296,-0.899 2.077,-0.884c0.781,0 1.521,0.35 2.221,1.05c0.567,0.567 0.928,1.097 1.083,1.591c0.155,0.493 0.158,0.998 0.011,1.514c-0.147,0.501 -0.412,0.943 -0.795,1.326c-0.611,0.611 -1.304,0.913 -2.077,0.906c-0.773,-0.022 -1.532,-0.405 -2.276,-1.149Zm0.762,-0.762c0.56,0.56 1.101,0.858 1.624,0.895c0.53,0.029 0.98,-0.14 1.348,-0.508c0.376,-0.376 0.545,-0.825 0.508,-1.348c-0.037,-0.523 -0.342,-1.072 -0.917,-1.646c-0.545,-0.545 -1.083,-0.832 -1.613,-0.862c-0.523,-0.037 -0.969,0.129 -1.337,0.497c-0.368,0.368 -0.538,0.818 -0.508,1.348c0.029,0.516 0.328,1.057 0.895,1.624Zm7.878,-3.48l-6.066,-2.729l0.784,-0.784l3.58,1.679c0.383,0.192 0.77,0.394 1.16,0.608c-0.162,-0.295 -0.346,-0.663 -0.552,-1.105l-1.701,-3.668l0.762,-0.762l2.729,6.066l-0.696,0.696Zm4.618,-7.447l0.862,-0.685c0.331,0.567 0.457,1.142 0.376,1.724c-0.081,0.582 -0.376,1.127 -0.884,1.635c-0.641,0.641 -1.352,0.954 -2.132,0.939c-0.773,-0.022 -1.517,-0.39 -2.232,-1.105c-0.737,-0.737 -1.116,-1.499 -1.138,-2.287c-0.029,-0.796 0.258,-1.495 0.862,-2.099c0.589,-0.589 1.267,-0.869 2.033,-0.84c0.773,0.022 1.525,0.398 2.254,1.127c0.044,0.044 0.11,0.11 0.199,0.199l-3.281,3.281c0.516,0.457 1.024,0.692 1.525,0.707c0.494,0.007 0.924,-0.173 1.293,-0.541c0.273,-0.273 0.435,-0.575 0.486,-0.906c0.052,-0.346 -0.022,-0.729 -0.221,-1.149Zm-3.646,1.237l2.453,-2.453c-0.405,-0.346 -0.777,-0.534 -1.116,-0.563c-0.53,-0.044 -0.983,0.122 -1.359,0.497c-0.346,0.346 -0.523,0.751 -0.53,1.215c0,0.457 0.184,0.891 0.552,1.304Zm6.994,-1.757l-4.397,-4.397l0.674,-0.674l0.663,0.663c-0.14,-0.479 -0.188,-0.836 -0.144,-1.072c0.044,-0.25 0.155,-0.464 0.331,-0.641c0.25,-0.25 0.582,-0.427 0.994,-0.53l0.442,0.95c-0.295,0.074 -0.53,0.199 -0.707,0.376c-0.169,0.169 -0.269,0.372 -0.298,0.608c-0.029,0.221 0.018,0.446 0.144,0.674c0.177,0.354 0.42,0.685 0.729,0.994l2.309,2.309l-0.74,0.74Z" style="fill:#fff;fill-rule:nonzero;"/><path d="M512.711,306.675l-6.077,-6.077l2.298,-2.298c0.398,-0.398 0.722,-0.685 0.972,-0.862c0.354,-0.25 0.7,-0.405 1.039,-0.464c0.346,-0.066 0.703,-0.033 1.072,0.099c0.376,0.125 0.714,0.339 1.016,0.641c0.516,0.516 0.788,1.12 0.818,1.812c0.029,0.678 -0.387,1.447 -1.249,2.309l-1.558,1.558l2.475,2.475l-0.807,0.807Zm-2.375,-3.989l1.569,-1.569c0.523,-0.523 0.795,-0.987 0.818,-1.392c0.022,-0.42 -0.144,-0.807 -0.497,-1.16c-0.25,-0.25 -0.53,-0.398 -0.84,-0.442c-0.309,-0.059 -0.597,-0.015 -0.862,0.133c-0.177,0.103 -0.446,0.335 -0.807,0.696l-1.558,1.558l2.177,2.177Zm10.828,-4.464l-0.652,-0.652c0.155,0.847 -0.063,1.565 -0.652,2.154c-0.258,0.258 -0.549,0.453 -0.873,0.586c-0.324,0.118 -0.615,0.158 -0.873,0.122c-0.265,-0.044 -0.53,-0.155 -0.796,-0.331c-0.169,-0.11 -0.416,-0.328 -0.74,-0.652l-2.718,-2.718l0.751,-0.751l2.442,2.442c0.383,0.383 0.659,0.63 0.829,0.74c0.236,0.147 0.486,0.206 0.751,0.177c0.265,-0.044 0.512,-0.18 0.74,-0.409c0.221,-0.221 0.372,-0.482 0.453,-0.784c0.081,-0.317 0.063,-0.615 -0.055,-0.895c-0.11,-0.287 -0.354,-0.619 -0.729,-0.994l-2.353,-2.353l0.74,-0.74l4.397,4.397l-0.663,0.663Zm2.751,-2.751l-0.696,0.696l-6.077,-6.077l0.751,-0.751l2.166,2.166c-0.074,-0.707 0.133,-1.304 0.619,-1.79c0.273,-0.273 0.582,-0.471 0.928,-0.597c0.346,-0.14 0.696,-0.188 1.05,-0.144c0.361,0.037 0.726,0.151 1.094,0.343c0.368,0.192 0.711,0.446 1.028,0.762c0.751,0.751 1.145,1.521 1.182,2.309c0.037,0.788 -0.203,1.44 -0.718,1.956c-0.523,0.523 -1.149,0.714 -1.878,0.575l0.552,0.552Zm-2.243,-2.221c0.523,0.523 0.976,0.829 1.359,0.917c0.619,0.147 1.127,0.022 1.525,-0.376c0.324,-0.324 0.464,-0.744 0.42,-1.26c-0.037,-0.523 -0.339,-1.068 -0.906,-1.635c-0.575,-0.575 -1.112,-0.884 -1.613,-0.928c-0.501,-0.044 -0.913,0.096 -1.237,0.42c-0.324,0.324 -0.464,0.751 -0.42,1.282c0.044,0.516 0.335,1.042 0.873,1.58Zm6.485,-2.022l-6.077,-6.077l0.751,-0.751l6.077,6.077l-0.751,0.751Zm-3.071,-7.358l-0.862,-0.862l0.751,-0.751l0.862,0.862l-0.751,0.751Zm5.215,5.215l-4.397,-4.397l0.751,-0.751l4.397,4.397l-0.751,0.751Zm0.508,-3.138l0.619,-0.84c0.339,0.25 0.678,0.361 1.017,0.331c0.346,-0.037 0.692,-0.228 1.039,-0.575c0.339,-0.339 0.523,-0.656 0.552,-0.95c0.029,-0.309 -0.052,-0.56 -0.243,-0.751c-0.169,-0.169 -0.376,-0.228 -0.619,-0.177c-0.169,0.037 -0.508,0.206 -1.017,0.508c-0.685,0.405 -1.182,0.667 -1.491,0.784c-0.309,0.103 -0.608,0.122 -0.895,0.055c-0.287,-0.066 -0.541,-0.21 -0.762,-0.431c-0.192,-0.191 -0.328,-0.416 -0.409,-0.674c-0.081,-0.258 -0.099,-0.519 -0.055,-0.784c0.037,-0.199 0.125,-0.427 0.265,-0.685c0.14,-0.258 0.328,-0.505 0.563,-0.74c0.339,-0.339 0.689,-0.586 1.05,-0.74c0.361,-0.169 0.689,-0.232 0.983,-0.188c0.295,0.044 0.604,0.184 0.928,0.42l-0.63,0.829c-0.25,-0.192 -0.519,-0.269 -0.807,-0.232c-0.287,0.022 -0.578,0.18 -0.873,0.475c-0.339,0.339 -0.523,0.641 -0.552,0.906c-0.037,0.258 0.022,0.464 0.177,0.619c0.096,0.096 0.21,0.151 0.343,0.166c0.147,0.015 0.309,-0.015 0.486,-0.088c0.103,-0.044 0.387,-0.203 0.851,-0.475c0.678,-0.383 1.164,-0.633 1.458,-0.751c0.295,-0.118 0.586,-0.151 0.873,-0.099c0.287,0.052 0.56,0.206 0.818,0.464c0.25,0.25 0.412,0.56 0.486,0.928c0.074,0.354 0.037,0.729 -0.11,1.127c-0.155,0.39 -0.405,0.759 -0.751,1.105c-0.575,0.575 -1.131,0.895 -1.668,0.961c-0.538,0.052 -1.079,-0.114 -1.624,-0.497Zm5.856,-3.226l-6.077,-6.077l0.74,-0.74l2.177,2.177c-0.052,-0.744 0.188,-1.381 0.718,-1.911c0.331,-0.331 0.681,-0.549 1.05,-0.652c0.368,-0.118 0.718,-0.114 1.05,0.011c0.324,0.118 0.703,0.394 1.138,0.829l2.784,2.784l-0.74,0.74l-2.784,-2.784c-0.376,-0.376 -0.729,-0.567 -1.061,-0.575c-0.331,-0.007 -0.644,0.136 -0.939,0.431c-0.221,0.221 -0.372,0.49 -0.453,0.807c-0.081,0.302 -0.066,0.597 0.044,0.884c0.11,0.273 0.339,0.582 0.685,0.928l2.409,2.409l-0.74,0.74Zm6.541,-9.369l0.862,-0.685c0.331,0.567 0.457,1.142 0.376,1.724c-0.081,0.582 -0.376,1.127 -0.884,1.635c-0.641,0.641 -1.352,0.954 -2.132,0.939c-0.773,-0.022 -1.517,-0.39 -2.232,-1.105c-0.737,-0.737 -1.116,-1.499 -1.138,-2.287c-0.029,-0.795 0.258,-1.495 0.862,-2.099c0.589,-0.589 1.267,-0.869 2.033,-0.84c0.773,0.022 1.525,0.398 2.254,1.127c0.044,0.044 0.11,0.11 0.199,0.199l-3.281,3.281c0.516,0.457 1.024,0.692 1.525,0.707c0.494,0.007 0.924,-0.173 1.293,-0.541c0.273,-0.273 0.435,-0.575 0.486,-0.906c0.052,-0.346 -0.022,-0.729 -0.221,-1.149Zm-3.646,1.237l2.453,-2.453c-0.405,-0.346 -0.777,-0.534 -1.116,-0.563c-0.53,-0.044 -0.983,0.122 -1.359,0.497c-0.346,0.346 -0.523,0.751 -0.53,1.215c0,0.457 0.184,0.891 0.552,1.304Zm9.855,-4.618l-0.552,-0.552c0.155,0.714 -0.037,1.341 -0.575,1.878c-0.354,0.354 -0.773,0.582 -1.26,0.685c-0.493,0.096 -0.994,0.052 -1.503,-0.133c-0.508,-0.184 -0.987,-0.501 -1.436,-0.95c-0.435,-0.435 -0.759,-0.906 -0.972,-1.414c-0.214,-0.508 -0.265,-1.002 -0.155,-1.481c0.103,-0.486 0.335,-0.91 0.696,-1.271c0.265,-0.265 0.556,-0.446 0.873,-0.541c0.317,-0.096 0.63,-0.122 0.939,-0.077l-2.177,-2.177l0.74,-0.74l6.077,6.077l-0.696,0.696Zm-4.552,0.155c0.567,0.567 1.108,0.873 1.624,0.917c0.508,0.037 0.924,-0.107 1.249,-0.431c0.324,-0.324 0.468,-0.733 0.431,-1.226c-0.037,-0.494 -0.328,-1.013 -0.873,-1.558c-0.604,-0.604 -1.164,-0.928 -1.679,-0.972c-0.508,-0.052 -0.932,0.092 -1.271,0.431c-0.331,0.331 -0.471,0.744 -0.42,1.237c0.044,0.486 0.357,1.02 0.939,1.602Z" style="fill:#fff;fill-rule:nonzero;"/><path d="M221.5,61.917l12,0" style="fill:none;fill-rule:nonzero;stroke:#56de93;stroke-width:4px;"/><path d="M248.062,57.323l1.141,0l0,4.969c0,0.865 -0.099,1.552 -0.297,2.062c-0.198,0.5 -0.552,0.911 -1.062,1.234c-0.51,0.312 -1.177,0.469 -2,0.469c-0.802,0 -1.464,-0.135 -1.984,-0.406c-0.51,-0.281 -0.875,-0.682 -1.094,-1.203c-0.219,-0.531 -0.328,-1.25 -0.328,-2.156l0,-4.969l1.141,0l0,4.953c0,0.75 0.068,1.302 0.203,1.656c0.146,0.354 0.385,0.63 0.719,0.828c0.344,0.188 0.76,0.281 1.25,0.281c0.833,0 1.427,-0.188 1.781,-0.562c0.354,-0.385 0.531,-1.12 0.531,-2.203l0,-4.953Zm3.234,8.594l0,-6.219l0.938,0l0,0.875c0.458,-0.677 1.12,-1.016 1.984,-1.016c0.375,0 0.719,0.068 1.031,0.203c0.323,0.135 0.563,0.313 0.719,0.531c0.156,0.219 0.266,0.474 0.328,0.766c0.031,0.198 0.047,0.542 0.047,1.031l0,3.828l-1.047,0l0,-3.781c0,-0.438 -0.042,-0.76 -0.125,-0.969c-0.083,-0.208 -0.229,-0.375 -0.438,-0.5c-0.208,-0.135 -0.453,-0.203 -0.734,-0.203c-0.448,0 -0.839,0.146 -1.172,0.438c-0.323,0.281 -0.484,0.818 -0.484,1.609l0,3.406l-1.047,0Zm9.297,-0.938l0.156,0.922c-0.302,0.062 -0.568,0.094 -0.797,0.094c-0.385,0 -0.682,-0.057 -0.891,-0.172c-0.208,-0.125 -0.359,-0.286 -0.453,-0.484c-0.083,-0.198 -0.125,-0.615 -0.125,-1.25l0,-3.578l-0.766,0l0,-0.812l0.766,0l0,-1.547l1.047,-0.625l0,2.172l1.062,0l0,0.812l-1.062,0l0,3.641c0,0.302 0.016,0.495 0.047,0.578c0.042,0.083 0.104,0.151 0.188,0.203c0.083,0.052 0.203,0.078 0.359,0.078c0.125,0 0.281,-0.01 0.469,-0.031Zm0.703,-6.438l0,-1.219l1.062,0l0,1.219l-1.062,0Zm0,7.375l0,-6.219l1.062,0l0,6.219l-1.062,0Zm5.297,-0.938l0.156,0.922c-0.302,0.062 -0.568,0.094 -0.797,0.094c-0.385,0 -0.682,-0.057 -0.891,-0.172c-0.208,-0.125 -0.359,-0.286 -0.453,-0.484c-0.083,-0.198 -0.125,-0.615 -0.125,-1.25l0,-3.578l-0.766,0l0,-0.812l0.766,0l0,-1.547l1.047,-0.625l0,2.172l1.062,0l0,0.812l-1.062,0l0,3.641c0,0.302 0.016,0.495 0.047,0.578c0.042,0.083 0.104,0.151 0.188,0.203c0.083,0.052 0.203,0.078 0.359,0.078c0.125,0 0.281,-0.01 0.469,-0.031Zm0.672,0.938l0,-8.594l1.062,0l0,8.594l-1.062,0Zm7.281,-2l1.094,0.125c-0.167,0.635 -0.484,1.13 -0.953,1.484c-0.469,0.354 -1.062,0.531 -1.781,0.531c-0.906,0 -1.63,-0.281 -2.172,-0.844c-0.531,-0.562 -0.797,-1.349 -0.797,-2.359c0,-1.042 0.271,-1.849 0.812,-2.422c0.542,-0.583 1.24,-0.875 2.094,-0.875c0.833,0 1.51,0.281 2.031,0.844c0.531,0.562 0.797,1.359 0.797,2.391l0,0.281l-4.641,0c0.042,0.688 0.234,1.214 0.578,1.578c0.344,0.354 0.776,0.531 1.297,0.531c0.385,0 0.714,-0.099 0.984,-0.297c0.281,-0.208 0.5,-0.531 0.656,-0.969Zm-3.453,-1.703l3.469,0c-0.042,-0.531 -0.172,-0.927 -0.391,-1.188c-0.344,-0.406 -0.781,-0.609 -1.312,-0.609c-0.49,0 -0.901,0.161 -1.234,0.484c-0.323,0.323 -0.5,0.76 -0.531,1.312Zm10.234,3.703l0,-0.781c-0.396,0.615 -0.974,0.922 -1.734,0.922c-0.5,0 -0.958,-0.135 -1.375,-0.406c-0.417,-0.281 -0.74,-0.667 -0.969,-1.156c-0.229,-0.49 -0.344,-1.052 -0.344,-1.687c0,-0.615 0.104,-1.177 0.312,-1.688c0.208,-0.51 0.521,-0.896 0.938,-1.156c0.417,-0.271 0.88,-0.406 1.391,-0.406c0.375,0 0.708,0.078 1,0.234c0.292,0.156 0.531,0.359 0.719,0.609l0,-3.078l1.047,0l0,8.594l-0.984,0Zm-3.328,-3.109c0,0.802 0.167,1.401 0.5,1.797c0.333,0.385 0.729,0.578 1.188,0.578c0.458,0 0.849,-0.188 1.172,-0.562c0.323,-0.375 0.484,-0.948 0.484,-1.719c0,-0.854 -0.167,-1.479 -0.5,-1.875c-0.323,-0.396 -0.724,-0.594 -1.203,-0.594c-0.469,0 -0.859,0.193 -1.172,0.578c-0.312,0.375 -0.469,0.974 -0.469,1.797Z" style="fill:#fff;fill-rule:nonzero;"/><path d="M299.5,61.917l12,0" style="fill:none;fill-rule:nonzero;stroke:#2da87f;stroke-width:4px;"/><path d="M320.438,65.917l0,-8.594l3.812,0c0.771,0 1.354,0.078 1.75,0.234c0.396,0.156 0.714,0.432 0.953,0.828c0.24,0.385 0.359,0.813 0.359,1.281c0,0.615 -0.198,1.13 -0.594,1.547c-0.396,0.417 -1.005,0.682 -1.828,0.797c0.302,0.146 0.531,0.286 0.688,0.422c0.333,0.302 0.646,0.682 0.938,1.141l1.5,2.344l-1.438,0l-1.125,-1.781c-0.333,-0.521 -0.609,-0.917 -0.828,-1.188c-0.208,-0.271 -0.401,-0.458 -0.578,-0.562c-0.167,-0.115 -0.339,-0.198 -0.516,-0.25c-0.125,-0.021 -0.333,-0.031 -0.625,-0.031l-1.328,0l0,3.812l-1.141,0Zm1.141,-4.797l2.453,0c0.51,0 0.911,-0.052 1.203,-0.156c0.302,-0.115 0.526,-0.286 0.672,-0.516c0.156,-0.24 0.234,-0.5 0.234,-0.781c0,-0.406 -0.151,-0.74 -0.453,-1c-0.292,-0.26 -0.755,-0.391 -1.391,-0.391l-2.719,0l0,2.844Zm7.328,1.688c0,-1.156 0.318,-2.01 0.953,-2.562c0.531,-0.458 1.182,-0.688 1.953,-0.688c0.854,0 1.552,0.281 2.094,0.844c0.552,0.552 0.828,1.323 0.828,2.312c0,0.802 -0.12,1.432 -0.359,1.891c-0.24,0.458 -0.594,0.818 -1.062,1.078c-0.458,0.25 -0.958,0.375 -1.5,0.375c-0.865,0 -1.568,-0.276 -2.109,-0.828c-0.531,-0.562 -0.797,-1.37 -0.797,-2.422Zm1.078,0c0,0.792 0.172,1.385 0.516,1.781c0.354,0.396 0.792,0.594 1.312,0.594c0.531,0 0.969,-0.198 1.312,-0.594c0.344,-0.396 0.516,-1 0.516,-1.812c0,-0.771 -0.177,-1.354 -0.531,-1.75c-0.344,-0.396 -0.776,-0.594 -1.297,-0.594c-0.521,0 -0.958,0.198 -1.312,0.594c-0.344,0.385 -0.516,0.979 -0.516,1.781Zm6.297,3.109l0,-6.219l0.953,0l0,0.938c0.24,-0.438 0.458,-0.724 0.656,-0.859c0.208,-0.146 0.438,-0.219 0.688,-0.219c0.354,0 0.714,0.109 1.078,0.328l-0.359,0.984c-0.26,-0.156 -0.516,-0.234 -0.766,-0.234c-0.24,0 -0.453,0.073 -0.641,0.219c-0.177,0.135 -0.302,0.328 -0.375,0.578c-0.125,0.375 -0.188,0.781 -0.188,1.219l0,3.266l-1.047,0Zm3.594,-1.859l1.031,-0.156c0.062,0.417 0.224,0.734 0.484,0.953c0.271,0.219 0.651,0.328 1.141,0.328c0.479,0 0.833,-0.094 1.062,-0.281c0.24,-0.198 0.359,-0.432 0.359,-0.703c0,-0.24 -0.104,-0.427 -0.312,-0.562c-0.146,-0.094 -0.505,-0.214 -1.078,-0.359c-0.771,-0.198 -1.307,-0.365 -1.609,-0.5c-0.292,-0.146 -0.516,-0.344 -0.672,-0.594c-0.156,-0.25 -0.234,-0.531 -0.234,-0.844c0,-0.271 0.062,-0.526 0.188,-0.766c0.125,-0.24 0.297,-0.437 0.516,-0.594c0.167,-0.115 0.391,-0.214 0.672,-0.297c0.281,-0.083 0.589,-0.125 0.922,-0.125c0.479,0 0.901,0.073 1.266,0.219c0.375,0.135 0.651,0.323 0.828,0.562c0.177,0.24 0.297,0.557 0.359,0.953l-1.031,0.141c-0.042,-0.312 -0.177,-0.557 -0.406,-0.734c-0.219,-0.188 -0.536,-0.281 -0.953,-0.281c-0.479,0 -0.823,0.083 -1.031,0.25c-0.208,0.156 -0.312,0.344 -0.312,0.562c0,0.135 0.042,0.255 0.125,0.359c0.094,0.115 0.229,0.208 0.406,0.281c0.104,0.042 0.417,0.13 0.938,0.266c0.75,0.208 1.271,0.375 1.562,0.5c0.292,0.125 0.521,0.307 0.688,0.547c0.167,0.24 0.25,0.542 0.25,0.906c0,0.354 -0.104,0.688 -0.312,1c-0.198,0.302 -0.49,0.542 -0.875,0.719c-0.385,0.167 -0.823,0.25 -1.312,0.25c-0.812,0 -1.432,-0.167 -1.859,-0.5c-0.417,-0.344 -0.682,-0.844 -0.797,-1.5Zm10.484,-0.422l1.031,0.141c-0.115,0.708 -0.406,1.266 -0.875,1.672c-0.469,0.406 -1.042,0.609 -1.719,0.609c-0.854,0 -1.542,-0.276 -2.062,-0.828c-0.51,-0.562 -0.766,-1.365 -0.766,-2.406c0,-0.667 0.109,-1.25 0.328,-1.75c0.229,-0.51 0.568,-0.891 1.016,-1.141c0.458,-0.25 0.958,-0.375 1.5,-0.375c0.667,0 1.214,0.172 1.641,0.516c0.438,0.333 0.719,0.818 0.844,1.453l-1.031,0.156c-0.094,-0.417 -0.266,-0.729 -0.516,-0.938c-0.25,-0.219 -0.552,-0.328 -0.906,-0.328c-0.531,0 -0.964,0.193 -1.297,0.578c-0.333,0.375 -0.5,0.974 -0.5,1.797c0,0.844 0.161,1.453 0.484,1.828c0.323,0.375 0.74,0.562 1.25,0.562c0.417,0 0.76,-0.125 1.031,-0.375c0.281,-0.25 0.464,-0.641 0.547,-1.172Zm1.938,2.281l0,-8.594l1.047,0l0,3.078c0.49,-0.562 1.109,-0.844 1.859,-0.844c0.469,0 0.87,0.094 1.203,0.281c0.344,0.177 0.589,0.427 0.734,0.75c0.146,0.312 0.219,0.776 0.219,1.391l0,3.938l-1.047,0l0,-3.938c0,-0.531 -0.115,-0.917 -0.344,-1.156c-0.229,-0.24 -0.552,-0.359 -0.969,-0.359c-0.312,0 -0.609,0.083 -0.891,0.25c-0.271,0.156 -0.469,0.375 -0.594,0.656c-0.115,0.271 -0.172,0.651 -0.172,1.141l0,3.406l-1.047,0Zm11.062,-0.766c-0.396,0.333 -0.776,0.568 -1.141,0.703c-0.354,0.135 -0.74,0.203 -1.156,0.203c-0.688,0 -1.214,-0.167 -1.578,-0.5c-0.365,-0.333 -0.547,-0.76 -0.547,-1.281c0,-0.302 0.068,-0.578 0.203,-0.828c0.135,-0.26 0.318,-0.464 0.547,-0.609c0.229,-0.156 0.484,-0.271 0.766,-0.344c0.198,-0.062 0.51,-0.12 0.938,-0.172c0.844,-0.094 1.469,-0.214 1.875,-0.359l0,-0.266c0,-0.438 -0.099,-0.745 -0.297,-0.922c-0.271,-0.229 -0.672,-0.344 -1.203,-0.344c-0.49,0 -0.854,0.089 -1.094,0.266c-0.24,0.167 -0.417,0.469 -0.531,0.906l-1.031,-0.141c0.094,-0.438 0.25,-0.792 0.469,-1.062c0.219,-0.271 0.531,-0.479 0.938,-0.625c0.406,-0.146 0.875,-0.219 1.406,-0.219c0.531,0 0.964,0.062 1.297,0.188c0.333,0.125 0.578,0.281 0.734,0.469c0.156,0.188 0.266,0.427 0.328,0.719c0.031,0.177 0.047,0.5 0.047,0.969l0,1.406c0,0.979 0.021,1.599 0.062,1.859c0.052,0.26 0.146,0.51 0.281,0.75l-1.109,0c-0.104,-0.219 -0.172,-0.474 -0.203,-0.766Zm-0.094,-2.359c-0.385,0.156 -0.958,0.292 -1.719,0.406c-0.438,0.062 -0.745,0.135 -0.922,0.219c-0.177,0.073 -0.318,0.182 -0.422,0.328c-0.094,0.146 -0.141,0.312 -0.141,0.5c0,0.281 0.104,0.516 0.312,0.703c0.219,0.188 0.531,0.281 0.938,0.281c0.406,0 0.766,-0.089 1.078,-0.266c0.323,-0.177 0.557,-0.422 0.703,-0.734c0.115,-0.24 0.172,-0.589 0.172,-1.047l0,-0.391Zm7.094,0.844l1.031,0.141c-0.115,0.708 -0.406,1.266 -0.875,1.672c-0.469,0.406 -1.042,0.609 -1.719,0.609c-0.854,0 -1.542,-0.276 -2.062,-0.828c-0.51,-0.562 -0.766,-1.365 -0.766,-2.406c0,-0.667 0.109,-1.25 0.328,-1.75c0.229,-0.51 0.568,-0.891 1.016,-1.141c0.458,-0.25 0.958,-0.375 1.5,-0.375c0.667,0 1.214,0.172 1.641,0.516c0.438,0.333 0.719,0.818 0.844,1.453l-1.031,0.156c-0.094,-0.417 -0.266,-0.729 -0.516,-0.938c-0.25,-0.219 -0.552,-0.328 -0.906,-0.328c-0.531,0 -0.964,0.193 -1.297,0.578c-0.333,0.375 -0.5,0.974 -0.5,1.797c0,0.844 0.161,1.453 0.484,1.828c0.323,0.375 0.74,0.562 1.25,0.562c0.417,0 0.76,-0.125 1.031,-0.375c0.281,-0.25 0.464,-0.641 0.547,-1.172Zm1.938,2.281l0,-8.594l1.047,0l0,3.078c0.49,-0.562 1.109,-0.844 1.859,-0.844c0.469,0 0.87,0.094 1.203,0.281c0.344,0.177 0.589,0.427 0.734,0.75c0.146,0.312 0.219,0.776 0.219,1.391l0,3.938l-1.047,0l0,-3.938c0,-0.531 -0.115,-0.917 -0.344,-1.156c-0.229,-0.24 -0.552,-0.359 -0.969,-0.359c-0.312,0 -0.609,0.083 -0.891,0.25c-0.271,0.156 -0.469,0.375 -0.594,0.656c-0.115,0.271 -0.172,0.651 -0.172,1.141l0,3.406l-1.047,0Z" style="fill:#fff;fill-rule:nonzero;"/></g></svg>