<svg xmlns="http://www.w3.org/2000/svg" viewBox="0 0 1304 789" xmlns:v="https://vecta.io/nano"><path fill="white" d="M956.326 783.24H653.08c-180.02-2.326-361.127 0-541.507-.808-13.356-.002-26.461-1.717-39.156-6.045-26.487-8.342-46.721-30.782-53.385-57.596C7.326 518.604 18.339 316.16 14.7 115.25c-.081-16.126.774-32.431 6.133-47.794 10.974-35.551 44.293-55.065 80.141-57.431L1202.953 9c52.745 5.73 83.32 31.355 89.247 85.387v603.466c-3.166 36.029-23.443 69.437-60.07 79.399-12.163 3.748-24.662 5.182-37.344 5.184-79.369.793-159.42-1.501-238.46.803zM594.334 353.472c-.392-1.691-.582-2.951-.978-4.144-2.165-6.519-4.19-13.094-6.623-19.513-3.804-10.034-8.543-19.633-14.487-28.6-10.406-15.697-23.886-27.824-41.246-35.436-1.61-.706-3.191-1.478-4.796-2.194-25.07-11.187-51.349-17.611-78.7-19.466-11.802-.8-23.633-.605-35.453.479-15.978 1.466-31.638 4.458-46.965 9.141-13.477 4.117-26.605 9.173-38.945 16.033-22.485 12.5-38 30.907-46.195 55.347a112.166 112.166 0 0 0-5.47 26.702c-.995 12.304-1.097 24.567 1.189 36.772 6.266 33.46 29.144 61.518 60.773 74.459l7.531 3.113c13.101 5.588 26.52 10.263 40.241 14.082l43.403 12.091 58.717 16.048c10.954 3.089 18.025 10.338 19.839 21.707 2.254 14.129-2.705 25.687-14.67 33.488-19.453 12.683-40.952 17.156-63.753 12.816-29.402-5.597-50.808-22.206-64.181-49.045-.356-.715-.61-1.49-1.032-2.162-3.674-5.863-7.616-9.011-14.946-7.735-7.078 1.232-14.254 1.893-21.365 2.951l-63.034 9.518c-.886.135-1.728.561-2.818.928.254 1.175.393 2.094.653 2.976 2.577 8.748 5.686 17.302 9.474 25.601 10.134 22.206 24.355 41.205 43.986 55.953 13.17 9.894 27.735 17.075 43.358 22.141 19.231 6.236 38.927 10.154 59.089 11.852 12.621 1.063 25.245 1.177 37.853.411a255.192 255.192 0 0 0 47.766-7.502c10.853-2.773 21.576-5.917 31.695-10.843 22.4-10.905 40.29-26.914 53.935-47.699 10.707-16.31 17.426-34.053 19.266-53.579 2.075-22.016-2.305-42.656-13.316-61.775-12.573-21.831-31.002-37.157-54.011-47.03-12.926-5.546-26.14-10.41-39.608-14.467l-71.729-21.1c-14.265-4.164-28.547-8.283-42.511-13.381-9.438-3.446-15.067-10.456-17.545-20.056-.344-1.333-.357-2.884-.054-4.228 1.884-8.367 6.492-14.873 13.871-19.277 1.606-.959 3.492-1.627 5.335-1.981 21.279-4.084 42.765-5.675 64.41-4.955 3.486.116 7.052.552 10.406 1.477 15.562 4.29 26.203 14.092 31.948 29.202 1.02 2.681 1.98 5.426 3.37 7.917 3.547 6.359 8.629 8.654 15.715 6.935 5.452-1.323 10.97-2.072 16.493-2.943l61.493-10.09c.755-.125 1.466-.517 2.623-.94zM774.3 637.666c1.01-2.312.759-4.087.757-5.81l-.094-35.014.973-80.082 1.692-82.468 1.495-39.776c1.161-23.214 11.038-41.797 30.382-54.889 10.19-6.896 21.741-10.694 33.805-12.936a57.048 57.048 0 0 1 13.374-.891c17.218.878 30.998 8.126 40.949 22.333 4.547 6.491 7.65 13.657 9.569 21.32 3.162 12.628 4.217 25.566 4.566 38.489.566 20.932.57 41.881.635 62.823l.308 145.812c.014 5.433.264 10.867.445 16.298.047 1.413-.13 2.903 1.011 4.3 1.509.675 3.285.386 5.011.388l45.101.004 43.182-.009c1.715-.003 3.495.286 5.238-.55.673-1.754.467-3.518.469-5.243l.121-126.153-.114-69.55-.16-33.575c-.276-11.343-.851-22.683-1.506-34.012-.6-10.37-1.387-20.733-3.156-30.992-1.911-11.084-5.031-21.794-9.929-31.94-11.007-22.804-28.637-38.56-51.918-48.042-12.753-5.193-25.918-9.041-39.624-11.018-16.177-2.333-32.23-1.761-48.155 1.6-27.303 5.762-50.9 18.52-70.759 38.156l-17.501 17.093c-.632.613-1.166 1.608-2.685 1.023-.057-1.406-.172-2.958-.173-4.51l-.004-36.456c-.004-1.695.365-3.491-.599-4.986-4.554-.759-63.399-1.026-87.917-.412-1.087.027-2.169.244-3.269.374-1.109 2.448-.682 4.873-.682 7.222l.003 362.16.031 6.715c.031.913.325 1.817.52 2.832 1.113.143 2.042.366 2.971.366l95.636.005zm-559.106.108c.831-2.462.611-4.382.611-6.263l.015-340.451-.017-27.331c-.007-1.707.327-3.497-.725-5.375-1.555-.072-3.118-.202-4.682-.207l-18.705-.002c-22.702-.002-45.405-.016-68.107.008-1.713.002-3.511-.404-5.346.712-.749 2.192-.452 4.604-.452 6.967l.007 356.754.051 11.028c.023 1.235.286 2.465.447 3.751 1.061.165 1.836.392 2.612.392l94.291.015zm974.431-.515l.109-6.088.006-365.01c0-1.599.05-3.201-.038-4.795-.05-.906-.331-1.799-.543-2.878-1.623-.088-3.035-.23-4.448-.23-29.266-.009-58.531-.001-87.796.004-.64 0-1.285-.044-1.918.027-.908.102-1.806.292-2.778.456-.791 2.571-.512 4.977-.512 7.341l.006 351.1.02 15.348c.014 1.564-.333 3.21.712 4.715.388.141.826.439 1.264.44l93.549.054c.605 0 1.21-.239 2.366-.484zm-973.878-525.01c-1.971-.074-3.544-.186-5.116-.185l-86.736.083c-1.118.001-2.244-.066-3.352.049-.891.092-1.758.411-2.838.679l-.148 5.912.015 71.864.037 6.706c.03.896.313 1.784.461 2.572 4.357.673 73.111.975 94.151.442 1.091-.028 2.178-.234 3.229-.352.229-.627.531-1.069.532-1.512l.172-83.352c.001-.774-.21-1.547-.407-2.905zm973.362.288l-5.895-.108c-28.116-.002-56.232.006-84.348.011-1.278 0-2.559-.049-3.833.026-.91.053-1.81.276-2.737.427-.858 2.227-.585 4.318-.586 6.361l.009 75.224c0 1.118-.071 2.245.047 3.351.097.908.428 1.79.723 2.952l5.342.132 66.616.006 20.608-.018c1.397-.007 2.894.323 4.425-1.004.074-1.133.231-2.534.247-3.937.448-37.806.192-78.934-.618-83.424z"/></svg>