<svg xmlns="http://www.w3.org/2000/svg" width="128" height="128">
    <path fill="white" d="M43.52 0C29.333 0 24.8 0 18.4 2.133 10.859 4.8 4.8 10.86 2.133 18.4 0 24.8 0 29.333 0 43.52v40.96c0 14.187 0 18.72 2.133 25.12 2.672 7.541 8.726 13.6 16.267 16.267C24.8 128 29.333 128 43.52 128h40.96c14.187 0 18.72 0 25.12-2.133 7.541-2.667 13.6-8.726 16.267-16.267C128 103.2 128 98.667 128 84.48V43.52c0-14.187 0-18.72-2.133-25.12-2.667-7.467-8.811-13.6-16.278-16.267C103.19 0 98.667 0 84.48 0H43.52Z"/>
    <path fill="" d="M58.476 34.852c0 1.01-.169 2.316-.506 3.915-.337 1.6-.505 2.947-.505 4.042 0 .926.042 2.189.126 3.788.085 1.6.127 2.863.127 3.79 0 .42-.085 1.01-.253 1.767-.168.758-.253 1.347-.253 1.768 0 .506.169 1.221.506 2.147.337.926.505 1.642.505 2.147.084.505.126 1.137.126 1.895 0 .505-.042 1.347-.126 2.525a42.296 42.296 0 0 0-.126 2.905v8.84c0 .843-.106 1.937-.316 3.284-.21 1.347-.316 2.231-.316 2.652-.084 1.6-.126 2.737-.126 3.41 0 .842.042 1.516.126 2.02.505 4.463 1.221 7.747 2.147 9.852 1.432 3.283 3.664 4.925 6.695 4.925l2.653-.126c.926 0 2.147.126 3.663.379 1.516.252 2.653.379 3.41.379.674 0 1.222-.043 1.643-.127.42-.084 1.052-.294 1.894-.631.842-.337 1.516-.547 2.021-.632l1.516-.379 2.148-1.136c.673-1.179 1.2-2.042 1.578-2.59.38-.546.78-.988 1.2-1.325 1.18-1.01 1.853-1.642 2.022-1.895.505-.673 1.178-1.894 2.02-3.662.422-.926.843-1.726 1.264-2.4a201.084 201.084 0 0 0 3.031-4.42c.169-.337.4-.968.695-1.894.295-.926.653-1.558 1.074-1.895.926-.757 1.6-1.136 2.02-1.136.674 0 1.222.379 1.643 1.136.42.758.631 1.642.631 2.653 0 .926-.294 2.041-.884 3.346-.59 1.305-.947 2.274-1.073 2.905-.127.631-.274 1.894-.443 3.789-.168 1.894-.463 3.389-.884 4.483a37.554 37.554 0 0 0-1.39 2.526 15.279 15.279 0 0 0 0 2.778c.085.842.211 1.642.38 2.4 0 .758-.295 1.558-.884 2.4-.843 1.178-2.316 1.978-4.422 2.399-.842.168-1.431.253-1.768.253-.674 0-1.537-.064-2.59-.19-1.052-.126-1.62-.19-1.705-.19a9.4 9.4 0 0 0-2.59.38c-.883.252-1.368.378-1.452.378-1.347.169-2.99-.02-4.926-.568-1.937-.547-3.453-.82-4.547-.82-.843 0-1.79.062-2.843.189a70.035 70.035 0 0 1-3.347.315H54.939a82.19 82.19 0 0 1-4.548-.126h-1.515c-1.6 0-3.011.042-4.232.126-1.221.085-3.642.337-7.263.758l-.884.126c-4.043 0-6.064-1.094-6.064-3.283 0-.337.38-.821 1.137-1.452.758-.632 1.98-.99 3.663-1.074 1.685-.084 2.99-.379 3.916-.884.927-.505 1.769-1.22 2.527-2.147.42-.505.82-.99 1.2-1.452.379-.463.61-.947.694-1.453.085-.336.085-.842 0-1.515a13.813 13.813 0 0 1-.126-1.642c0-.842.126-1.979.379-3.41s.379-2.61.379-3.536c0-.926-.169-2.147-.505-3.662-.337-1.516-.506-2.737-.506-3.663l.38-6.946.126-8.462.252-5.304c0-1.01-.084-2.4-.252-4.167-.169-1.769-.253-3.2-.253-4.294V45.84c0-1.432.042-2.863.126-4.294 0-.926-.19-2.105-.568-3.536-.38-1.432-.569-2.526-.569-3.284 0-.59.085-1.39.253-2.4.169-1.01.253-1.726.253-2.147 0-.589-.148-1.241-.442-1.957-.295-.716-.78-1.452-1.453-2.21l-1.39-1.263a3.758 3.758 0 0 0-1.894-.505c-.842.084-1.474.126-1.895.126-.337 0-.758-.084-1.263-.253l-1.01-.505c-1.011-.59-1.77-1.431-2.274-2.526l-.253-1.136c0-.59.484-1.032 1.453-1.326.968-.295 1.915-.61 2.842-.947 1.095 0 2.547.147 4.358.442 1.81.294 3.094.442 3.852.442 1.853 0 4.421-.274 7.706-.821 3.284-.548 5.515-.821 6.694-.821l5.18-.38c1.852 0 3.389.338 4.61 1.011 1.22.674 1.831 1.558 1.831 2.652 0 .674-.336 1.263-1.01 1.768-.674.506-1.137.842-1.39 1.01-.59.506-1.473.759-2.652.759-1.348-.169-2.316-.253-2.906-.253-1.01 0-1.789.232-2.336.695-.548.463-.99.82-1.327 1.073-.42.337-.631.758-.631 1.263 0 .758.168 1.642.505 2.652.337 1.01.505 1.768.505 2.273l.127 1.768v1.642Z"/>
</svg>
