<?xml version="1.0" encoding="UTF-8" standalone="no"?><!DOCTYPE svg PUBLIC "-//W3C//DTD SVG 1.1//EN" "http://www.w3.org/Graphics/SVG/1.1/DTD/svg11.dtd"><svg width="284px" height="284px" viewBox="0 0 284 284" version="1.1" xmlns="http://www.w3.org/2000/svg" xmlns:xlink="http://www.w3.org/1999/xlink" xml:space="preserve" xmlns:serif="http://www.serif.com/" style="fill-rule:evenodd;clip-rule:evenodd;stroke-linejoin:round;stroke-miterlimit:2;"><rect id="_001" serif:id="001" x="0" y="0" width="283.465" height="283.465" style="fill:none;"/><g id="_0011" serif:id="001"><path d="M132.499,24.531l-1.551,-19.94c3.559,-0.277 7.155,-0.418 10.784,-0.418c3.629,0 7.226,0.141 10.784,0.418l-1.551,19.94c-3.047,-0.237 -6.126,-0.358 -9.234,-0.358c-3.107,0 -6.187,0.121 -9.234,0.358Zm36.686,2.869l4.659,-19.45c7.074,1.695 13.937,3.936 20.54,6.677l-7.667,18.472c-5.637,-2.34 -11.494,-4.253 -17.532,-5.699Zm33.956,14.09l10.47,-17.04c6.152,3.78 11.984,8.03 17.447,12.701l-12.997,15.201c-4.671,-3.994 -9.659,-7.629 -14.92,-10.862Zm27.972,23.914l15.201,-12.997c4.671,5.462 8.921,11.295 12.701,17.447l-17.04,10.47c-3.233,-5.261 -6.867,-10.248 -10.862,-14.92Zm19.252,31.344l18.472,-7.667c2.741,6.604 4.983,13.466 6.677,20.54l-19.45,4.659c-1.446,-6.038 -3.36,-11.896 -5.699,-17.532Zm8.568,35.751l19.94,-1.551c0.277,3.559 0.418,7.155 0.418,10.784c0,3.629 -0.141,7.225 -0.418,10.784l-19.94,-1.551c0.237,-3.047 0.358,-6.126 0.358,-9.233c0,-3.107 -0.121,-6.187 -0.358,-9.234Zm-2.869,36.686l19.45,4.659c-1.695,7.074 -3.936,13.937 -6.677,20.54l-18.472,-7.667c2.34,-5.637 4.253,-11.494 5.699,-17.532Zm-14.09,33.956l17.04,10.47c-3.78,6.152 -8.03,11.984 -12.701,17.447l-15.201,-12.997c3.994,-4.671 7.629,-9.659 10.862,-14.92Zm-23.914,27.972l12.997,15.201c-5.462,4.671 -11.295,8.921 -17.447,12.701l-10.47,-17.04c5.261,-3.233 10.248,-6.867 14.92,-10.862Zm-31.344,19.252l7.667,18.472c-6.604,2.741 -13.466,4.983 -20.54,6.677l-4.659,-19.45c6.038,-1.446 11.896,-3.36 17.532,-5.699Zm-35.751,8.568l1.551,19.94c-3.559,0.277 -7.155,0.418 -10.784,0.418c-3.629,0 -7.225,-0.141 -10.784,-0.418l1.551,-19.94c3.047,0.237 6.126,0.358 9.233,0.358c3.107,0 6.187,-0.121 9.234,-0.358Zm-36.686,-2.869l-4.659,19.45c-7.074,-1.695 -13.937,-3.936 -20.54,-6.677l7.667,-18.472c5.637,2.34 11.494,4.253 17.532,5.699Zm-33.956,-14.09l-10.47,17.04c-6.152,-3.78 -11.984,-8.03 -17.447,-12.701l12.997,-15.201c4.671,3.994 9.659,7.629 14.92,10.862Zm-27.972,-23.914l-15.201,12.997c-4.671,-5.462 -8.921,-11.295 -12.701,-17.447l17.04,-10.47c3.233,5.261 6.867,10.248 10.862,14.92Zm-19.252,-31.344l-18.472,7.667c-2.741,-6.604 -4.983,-13.466 -6.677,-20.54l19.45,-4.659c1.446,6.038 3.36,11.896 5.699,17.532Zm-8.568,-35.751l-19.94,1.551c-0.277,-3.559 -0.418,-7.155 -0.418,-10.784c0,-3.629 0.141,-7.225 0.418,-10.784l19.94,1.551c-0.237,3.047 -0.358,6.126 -0.358,9.233c0,3.107 0.121,6.187 0.358,9.234Zm2.869,-36.686l-19.45,-4.659c1.695,-7.074 3.936,-13.937 6.677,-20.54l18.472,7.667c-2.34,5.637 -4.253,11.494 -5.699,17.532Zm14.09,-33.956l-17.04,-10.47c3.78,-6.152 8.03,-11.984 12.701,-17.447l15.201,12.997c-3.994,4.671 -7.629,9.659 -10.862,14.92Zm23.914,-27.972l-12.997,-15.201c5.462,-4.671 11.295,-8.921 17.447,-12.701l10.47,17.04c-5.261,3.233 -10.248,6.867 -14.92,10.862Zm31.344,-19.252l-7.667,-18.472c6.604,-2.741 13.466,-4.983 20.54,-6.677l4.659,19.45c-6.038,1.446 -11.896,3.36 -17.532,5.699Z" style="fill:#7c7c7c;"/></g></svg>